{
.appVersion = "3150";
.formatVersion = 3;
axes = (
{
name = Weight;
tag = wght;
}
);
classes = (
{
automatic = 1;
code = "A Aacute Abreve Acircumflex Adieresis Agrave Amacron Aogonek Aring Atilde AE B C Cacute Ccaron Ccedilla Cdotaccent D Eth Dcaron Dcroat E Eacute Ecaron Ecircumflex Edieresis Edotaccent Egrave Emacron Eogonek F G Gbreve Gcommaaccent Gdotaccent H Hbar I IJ Iacute Icircumflex Idieresis Idotaccent Igrave Imacron Iogonek J K Kcommaaccent L Lacute Lcaron Lcommaaccent Lslash M N Nacute Ncaron Ncommaaccent Ntilde Eng O Oacute Ocircumflex Odieresis Ograve Ohungarumlaut Omacron Oslash Otilde OE P Thorn Q R Racute Rcaron Rcommaaccent S Sacute Scaron Scedilla Scommaaccent Germandbls T Tcaron Tcommaaccent U Uacute Ubreve Ucircumflex Udieresis Ugrave Uhungarumlaut Umacron Uogonek Uring V W Wacute Wcircumflex Wdieresis Wgrave X Y Yacute Ycircumflex Ydieresis Ygrave Z Zacute Zcaron Zdotaccent";
name = Uppercase;
}
);
customParameters = (
{
name = panose;
value = (
0,
0,
0,
0,
0,
0,
0,
0,
0,
0
);
},
{
name = fsType;
value = (
);
},
{
name = "Write lastChange";
value = 0;
},
{
name = "Use Typo Metrics";
value = 1;
},
{
name = "Use Line Breaks";
value = 1;
},
{
name = "Enforce Compatibility Check";
value = 0;
},
{
name = "Axis Mappings";
value = {
wght = {
400 = 90;
500 = 110;
600 = 130;
700 = 140;
800 = 150;
};
};
}
);
date = "2023-06-08 18:31:24 +0000";
familyName = Mekorot;
featurePrefixes = (
{
automatic = 1;
code = "languagesystem DFLT dflt;

languagesystem latn dflt;
languagesystem latn AZE;
languagesystem latn CRT;
languagesystem latn KAZ;
languagesystem latn TAT;
languagesystem latn TRK;
languagesystem latn ROM;
languagesystem latn MOL;
languagesystem latn CAT;

languagesystem hebr dflt;
languagesystem hebr IWR;
";
name = Languagesystems;
}
);
features = (
{
automatic = 1;
code = "feature locl;
feature subs;
feature sinf;
feature sups;
feature frac;
feature ordn;
feature c2sc;
feature smcp;
feature case;
feature numr;
feature dnom;
feature tnum;

glyphs = (
{
color = 5;
glyphname = A;
kernLeft = kern_A3;
kernRight = kern_A3;
layers = (
{
anchors = (
{
name = bottom;
pos = (284,0);
},
{
name = right;
pos = (536,0);
},
{
name = top;
pos = (430,710);
}
);
layerId = master01;
shapes = (
{
closed = 1;
nodes = (
(185,0,l),
(188,16,l),
(102,50,l),
(96,28,l),
(416,599,l),
(379,599,l),
(493,28,l),
(508,58,l),
(397,16,l),
(394,0,l),
(631,0,l),
(635,16,l),
(539,74,l),
(580,28,l),
(444,665,l),
(401,665,l),
(37,28,l),
(85,67,l),
(-11,16,l),
(-15,0,l)
);
},
{
closed = 1;
nodes = (
(487,238,l),
(497,288,l),
(193,288,l),
(183,238,l)
);
}
);
userData = {
com.typemytype.robofont.layerData = {
mask = {
anchors = (
{
name = top;
x = 430;
y = 710;
},
{
name = right;
x = 536;
y = 0;
},
{
name = bottom;
x = 284;
y = 0;
}
);
components = (
);
contours = (
{
points = (
{
segmentType = line;
smooth = 0;
x = -15;
y = 0;
},
{
segmentType = line;
smooth = 0;
x = 185;
y = 0;
},
{
segmentType = line;
smooth = 0;
x = 188;
y = 16;
},
{
segmentType = line;
smooth = 0;
x = 102;
y = 50;
},
{
segmentType = line;
smooth = 0;
x = 96;
y = 28;
},
{
segmentType = line;
smooth = 0;
x = 416;
y = 599;
},
{
segmentType = line;
smooth = 0;
x = 379;
y = 599;
},
{
segmentType = line;
smooth = 0;
x = 493;
y = 28;
},
{
segmentType = line;
smooth = 0;
x = 508;
y = 58;
},
{
segmentType = line;
smooth = 0;
x = 397;
y = 16;
},
{
segmentType = line;
smooth = 0;
x = 394;
y = 0;
},
{
segmentType = line;
smooth = 0;
x = 631;
y = 0;
},
{
segmentType = line;
smooth = 0;
x = 635;
y = 16;
},
{
segmentType = line;
smooth = 0;
x = 539;
y = 74;
},
{
segmentType = line;
smooth = 0;
x = 580;
y = 28;
},
{
segmentType = line;
smooth = 0;
x = 444;
y = 665;
},
{
segmentType = line;
smooth = 0;
x = 401;
y = 665;
},
{
segmentType = line;
smooth = 0;
x = 37;
y = 28;
},
{
segmentType = line;
smooth = 0;
x = 85;
y = 67;
},
{
segmentType = line;
smooth = 0;
x = -11;
y = 16;
}
);
},
{
points = (
{
segmentType = line;
smooth = 0;
x = 183;
y = 238;
},
{
segmentType = line;
smooth = 0;
x = 487;
y = 238;
},
{
segmentType = line;
smooth = 0;
x = 497;
y = 288;
},
{
segmentType = line;
smooth = 0;
x = 193;
y = 288;
}
);
}
);
lib = {
};
name = A;
unicodes = (
);
width = 715;
};
};
};
width = 715;
},
{
anchors = (
{
name = bottom;
pos = (252,0);
},
{
name = right;
pos = (516,0);
},
{
name = top;
pos = (421,710);
}
);
layerId = "48B243E4-A9BC-4CE2-9E97-0DBF8BE24EDB";
shapes = (
{
closed = 1;
nodes = (
(149,0,l),
(153,16,l),
(70,56,l),
(70,28,l),
(355,539,l),
(315,539,l),
(416,28,l),
(433,62,l),
(327,16,l),
(324,0,l),
(648,0,l),
(651,16,l),
(574,62,l),
(599,28,l),
(467,665,l),
(364,665,l),
(4,28,l),
(37,59,l),
(-42,16,l),
(-45,0,l)
);
},
{
closed = 1;
nodes = (
(490,207,l),
(501,262,l),
(150,262,l),
(139,207,l)
);
}
);
userData = {
com.typemytype.robofont.layerData = {
mask = {
anchors = (
{
name = top;
x = 421;
y = 710;
},
{
name = right;
x = 516;
y = 0;
},
{
name = bottom;
x = 252;
y = 0;
}
);
components = (
);
contours = (
{
points = (
{
segmentType = line;
smooth = 0;
x = -45;
y = 0;
},
{
segmentType = line;
smooth = 0;
x = 149;
y = 0;
},
{
segmentType = line;
smooth = 0;
x = 153;
y = 16;
},
{
segmentType = line;
smooth = 0;
x = 70;
y = 56;
},
{
segmentType = line;
smooth = 0;
x = 70;
y = 28;
},
{
segmentType = line;
smooth = 0;
x = 355;
y = 539;
},
{
segmentType = line;
smooth = 0;
x = 315;
y = 539;
},
{
segmentType = line;
smooth = 0;
x = 416;
y = 28;
},
{
segmentType = line;
smooth = 0;
x = 433;
y = 62;
},
{
segmentType = line;
smooth = 0;
x = 327;
y = 16;
},
{
segmentType = line;
smooth = 0;
x = 324;
y = 0;
},
{
segmentType = line;
smooth = 0;
x = 648;
y = 0;
},
{
segmentType = line;
smooth = 0;
x = 651;
y = 16;
},
{
segmentType = line;
smooth = 0;
x = 574;
y = 62;
},
{
segmentType = line;
smooth = 0;
x = 599;
y = 28;
},
{
segmentType = line;
smooth = 0;
x = 467;
y = 665;
},
{
segmentType = line;
smooth = 0;
x = 364;
y = 665;
},
{
segmentType = line;
smooth = 0;
x = 4;
y = 28;
},
{
segmentType = line;
smooth = 0;
x = 37;
y = 59;
},
{
segmentType = line;
smooth = 0;
x = -42;
y = 16;
}
);
},
{
points = (
{
segmentType = line;
smooth = 0;
x = 139;
y = 207;
},
{
segmentType = line;
smooth = 0;
x = 490;
y = 207;
},
{
segmentType = line;
smooth = 0;
x = 501;
y = 262;
},
{
segmentType = line;
smooth = 0;
x = 150;
y = 262;
}
);
}
);
lib = {
};
name = A;
unicodes = (
);
width = 719;
};
};
};
width = 719;
}
);
unicode = 65;
},
{
color = 4;
glyphname = Aogonek;
kernLeft = kern_A3;
kernRight = kern_A3;
layers = (
{
layerId = master01;
shapes = (
{
closed = 1;
nodes = (
(185,0,l),
(188,16,l),
(102,50,l),
(96,28,l),
(416,599,l),
(372,599,l),
(491,28,l),
(508,58,l),
(397,16,l),
(394,0,l),
(631,0,l),
(635,16,l),
(539,74,l),
(580,28,l),
(444,665,l),
(401,665,l),
(37,28,l),
(85,67,l),
(-11,16,l),
(-15,0,l)
);
},
{
closed = 1;
nodes = (
(487,238,l),
(497,288,l),
(193,288,l),
(183,238,l)
);
},
{
closed = 1;
nodes = (
(524,-240,o),
(554,-223,o),
(575,-193,c),
(577,-180,l),
(574,-180,l),
(556,-192,o),
(538,-196,o),
(524,-196,cs),
(489,-196,o),
(468,-179,o),
(468,-140,cs),
(468,-92,o),
(498,-37,o),
(553,25,c),
(529,25,l),
(453,-46,o),
(407,-103,o),
(407,-159,cs),
(407,-210,o),
(438,-240,o),
(488,-240,cs)
);
}
);
userData = {
com.typemytype.robofont.layerData = {
mask = {
anchors = (
);
components = (
);
contours = (
{
points = (
{
segmentType = line;
smooth = 0;
x = -15;
y = 0;
},
{
segmentType = line;
smooth = 0;
x = 185;
y = 0;
},
{
segmentType = line;
smooth = 0;
x = 188;
y = 16;
},
{
segmentType = line;
smooth = 0;
x = 102;
y = 50;
},
{
segmentType = line;
smooth = 0;
x = 96;
y = 28;
},
{
segmentType = line;
smooth = 0;
x = 416;
y = 599;
},
{
segmentType = line;
smooth = 0;
x = 372;
y = 599;
},
{
segmentType = line;
smooth = 0;
x = 491;
y = 28;
},
{
segmentType = line;
smooth = 0;
x = 508;
y = 58;
},
{
segmentType = line;
smooth = 0;
x = 397;
y = 16;
},
{
segmentType = line;
smooth = 0;
x = 394;
y = 0;
},
{
segmentType = line;
smooth = 0;
x = 631;
y = 0;
},
{
segmentType = line;
smooth = 0;
x = 635;
y = 16;
},
{
segmentType = line;
smooth = 0;
x = 539;
y = 74;
},
{
segmentType = line;
smooth = 0;
x = 580;
y = 28;
},
{
segmentType = line;
smooth = 0;
x = 444;
y = 665;
},
{
segmentType = line;
smooth = 0;
x = 401;
y = 665;
},
{
segmentType = line;
smooth = 0;
x = 37;
y = 28;
},
{
segmentType = line;
smooth = 0;
x = 85;
y = 67;
},
{
segmentType = line;
smooth = 0;
x = -11;
y = 16;
}
);
},
{
points = (
{
segmentType = line;
smooth = 0;
x = 183;
y = 238;
},
{
segmentType = line;
smooth = 0;
x = 487;
y = 238;
},
{
segmentType = line;
smooth = 0;
x = 497;
y = 288;
},
{
segmentType = line;
smooth = 0;
x = 193;
y = 288;
}
);
},
{
points = (
{
segmentType = curve;
smooth = 1;
x = 488;
y = -240;
},
{
smooth = 0;
x = 524;
y = -240;
},
{
smooth = 0;
x = 554;
y = -223;
},
{
segmentType = curve;
smooth = 0;
x = 575;
y = -193;
},
{
segmentType = line;
smooth = 0;
x = 577;
y = -180;
},
{
segmentType = line;
smooth = 0;
x = 574;
y = -180;
},
{
smooth = 0;
x = 556;
y = -192;
},
{
smooth = 0;
x = 538;
y = -196;
},
{
segmentType = curve;
smooth = 1;
x = 524;
y = -196;
},
{
smooth = 0;
x = 489;
y = -196;
},
{
smooth = 0;
x = 468;
y = -179;
},
{
segmentType = curve;
smooth = 1;
x = 468;
y = -140;
},
{
smooth = 0;
x = 468;
y = -92;
},
{
smooth = 0;
x = 498;
y = -37;
},
{
segmentType = curve;
smooth = 0;
x = 553;
y = 25;
},
{
segmentType = line;
smooth = 0;
x = 529;
y = 25;
},
{
smooth = 0;
x = 453;
y = -46;
},
{
smooth = 0;
x = 407;
y = -103;
},
{
segmentType = curve;
smooth = 1;
x = 407;
y = -159;
},
{
smooth = 0;
x = 407;
y = -210;
},
{
smooth = 0;
x = 438;
y = -240;
}
);
}
);
lib = {
};
name = Aogonek;
unicodes = (
);
width = 715;
};
};
};
width = 715;
},
{
layerId = "48B243E4-A9BC-4CE2-9E97-0DBF8BE24EDB";
shapes = (
{
closed = 1;
nodes = (
(149,0,l),
(153,16,l),
(68,58,l),
(70,28,l),
(355,539,l),
(315,539,l),
(416,28,l),
(433,62,l),
(327,16,l),
(324,0,l),
(648,0,l),
(651,16,l),
(561,74,l),
(599,28,l),
(467,665,l),
(364,665,l),
(4,28,l),
(73,80,l),
(-42,16,l),
(-45,0,l)
);
},
{
closed = 1;
nodes = (
(490,207,l),
(501,262,l),
(150,262,l),
(139,207,l)
);
},
{
closed = 1;
nodes = (
(519,-240,o),
(550,-220,o),
(570,-189,c),
(576,-167,l),
(572,-167,l),
(562,-177,o),
(544,-183,o),
(530,-183,cs),
(495,-183,o),
(477,-164,o),
(477,-130,cs),
(477,-76,o),
(504,-19,o),
(535,27,c),
(512,27,l),
(450,-25,o),
(384,-89,o),
(384,-160,cs),
(384,-209,o),
(418,-240,o),
(475,-240,cs)
);
}
);
userData = {
com.typemytype.robofont.layerData = {
mask = {
anchors = (
);
components = (
);
contours = (
{
points = (
{
segmentType = line;
smooth = 0;
x = -45;
y = 0;
},
{
segmentType = line;
smooth = 0;
x = 149;
y = 0;
},
{
segmentType = line;
smooth = 0;
x = 153;
y = 16;
},
{
segmentType = line;
smooth = 0;
x = 68;
y = 58;
},
{
segmentType = line;
smooth = 0;
x = 70;
y = 28;
},
{
segmentType = line;
smooth = 0;
x = 355;
y = 539;
},
{
segmentType = line;
smooth = 0;
x = 315;
y = 539;
},
{
segmentType = line;
smooth = 0;
x = 416;
y = 28;
},
{
segmentType = line;
smooth = 0;
x = 433;
y = 62;
},
{
segmentType = line;
smooth = 0;
x = 327;
y = 16;
},
{
segmentType = line;
smooth = 0;
x = 324;
y = 0;
},
{
segmentType = line;
smooth = 0;
x = 648;
y = 0;
},
{
segmentType = line;
smooth = 0;
x = 651;
y = 16;
},
{
segmentType = line;
smooth = 0;
x = 561;
y = 74;
},
{
segmentType = line;
smooth = 0;
x = 599;
y = 28;
},
{
segmentType = line;
smooth = 0;
x = 467;
y = 665;
},
{
segmentType = line;
smooth = 0;
x = 364;
y = 665;
},
{
segmentType = line;
smooth = 0;
x = 4;
y = 28;
},
{
segmentType = line;
smooth = 0;
x = 73;
y = 80;
},
{
segmentType = line;
smooth = 0;
x = -42;
y = 16;
}
);
},
{
points = (
{
segmentType = line;
smooth = 0;
x = 139;
y = 207;
},
{
segmentType = line;
smooth = 0;
x = 490;
y = 207;
},
{
segmentType = line;
smooth = 0;
x = 501;
y = 262;
},
{
segmentType = line;
smooth = 0;
x = 150;
y = 262;
}
);
},
{
points = (
{
segmentType = curve;
smooth = 1;
x = 475;
y = -240;
},
{
smooth = 0;
x = 519;
y = -240;
},
{
smooth = 0;
x = 550;
y = -220;
},
{
segmentType = curve;
smooth = 0;
x = 570;
y = -189;
},
{
segmentType = line;
smooth = 0;
x = 576;
y = -167;
},
{
segmentType = line;
smooth = 0;
x = 572;
y = -167;
},
{
smooth = 0;
x = 562;
y = -177;
},
{
smooth = 0;
x = 544;
y = -183;
},
{
segmentType = curve;
smooth = 1;
x = 530;
y = -183;
},
{
smooth = 0;
x = 495;
y = -183;
},
{
smooth = 0;
x = 477;
y = -164;
},
{
segmentType = curve;
smooth = 1;
x = 477;
y = -130;
},
{
smooth = 0;
x = 477;
y = -76;
},
{
smooth = 0;
x = 504;
y = -19;
},
{
segmentType = curve;
smooth = 0;
x = 535;
y = 27;
},
{
segmentType = line;
smooth = 0;
x = 512;
y = 27;
},
{
smooth = 0;
x = 450;
y = -25;
},
{
smooth = 0;
x = 384;
y = -89;
},
{
segmentType = curve;
smooth = 1;
x = 384;
y = -160;
},
{
smooth = 0;
x = 384;
y = -209;
},
{
smooth = 0;
x = 418;
y = -240;
}
);
}
);
lib = {
};
name = Aogonek;
unicodes = (
);
width = 719;
};
};
};
width = 719;
}
);
unicode = 260;
},
{
color = 5;
glyphname = AE;
kernLeft = kern_AE2;
kernRight = kern_E1;
layers = (
{
anchors = (
{
name = top;
pos = (594,710);
}
);
layerId = master01;
shapes = (
{
closed = 1;
nodes = (
(185,0,l),
(188,16,l),
(92,55,l),
(102,28,l),
(536,609,l),
(520,599,l),
(425,56,l),
(342,16,l),
(339,0,l),
(500,0,l),
(617,660,l),
(517,660,l),
(37,28,l),
(99,71,l),
(-11,16,l),
(-15,0,l)
);
},
{
closed = 1;
nodes = (
(517,238,l),
(527,288,l),
(250,288,l),
(240,238,l)
);
},
{
closed = 1;
nodes = (
(884,488,l),
(915,660,l),
(566,660,l),
(557,610,l),
(831,610,l),
(868,488,l)
);
},
{
closed = 1;
nodes = (
(765,232,l),
(804,451,l),
(788,451,l),
(726,366,l),
(522,366,l),
(513,316,l),
(718,316,l),
(749,232,l)
);
},
{
closed = 1;
nodes = (
(872,182,l),
(856,182,l),
(776,50,l),
(486,50,l),
(477,0,l),
(840,0,l)
);
}
);
userData = {
com.typemytype.robofont.layerData = {
mask = {
anchors = (
{
name = top;
x = 594;
y = 710;
}
);
components = (
);
contours = (
{
points = (
{
segmentType = line;
smooth = 0;
x = -15;
y = 0;
},
{
segmentType = line;
smooth = 0;
x = 185;
y = 0;
},
{
segmentType = line;
smooth = 0;
x = 188;
y = 16;
},
{
segmentType = line;
smooth = 0;
x = 92;
y = 55;
},
{
segmentType = line;
smooth = 0;
x = 102;
y = 28;
},
{
segmentType = line;
smooth = 0;
x = 536;
y = 609;
},
{
segmentType = line;
smooth = 0;
x = 520;
y = 599;
},
{
segmentType = line;
smooth = 0;
x = 425;
y = 56;
},
{
segmentType = line;
smooth = 0;
x = 342;
y = 16;
},
{
segmentType = line;
smooth = 0;
x = 339;
y = 0;
},
{
segmentType = line;
smooth = 0;
x = 500;
y = 0;
},
{
segmentType = line;
smooth = 0;
x = 617;
y = 660;
},
{
segmentType = line;
smooth = 0;
x = 517;
y = 660;
},
{
segmentType = line;
smooth = 0;
x = 37;
y = 28;
},
{
segmentType = line;
smooth = 0;
x = 99;
y = 71;
},
{
segmentType = line;
smooth = 0;
x = -11;
y = 16;
}
);
},
{
points = (
{
segmentType = line;
smooth = 0;
x = 240;
y = 238;
},
{
segmentType = line;
smooth = 0;
x = 517;
y = 238;
},
{
segmentType = line;
smooth = 0;
x = 527;
y = 288;
},
{
segmentType = line;
smooth = 0;
x = 250;
y = 288;
}
);
},
{
points = (
{
segmentType = line;
smooth = 0;
x = 868;
y = 488;
},
{
segmentType = line;
smooth = 0;
x = 884;
y = 488;
},
{
segmentType = line;
smooth = 0;
x = 915;
y = 660;
},
{
segmentType = line;
smooth = 0;
x = 566;
y = 660;
},
{
segmentType = line;
smooth = 0;
x = 557;
y = 610;
},
{
segmentType = line;
smooth = 0;
x = 831;
y = 610;
}
);
},
{
points = (
{
segmentType = line;
smooth = 0;
x = 749;
y = 232;
},
{
segmentType = line;
smooth = 0;
x = 765;
y = 232;
},
{
segmentType = line;
smooth = 0;
x = 804;
y = 451;
},
{
segmentType = line;
smooth = 0;
x = 788;
y = 451;
},
{
segmentType = line;
smooth = 0;
x = 726;
y = 366;
},
{
segmentType = line;
smooth = 0;
x = 522;
y = 366;
},
{
segmentType = line;
smooth = 0;
x = 513;
y = 316;
},
{
segmentType = line;
smooth = 0;
x = 718;
y = 316;
}
);
},
{
points = (
{
segmentType = line;
smooth = 0;
x = 840;
y = 0;
},
{
segmentType = line;
smooth = 0;
x = 872;
y = 182;
},
{
segmentType = line;
smooth = 0;
x = 856;
y = 182;
},
{
segmentType = line;
smooth = 0;
x = 776;
y = 50;
},
{
segmentType = line;
smooth = 0;
x = 486;
y = 50;
},
{
segmentType = line;
smooth = 0;
x = 477;
y = 0;
}
);
}
);
lib = {
};
name = AE;
unicodes = (
);
width = 950;
};
};
};
width = 950;
},
{
anchors = (
{
name = top;
pos = (604,710);
}
);
layerId = "48B243E4-A9BC-4CE2-9E97-0DBF8BE24EDB";
shapes = (
{
closed = 1;
nodes = (
(149,0,l),
(153,16,l),
(68,58,l),
(74,28,l),
(512,601,l),
(495,601,l),
(399,58,l),
(312,16,l),
(309,0,l),
(560,0,l),
(676,660,l),
(488,660,l),
(4,28,l),
(73,75,l),
(-42,16,l),
(-45,0,l)
);
},
{
closed = 1;
nodes = (
(490,227,l),
(501,282,l),
(209,282,l),
(198,227,l)
);
},
{
closed = 1;
nodes = (
(918,486,l),
(948,660,l),
(584,660,l),
(574,605,l),
(850,605,l),
(903,486,l)
);
},
{
closed = 1;
nodes = (
(798,227,l),
(839,456,l),
(823,456,l),
(745,368,l),
(540,368,l),
(530,313,l),
(735,313,l),
(782,227,l)
);
},
{
closed = 1;
nodes = (
(897,219,l),
(881,219,l),
(770,55,l),
(500,55,l),
(493,0,l),
(858,0,l)
);
}
);
userData = {
com.typemytype.robofont.layerData = {
mask = {
anchors = (
{
name = top;
x = 604;
y = 710;
}
);
components = (
);
contours = (
{
points = (
{
segmentType = line;
smooth = 0;
x = -45;
y = 0;
},
{
segmentType = line;
smooth = 0;
x = 149;
y = 0;
},
{
segmentType = line;
smooth = 0;
x = 153;
y = 16;
},
{
segmentType = line;
smooth = 0;
x = 68;
y = 58;
},
{
segmentType = line;
smooth = 0;
x = 74;
y = 28;
},
{
segmentType = line;
smooth = 0;
x = 512;
y = 601;
},
{
segmentType = line;
smooth = 0;
x = 495;
y = 601;
},
{
segmentType = line;
smooth = 0;
x = 399;
y = 58;
},
{
segmentType = line;
smooth = 0;
x = 312;
y = 16;
},
{
segmentType = line;
smooth = 0;
x = 309;
y = 0;
},
{
segmentType = line;
smooth = 0;
x = 560;
y = 0;
},
{
segmentType = line;
smooth = 0;
x = 676;
y = 660;
},
{
segmentType = line;
smooth = 0;
x = 488;
y = 660;
},
{
segmentType = line;
smooth = 0;
x = 4;
y = 28;
},
{
segmentType = line;
smooth = 0;
x = 73;
y = 75;
},
{
segmentType = line;
smooth = 0;
x = -42;
y = 16;
}
);
},
{
points = (
{
segmentType = line;
smooth = 0;
x = 198;
y = 227;
},
{
segmentType = line;
smooth = 0;
x = 490;
y = 227;
},
{
segmentType = line;
smooth = 0;
x = 501;
y = 282;
},
{
segmentType = line;
smooth = 0;
x = 209;
y = 282;
}
);
},
{
points = (
{
segmentType = line;
smooth = 0;
x = 903;
y = 486;
},
{
segmentType = line;
smooth = 0;
x = 918;
y = 486;
},
{
segmentType = line;
smooth = 0;
x = 948;
y = 660;
},
{
segmentType = line;
smooth = 0;
x = 584;
y = 660;
},
{
segmentType = line;
smooth = 0;
x = 574;
y = 605;
},
{
segmentType = line;
smooth = 0;
x = 850;
y = 605;
}
);
},
{
points = (
{
segmentType = line;
smooth = 0;
x = 782;
y = 227;
},
{
segmentType = line;
smooth = 0;
x = 798;
y = 227;
},
{
segmentType = line;
smooth = 0;
x = 839;
y = 456;
},
{
segmentType = line;
smooth = 0;
x = 823;
y = 456;
},
{
segmentType = line;
smooth = 0;
x = 745;
y = 368;
},
{
segmentType = line;
smooth = 0;
x = 540;
y = 368;
},
{
segmentType = line;
smooth = 0;
x = 530;
y = 313;
},
{
segmentType = line;
smooth = 0;
x = 735;
y = 313;
}
);
},
{
points = (
{
segmentType = line;
smooth = 0;
x = 858;
y = 0;
},
{
segmentType = line;
smooth = 0;
x = 897;
y = 219;
},
{
segmentType = line;
smooth = 0;
x = 881;
y = 219;
},
{
segmentType = line;
smooth = 0;
x = 770;
y = 55;
},
{
segmentType = line;
smooth = 0;
x = 500;
y = 55;
},
{
segmentType = line;
smooth = 0;
x = 493;
y = 0;
}
);
}
);
lib = {
};
name = AE;
unicodes = (
);
width = 963;
};
};
};
width = 963;
}
);
unicode = 198;
},
{
color = 5;
glyphname = B;
kernLeft = kern_H2;
kernRight = kern_B1;
layers = (
{
layerId = master01;
shapes = (
{
closed = 1;
nodes = (
(171,0,l),
(287,660,l),
(126,660,l),
(123,644,l),
(192,604,l),
(96,56,l),
(13,16,l),
(10,0,l)
);
},
{
closed = 1;
nodes = (
(469,0,o),
(566,103,o),
(566,200,cs),
(566,298,o),
(489,358,o),
(334,358,c),
(330,343,l),
(476,343,o),
(561,432,o),
(561,520,cs),
(561,614,o),
(476,660,o),
(342,660,cs),
(237,660,l),
(228,610,l),
(339,610,ls),
(431,610,o),
(468,573,o),
(468,503,cs),
(468,424,o),
(413,365,o),
(299,365,cs),
(193,365,l),
(184,315,l),
(314,315,ls),
(424,315,o),
(472,280,o),
(472,200,cs),
(472,109,o),
(412,50,o),
(288,50,cs),
(157,50,l),
(148,0,l),
(279,0,ls)
);
}
);
userData = {
com.typemytype.robofont.layerData = {
mask = {
anchors = (
);
components = (
);
contours = (
{
points = (
{
segmentType = line;
smooth = 0;
x = 10;
y = 0;
},
{
segmentType = line;
smooth = 0;
x = 171;
y = 0;
},
{
segmentType = line;
smooth = 0;
x = 287;
y = 660;
},
{
segmentType = line;
smooth = 0;
x = 126;
y = 660;
},
{
segmentType = line;
smooth = 0;
x = 123;
y = 644;
},
{
segmentType = line;
smooth = 0;
x = 192;
y = 604;
},
{
segmentType = line;
smooth = 0;
x = 96;
y = 56;
},
{
segmentType = line;
smooth = 0;
x = 13;
y = 16;
}
);
},
{
points = (
{
segmentType = line;
smooth = 1;
x = 279;
y = 0;
},
{
smooth = 0;
x = 469;
y = 0;
},
{
smooth = 0;
x = 566;
y = 103;
},
{
segmentType = curve;
smooth = 1;
x = 566;
y = 200;
},
{
smooth = 0;
x = 566;
y = 298;
},
{
smooth = 0;
x = 489;
y = 358;
},
{
segmentType = curve;
smooth = 0;
x = 334;
y = 358;
},
{
segmentType = line;
smooth = 0;
x = 330;
y = 343;
},
{
smooth = 0;
x = 476;
y = 343;
},
{
smooth = 0;
x = 561;
y = 432;
},
{
segmentType = curve;
smooth = 1;
x = 561;
y = 520;
},
{
smooth = 0;
x = 561;
y = 614;
},
{
smooth = 0;
x = 476;
y = 660;
},
{
segmentType = curve;
smooth = 1;
x = 342;
y = 660;
},
{
segmentType = line;
smooth = 0;
x = 237;
y = 660;
},
{
segmentType = line;
smooth = 0;
x = 228;
y = 610;
},
{
segmentType = line;
smooth = 1;
x = 339;
y = 610;
},
{
smooth = 0;
x = 431;
y = 610;
},
{
smooth = 0;
x = 468;
y = 573;
},
{
segmentType = curve;
smooth = 1;
x = 468;
y = 503;
},
{
smooth = 0;
x = 468;
y = 424;
},
{
smooth = 0;
x = 413;
y = 365;
},
{
segmentType = curve;
smooth = 1;
x = 299;
y = 365;
},
{
segmentType = line;
smooth = 0;
x = 193;
y = 365;
},
{
segmentType = line;
smooth = 0;
x = 184;
y = 315;
},
{
segmentType = line;
smooth = 1;
x = 314;
y = 315;
},
{
smooth = 0;
x = 424;
y = 315;
},
{
smooth = 0;
x = 472;
y = 280;
},
{
segmentType = curve;
smooth = 1;
x = 472;
y = 200;
},
{
smooth = 0;
x = 472;
y = 109;
},
{
smooth = 0;
x = 412;
y = 50;
},
{
segmentType = curve;
smooth = 1;
x = 288;
y = 50;
},
{
segmentType = line;
smooth = 0;
x = 157;
y = 50;
},
{
segmentType = line;
smooth = 0;
x = 148;
y = 0;
}
);
}
);
lib = {
};
name = B;
unicodes = (
);
width = 626;
};
};
};
width = 626;
},
{
layerId = "48B243E4-A9BC-4CE2-9E97-0DBF8BE24EDB";
shapes = (
{
closed = 1;
nodes = (
(221,0,l),
(337,660,l),
(86,660,l),
(83,644,l),
(156,602,l),
(60,58,l),
(-27,16,l),
(-30,0,l)
);
},
{
closed = 1;
nodes = (
(523,0,o),
(623,102,o),
(623,207,cs),
(623,304,o),
(540,363,o),
(378,363,c),
(367,348,l),
(521,348,o),
(623,434,o),
(623,523,cs),
(623,615,o),
(530,660,o),
(401,660,cs),
(263,660,l),
(252,605,l),
(342,605,ls),
(421,605,o),
(447,567,o),
(447,498,cs),
(447,423,o),
(395,363,o),
(307,363,cs),
(212,363,l),
(202,318,l),
(322,318,ls),
(406,318,o),
(440,280,o),
(440,205,cs),
(440,130,o),
(396,55,o),
(293,55,cs),
(157,55,l),
(147,0,l),
(329,0,ls)
);
}
);
userData = {
com.typemytype.robofont.layerData = {
mask = {
anchors = (
);
components = (
);
contours = (
{
points = (
{
segmentType = line;
smooth = 0;
x = -30;
y = 0;
},
{
segmentType = line;
smooth = 0;
x = 221;
y = 0;
},
{
segmentType = line;
smooth = 0;
x = 337;
y = 660;
},
{
segmentType = line;
smooth = 0;
x = 86;
y = 660;
},
{
segmentType = line;
smooth = 0;
x = 83;
y = 644;
},
{
segmentType = line;
smooth = 0;
x = 156;
y = 602;
},
{
segmentType = line;
smooth = 0;
x = 60;
y = 58;
},
{
segmentType = line;
smooth = 0;
x = -27;
y = 16;
}
);
},
{
points = (
{
segmentType = line;
smooth = 1;
x = 329;
y = 0;
},
{
smooth = 0;
x = 523;
y = 0;
},
{
smooth = 0;
x = 623;
y = 102;
},
{
segmentType = curve;
smooth = 1;
x = 623;
y = 207;
},
{
smooth = 0;
x = 623;
y = 304;
},
{
smooth = 0;
x = 540;
y = 363;
},
{
segmentType = curve;
smooth = 0;
x = 378;
y = 363;
},
{
segmentType = line;
smooth = 0;
x = 367;
y = 348;
},
{
smooth = 0;
x = 521;
y = 348;
},
{
smooth = 0;
x = 623;
y = 434;
},
{
segmentType = curve;
smooth = 1;
x = 623;
y = 523;
},
{
smooth = 0;
x = 623;
y = 615;
},
{
smooth = 0;
x = 530;
y = 660;
},
{
segmentType = curve;
smooth = 1;
x = 401;
y = 660;
},
{
segmentType = line;
smooth = 0;
x = 263;
y = 660;
},
{
segmentType = line;
smooth = 0;
x = 252;
y = 605;
},
{
segmentType = line;
smooth = 1;
x = 342;
y = 605;
},
{
smooth = 0;
x = 421;
y = 605;
},
{
smooth = 0;
x = 447;
y = 567;
},
{
segmentType = curve;
smooth = 1;
x = 447;
y = 498;
},
{
smooth = 0;
x = 447;
y = 423;
},
{
smooth = 0;
x = 395;
y = 363;
},
{
segmentType = curve;
smooth = 1;
x = 307;
y = 363;
},
{
segmentType = line;
smooth = 0;
x = 212;
y = 363;
},
{
segmentType = line;
smooth = 0;
x = 202;
y = 318;
},
{
segmentType = line;
smooth = 1;
x = 322;
y = 318;
},
{
smooth = 0;
x = 406;
y = 318;
},
{
smooth = 0;
x = 440;
y = 280;
},
{
segmentType = curve;
smooth = 1;
x = 440;
y = 205;
},
{
smooth = 0;
x = 440;
y = 130;
},
{
smooth = 0;
x = 396;
y = 55;
},
{
segmentType = curve;
smooth = 1;
x = 293;
y = 55;
},
{
segmentType = line;
smooth = 0;
x = 157;
y = 55;
},
{
segmentType = line;
smooth = 0;
x = 147;
y = 0;
}
);
}
);
lib = {
};
name = B;
unicodes = (
);
width = 678;
};
};
};
width = 678;
}
);
unicode = 66;
},
{
color = 5;
glyphname = C;
kernLeft = kern_O2;
kernRight = kern_C1;
layers = (
{
anchors = (
{
name = bottom;
pos = (326,0);
},
{
name = top;
pos = (456,710);
}
);
layerId = master01;
shapes = (
{
closed = 1;
nodes = (
(430,-10,o),
(488,9,o),
(551,39,c),
(589,198,l),
(573,198,l),
(493,89,l),
(454,64,o),
(405,36,o),
(347,36,cs),
(233,36,o),
(153,128,o),
(153,286,cs),
(153,466,o),
(252,624,o),
(433,624,cs),
(484,624,o),
(514,606,o),
(547,571,c),
(587,447,l),
(603,447,l),
(629,622,l),
(565,657,o),
(521,670,o),
(445,670,cs),
(240,670,o),
(60,487,o),
(60,259,cs),
(60,101,o),
(154,-10,o),
(320,-10,cs)
);
}
);
userData = {
com.typemytype.robofont.layerData = {
mask = {
anchors = (
{
name = top;
x = 456;
y = 710;
},
{
name = bottom;
x = 326;
y = 0;
}
);
components = (
);
contours = (
{
points = (
{
segmentType = curve;
smooth = 1;
x = 320;
y = -10;
},
{
smooth = 0;
x = 430;
y = -10;
},
{
smooth = 0;
x = 488;
y = 9;
},
{
segmentType = curve;
smooth = 0;
x = 551;
y = 39;
},
{
segmentType = line;
smooth = 0;
x = 589;
y = 198;
},
{
segmentType = line;
smooth = 0;
x = 573;
y = 198;
},
{
segmentType = line;
smooth = 0;
x = 493;
y = 89;
},
{
smooth = 0;
x = 454;
y = 64;
},
{
smooth = 0;
x = 405;
y = 36;
},
{
segmentType = curve;
smooth = 1;
x = 347;
y = 36;
},
{
smooth = 0;
x = 233;
y = 36;
},
{
smooth = 0;
x = 153;
y = 128;
},
{
segmentType = curve;
smooth = 1;
x = 153;
y = 286;
},
{
smooth = 0;
x = 153;
y = 466;
},
{
smooth = 0;
x = 252;
y = 624;
},
{
segmentType = curve;
smooth = 1;
x = 433;
y = 624;
},
{
smooth = 0;
x = 484;
y = 624;
},
{
smooth = 0;
x = 514;
y = 606;
},
{
segmentType = curve;
smooth = 0;
x = 547;
y = 571;
},
{
segmentType = line;
smooth = 0;
x = 587;
y = 447;
},
{
segmentType = line;
smooth = 0;
x = 603;
y = 447;
},
{
segmentType = line;
smooth = 0;
x = 629;
y = 622;
},
{
smooth = 0;
x = 565;
y = 657;
},
{
smooth = 0;
x = 521;
y = 670;
},
{
segmentType = curve;
smooth = 1;
x = 445;
y = 670;
},
{
smooth = 0;
x = 240;
y = 670;
},
{
smooth = 0;
x = 60;
y = 487;
},
{
segmentType = curve;
smooth = 1;
x = 60;
y = 259;
},
{
smooth = 0;
x = 60;
y = 101;
},
{
smooth = 0;
x = 154;
y = -10;
}
);
}
);
lib = {
};
name = C;
unicodes = (
);
width = 669;
};
};
};
width = 669;
},
{
anchors = (
{
name = bottom;
pos = (330,0);
},
{
name = top;
pos = (434,710);
}
);
layerId = "48B243E4-A9BC-4CE2-9E97-0DBF8BE24EDB";
shapes = (
{
closed = 1;
nodes = (
(408,-10,o),
(495,10,o),
(546,44,c),
(588,219,l),
(570,219,l),
(442,64,l),
(411,48,o),
(381,43,o),
(352,43,cs),
(266,43,o),
(217,119,o),
(217,234,cs),
(217,451,o),
(314,622,o),
(437,622,cs),
(468,622,o),
(486,618,o),
(503,607,c),
(583,428,l),
(601,428,l),
(618,622,l),
(574,649,o),
(533,670,o),
(452,670,cs),
(220,670,o),
(40,473,o),
(40,260,cs),
(40,104,o),
(152,-10,o),
(329,-10,cs)
);
}
);
userData = {
com.typemytype.robofont.layerData = {
mask = {
anchors = (
{
name = top;
x = 434;
y = 710;
},
{
name = bottom;
x = 330;
y = 0;
}
);
components = (
);
contours = (
{
points = (
{
segmentType = curve;
smooth = 1;
x = 329;
y = -10;
},
{
smooth = 0;
x = 408;
y = -10;
},
{
smooth = 0;
x = 495;
y = 10;
},
{
segmentType = curve;
smooth = 0;
x = 546;
y = 44;
},
{
segmentType = line;
smooth = 0;
x = 588;
y = 219;
},
{
segmentType = line;
smooth = 0;
x = 570;
y = 219;
},
{
segmentType = line;
smooth = 0;
x = 442;
y = 64;
},
{
smooth = 0;
x = 411;
y = 48;
},
{
smooth = 0;
x = 381;
y = 43;
},
{
segmentType = curve;
smooth = 1;
x = 352;
y = 43;
},
{
smooth = 0;
x = 266;
y = 43;
},
{
smooth = 0;
x = 217;
y = 119;
},
{
segmentType = curve;
smooth = 1;
x = 217;
y = 234;
},
{
smooth = 0;
x = 217;
y = 451;
},
{
smooth = 0;
x = 314;
y = 622;
},
{
segmentType = curve;
smooth = 1;
x = 437;
y = 622;
},
{
smooth = 0;
x = 468;
y = 622;
},
{
smooth = 0;
x = 486;
y = 618;
},
{
segmentType = curve;
smooth = 0;
x = 503;
y = 607;
},
{
segmentType = line;
smooth = 0;
x = 583;
y = 428;
},
{
segmentType = line;
smooth = 0;
x = 601;
y = 428;
},
{
segmentType = line;
smooth = 0;
x = 618;
y = 622;
},
{
smooth = 0;
x = 574;
y = 649;
},
{
smooth = 0;
x = 533;
y = 670;
},
{
segmentType = curve;
smooth = 1;
x = 452;
y = 670;
},
{
smooth = 0;
x = 220;
y = 670;
},
{
smooth = 0;
x = 40;
y = 473;
},
{
segmentType = curve;
smooth = 1;
x = 40;
y = 260;
},
{
smooth = 0;
x = 40;
y = 104;
},
{
smooth = 0;
x = 152;
y = -10;
}
);
}
);
lib = {
};
name = C;
unicodes = (
);
width = 662;
};
};
};
width = 662;
}
);
unicode = 67;
},
{
color = 4;
glyphname = Ccedilla;
kernLeft = kern_O2;
kernRight = kern_C1;
layers = (
{
layerId = master01;
shapes = (
{
closed = 1;
nodes = (
(430,-10,o),
(488,9,o),
(551,39,c),
(589,198,l),
(573,198,l),
(493,89,l),
(454,64,o),
(405,36,o),
(347,36,cs),
(233,36,o),
(153,128,o),
(153,286,cs),
(153,466,o),
(252,624,o),
(433,624,cs),
(484,624,o),
(514,606,o),
(547,571,c),
(587,447,l),
(603,447,l),
(629,622,l),
(565,657,o),
(521,670,o),
(445,670,cs),
(240,670,o),
(60,487,o),
(60,259,cs),
(60,101,o),
(154,-10,o),
(320,-10,cs)
);
},
{
closed = 1;
nodes = (
(351,-240,o),
(390,-200,o),
(390,-151,cs),
(390,-101,o),
(363,-74,o),
(294,-50,c),
(298,-69,l),
(355,20,l),
(325,20,l),
(252,-95,l),
(315,-115,o),
(338,-132,o),
(338,-165,cs),
(338,-195,o),
(316,-213,o),
(274,-213,cs),
(247,-213,o),
(230,-207,o),
(213,-199,c),
(210,-199,l),
(208,-210,l),
(222,-229,o),
(252,-240,o),
(286,-240,cs)
);
}
);
userData = {
com.typemytype.robofont.layerData = {
mask = {
anchors = (
);
components = (
);
contours = (
{
points = (
{
segmentType = curve;
smooth = 1;
x = 320;
y = -10;
},
{
smooth = 0;
x = 430;
y = -10;
},
{
smooth = 0;
x = 488;
y = 9;
},
{
segmentType = curve;
smooth = 0;
x = 551;
y = 39;
},
{
segmentType = line;
smooth = 0;
x = 589;
y = 198;
},
{
segmentType = line;
smooth = 0;
x = 573;
y = 198;
},
{
segmentType = line;
smooth = 0;
x = 493;
y = 89;
},
{
smooth = 0;
x = 454;
y = 64;
},
{
smooth = 0;
x = 405;
y = 36;
},
{
segmentType = curve;
smooth = 1;
x = 347;
y = 36;
},
{
smooth = 0;
x = 233;
y = 36;
},
{
smooth = 0;
x = 153;
y = 128;
},
{
segmentType = curve;
smooth = 1;
x = 153;
y = 286;
},
{
smooth = 0;
x = 153;
y = 466;
},
{
smooth = 0;
x = 252;
y = 624;
},
{
segmentType = curve;
smooth = 1;
x = 433;
y = 624;
},
{
smooth = 0;
x = 484;
y = 624;
},
{
smooth = 0;
x = 514;
y = 606;
},
{
segmentType = curve;
smooth = 0;
x = 547;
y = 571;
},
{
segmentType = line;
smooth = 0;
x = 587;
y = 447;
},
{
segmentType = line;
smooth = 0;
x = 603;
y = 447;
},
{
segmentType = line;
smooth = 0;
x = 629;
y = 622;
},
{
smooth = 0;
x = 565;
y = 657;
},
{
smooth = 0;
x = 521;
y = 670;
},
{
segmentType = curve;
smooth = 1;
x = 445;
y = 670;
},
{
smooth = 0;
x = 240;
y = 670;
},
{
smooth = 0;
x = 60;
y = 487;
},
{
segmentType = curve;
smooth = 1;
x = 60;
y = 259;
},
{
smooth = 0;
x = 60;
y = 101;
},
{
smooth = 0;
x = 154;
y = -10;
}
);
},
{
points = (
{
segmentType = curve;
smooth = 1;
x = 286;
y = -240;
},
{
smooth = 0;
x = 351;
y = -240;
},
{
smooth = 0;
x = 390;
y = -200;
},
{
segmentType = curve;
smooth = 1;
x = 390;
y = -151;
},
{
smooth = 0;
x = 390;
y = -101;
},
{
smooth = 0;
x = 363;
y = -74;
},
{
segmentType = curve;
smooth = 0;
x = 294;
y = -50;
},
{
segmentType = line;
smooth = 0;
x = 298;
y = -69;
},
{
segmentType = line;
smooth = 0;
x = 355;
y = 20;
},
{
segmentType = line;
smooth = 0;
x = 325;
y = 20;
},
{
segmentType = line;
smooth = 0;
x = 252;
y = -95;
},
{
smooth = 0;
x = 315;
y = -115;
},
{
smooth = 0;
x = 338;
y = -132;
},
{
segmentType = curve;
smooth = 1;
x = 338;
y = -165;
},
{
smooth = 0;
x = 338;
y = -195;
},
{
smooth = 0;
x = 316;
y = -213;
},
{
segmentType = curve;
smooth = 1;
x = 274;
y = -213;
},
{
smooth = 0;
x = 247;
y = -213;
},
{
smooth = 0;
x = 230;
y = -207;
},
{
segmentType = curve;
smooth = 0;
x = 213;
y = -199;
},
{
segmentType = line;
smooth = 0;
x = 210;
y = -199;
},
{
segmentType = line;
smooth = 0;
x = 208;
y = -210;
},
{
smooth = 0;
x = 222;
y = -229;
},
{
smooth = 0;
x = 252;
y = -240;
}
);
}
);
lib = {
};
name = Ccedilla;
unicodes = (
);
width = 669;
};
};
};
width = 669;
},
{
layerId = "48B243E4-A9BC-4CE2-9E97-0DBF8BE24EDB";
shapes = (
{
closed = 1;
nodes = (
(408,-10,o),
(495,10,o),
(546,44,c),
(588,219,l),
(570,219,l),
(442,64,l),
(411,48,o),
(381,43,o),
(352,43,cs),
(266,43,o),
(217,119,o),
(217,234,cs),
(217,451,o),
(314,622,o),
(437,622,cs),
(468,622,o),
(486,618,o),
(503,607,c),
(583,428,l),
(601,428,l),
(618,622,l),
(574,649,o),
(533,670,o),
(452,670,cs),
(220,670,o),
(40,473,o),
(40,260,cs),
(40,104,o),
(152,-10,o),
(329,-10,cs)
);
},
{
closed = 1;
nodes = (
(370,-240,o),
(420,-197,o),
(420,-137,cs),
(420,-90,o),
(388,-53,o),
(305,-38,c),
(316,-61,l),
(365,27,l),
(331,27,l),
(252,-107,l),
(318,-120,o),
(339,-143,o),
(339,-167,cs),
(339,-193,o),
(317,-208,o),
(283,-208,cs),
(267,-208,o),
(246,-205,o),
(234,-199,c),
(230,-199,l),
(226,-221,l),
(243,-232,o),
(266,-240,o),
(299,-240,cs)
);
}
);
userData = {
com.typemytype.robofont.layerData = {
mask = {
anchors = (
);
components = (
);
contours = (
{
points = (
{
segmentType = curve;
smooth = 1;
x = 329;
y = -10;
},
{
smooth = 0;
x = 408;
y = -10;
},
{
smooth = 0;
x = 495;
y = 10;
},
{
segmentType = curve;
smooth = 0;
x = 546;
y = 44;
},
{
segmentType = line;
smooth = 0;
x = 588;
y = 219;
},
{
segmentType = line;
smooth = 0;
x = 570;
y = 219;
},
{
segmentType = line;
smooth = 0;
x = 442;
y = 64;
},
{
smooth = 0;
x = 411;
y = 48;
},
{
smooth = 0;
x = 381;
y = 43;
},
{
segmentType = curve;
smooth = 1;
x = 352;
y = 43;
},
{
smooth = 0;
x = 266;
y = 43;
},
{
smooth = 0;
x = 217;
y = 119;
},
{
segmentType = curve;
smooth = 1;
x = 217;
y = 234;
},
{
smooth = 0;
x = 217;
y = 451;
},
{
smooth = 0;
x = 314;
y = 622;
},
{
segmentType = curve;
smooth = 1;
x = 437;
y = 622;
},
{
smooth = 0;
x = 468;
y = 622;
},
{
smooth = 0;
x = 486;
y = 618;
},
{
segmentType = curve;
smooth = 0;
x = 503;
y = 607;
},
{
segmentType = line;
smooth = 0;
x = 583;
y = 428;
},
{
segmentType = line;
smooth = 0;
x = 601;
y = 428;
},
{
segmentType = line;
smooth = 0;
x = 618;
y = 622;
},
{
smooth = 0;
x = 574;
y = 649;
},
{
smooth = 0;
x = 533;
y = 670;
},
{
segmentType = curve;
smooth = 1;
x = 452;
y = 670;
},
{
smooth = 0;
x = 220;
y = 670;
},
{
smooth = 0;
x = 40;
y = 473;
},
{
segmentType = curve;
smooth = 1;
x = 40;
y = 260;
},
{
smooth = 0;
x = 40;
y = 104;
},
{
smooth = 0;
x = 152;
y = -10;
}
);
},
{
points = (
{
segmentType = curve;
smooth = 1;
x = 299;
y = -240;
},
{
smooth = 0;
x = 370;
y = -240;
},
{
smooth = 0;
x = 420;
y = -197;
},
{
segmentType = curve;
smooth = 1;
x = 420;
y = -137;
},
{
smooth = 0;
x = 420;
y = -90;
},
{
smooth = 0;
x = 388;
y = -53;
},
{
segmentType = curve;
smooth = 0;
x = 305;
y = -38;
},
{
segmentType = line;
smooth = 0;
x = 316;
y = -61;
},
{
segmentType = line;
smooth = 0;
x = 365;
y = 27;
},
{
segmentType = line;
smooth = 0;
x = 331;
y = 27;
},
{
segmentType = line;
smooth = 0;
x = 252;
y = -107;
},
{
smooth = 0;
x = 318;
y = -120;
},
{
smooth = 0;
x = 339;
y = -143;
},
{
segmentType = curve;
smooth = 1;
x = 339;
y = -167;
},
{
smooth = 0;
x = 339;
y = -193;
},
{
smooth = 0;
x = 317;
y = -208;
},
{
segmentType = curve;
smooth = 1;
x = 283;
y = -208;
},
{
smooth = 0;
x = 267;
y = -208;
},
{
smooth = 0;
x = 246;
y = -205;
},
{
segmentType = curve;
smooth = 0;
x = 234;
y = -199;
},
{
segmentType = line;
smooth = 0;
x = 230;
y = -199;
},
{
segmentType = line;
smooth = 0;
x = 226;
y = -221;
},
{
smooth = 0;
x = 243;
y = -232;
},
{
smooth = 0;
x = 266;
y = -240;
}
);
}
);
lib = {
};
name = Ccedilla;
unicodes = (
);
width = 662;
};
};
};
width = 662;
}
);
unicode = 199;
},
{
color = 5;
glyphname = D;
kernLeft = kern_H2;
kernRight = kern_O1;
layers = (
{
anchors = (
{
name = bottom;
pos = (313,0);
},
{
name = top;
pos = (402,710);
}
);
layerId = master01;
shapes = (
{
closed = 1;
nodes = (
(171,0,l),
(288,660,l),
(126,660,l),
(123,644,l),
(192,604,l),
(96,56,l),
(13,16,l),
(10,0,l)
);
},
{
closed = 1;
nodes = (
(564,0,o),
(682,230,o),
(682,392,cs),
(682,548,o),
(585,660,o),
(347,660,cs),
(237,660,l),
(228,610,l),
(333,610,ls),
(511,610,o),
(589,521,o),
(589,380,cs),
(589,180,o),
(488,50,o),
(290,50,cs),
(157,50,l),
(148,0,l),
(282,0,ls)
);
}
);
userData = {
com.typemytype.robofont.layerData = {
mask = {
anchors = (
{
name = top;
x = 402;
y = 710;
},
{
name = bottom;
x = 313;
y = 0;
}
);
components = (
);
contours = (
{
points = (
{
segmentType = line;
smooth = 0;
x = 10;
y = 0;
},
{
segmentType = line;
smooth = 0;
x = 171;
y = 0;
},
{
segmentType = line;
smooth = 0;
x = 288;
y = 660;
},
{
segmentType = line;
smooth = 0;
x = 126;
y = 660;
},
{
segmentType = line;
smooth = 0;
x = 123;
y = 644;
},
{
segmentType = line;
smooth = 0;
x = 192;
y = 604;
},
{
segmentType = line;
smooth = 0;
x = 96;
y = 56;
},
{
segmentType = line;
smooth = 0;
x = 13;
y = 16;
}
);
},
{
points = (
{
segmentType = line;
smooth = 1;
x = 282;
y = 0;
},
{
smooth = 0;
x = 564;
y = 0;
},
{
smooth = 0;
x = 682;
y = 230;
},
{
segmentType = curve;
smooth = 1;
x = 682;
y = 392;
},
{
smooth = 0;
x = 682;
y = 548;
},
{
smooth = 0;
x = 585;
y = 660;
},
{
segmentType = curve;
smooth = 1;
x = 347;
y = 660;
},
{
segmentType = line;
smooth = 0;
x = 237;
y = 660;
},
{
segmentType = line;
smooth = 0;
x = 228;
y = 610;
},
{
segmentType = line;
smooth = 1;
x = 333;
y = 610;
},
{
smooth = 0;
x = 511;
y = 610;
},
{
smooth = 0;
x = 589;
y = 521;
},
{
segmentType = curve;
smooth = 1;
x = 589;
y = 380;
},
{
smooth = 0;
x = 589;
y = 180;
},
{
smooth = 0;
x = 488;
y = 50;
},
{
segmentType = curve;
smooth = 1;
x = 290;
y = 50;
},
{
segmentType = line;
smooth = 0;
x = 157;
y = 50;
},
{
segmentType = line;
smooth = 0;
x = 148;
y = 0;
}
);
}
);
lib = {
};
name = D;
unicodes = (
);
width = 732;
};
};
};
width = 732;
},
{
anchors = (
{
name = bottom;
pos = (313,0);
},
{
name = top;
pos = (403,710);
}
);
layerId = "48B243E4-A9BC-4CE2-9E97-0DBF8BE24EDB";
shapes = (
{
closed = 1;
nodes = (
(217,0,l),
(334,660,l),
(86,660,l),
(83,644,l),
(152,604,l),
(56,56,l),
(-27,16,l),
(-30,0,l)
);
},
{
closed = 1;
nodes = (
(523,0,o),
(717,160,o),
(717,375,cs),
(717,547,o),
(594.709,660,o),
(375,660,cs),
(292,660,l),
(283,607,l),
(348,607,ls),
(467,607,o),
(541,523,o),
(541,387,cs),
(541,186,o),
(431,48,o),
(298,48,cs),
(172,48,l),
(159,0,l),
(285,0,ls)
);
}
);
userData = {
com.typemytype.robofont.layerData = {
mask = {
anchors = (
{
name = top;
x = 403;
y = 710;
},
{
name = bottom;
x = 313;
y = 0;
}
);
components = (
);
contours = (
{
points = (
{
segmentType = line;
smooth = 0;
x = -30;
y = 0;
},
{
segmentType = line;
smooth = 0;
x = 217;
y = 0;
},
{
segmentType = line;
smooth = 0;
x = 334;
y = 660;
},
{
segmentType = line;
smooth = 0;
x = 86;
y = 660;
},
{
segmentType = line;
smooth = 0;
x = 83;
y = 644;
},
{
segmentType = line;
smooth = 0;
x = 152;
y = 604;
},
{
segmentType = line;
smooth = 0;
x = 56;
y = 56;
},
{
segmentType = line;
smooth = 0;
x = -27;
y = 16;
}
);
},
{
points = (
{
segmentType = line;
smooth = 1;
x = 285;
y = 0;
},
{
smooth = 0;
x = 523;
y = 0;
},
{
smooth = 0;
x = 717;
y = 160;
},
{
segmentType = curve;
smooth = 1;
x = 717;
y = 375;
},
{
smooth = 0;
x = 717;
y = 547;
},
{
smooth = 0;
x = 594.70909;
y = 660;
},
{
segmentType = curve;
smooth = 1;
x = 375;
y = 660;
},
{
segmentType = line;
smooth = 0;
x = 292;
y = 660;
},
{
segmentType = line;
smooth = 0;
x = 283;
y = 607;
},
{
segmentType = line;
smooth = 1;
x = 348;
y = 607;
},
{
smooth = 0;
x = 467;
y = 607;
},
{
smooth = 0;
x = 541;
y = 523;
},
{
segmentType = curve;
smooth = 1;
x = 541;
y = 387;
},
{
smooth = 0;
x = 541;
y = 186;
},
{
smooth = 0;
x = 431;
y = 48;
},
{
segmentType = curve;
smooth = 1;
x = 298;
y = 48;
},
{
segmentType = line;
smooth = 0;
x = 172;
y = 48;
},
{
segmentType = line;
smooth = 0;
x = 159;
y = 0;
}
);
}
);
lib = {
};
name = D;
unicodes = (
);
width = 757;
};
};
};
width = 757;
}
);
unicode = 68;
},
{
color = 4;
glyphname = Dcroat;
kernLeft = kern_H2;
kernRight = kern_O1;
layers = (
{
layerId = master01;
shapes = (
{
closed = 1;
nodes = (
(171,0,l),
(288,660,l),
(126,660,l),
(123,644,l),
(192,604,l),
(96,56,l),
(13,16,l),
(10,0,l)
);
},
{
closed = 1;
nodes = (
(564,0,o),
(682,230,o),
(682,392,cs),
(682,548,o),
(585,660,o),
(347,660,cs),
(237,660,l),
(228,610,l),
(333,610,ls),
(511,610,o),
(589,521,o),
(589,380,cs),
(589,180,o),
(488,50,o),
(290,50,cs),
(157,50,l),
(148,0,l),
(282,0,ls)
);
},
{
closed = 1;
nodes = (
(393,322,l),
(401,363,l),
(77,363,l),
(69,322,l)
);
}
);
userData = {
com.typemytype.robofont.layerData = {
mask = {
anchors = (
);
components = (
);
contours = (
{
points = (
{
segmentType = line;
smooth = 0;
x = 10;
y = 0;
},
{
segmentType = line;
smooth = 0;
x = 171;
y = 0;
},
{
segmentType = line;
smooth = 0;
x = 288;
y = 660;
},
{
segmentType = line;
smooth = 0;
x = 126;
y = 660;
},
{
segmentType = line;
smooth = 0;
x = 123;
y = 644;
},
{
segmentType = line;
smooth = 0;
x = 192;
y = 604;
},
{
segmentType = line;
smooth = 0;
x = 96;
y = 56;
},
{
segmentType = line;
smooth = 0;
x = 13;
y = 16;
}
);
},
{
points = (
{
segmentType = line;
smooth = 1;
x = 282;
y = 0;
},
{
smooth = 0;
x = 564;
y = 0;
},
{
smooth = 0;
x = 682;
y = 230;
},
{
segmentType = curve;
smooth = 1;
x = 682;
y = 392;
},
{
smooth = 0;
x = 682;
y = 548;
},
{
smooth = 0;
x = 585;
y = 660;
},
{
segmentType = curve;
smooth = 1;
x = 347;
y = 660;
},
{
segmentType = line;
smooth = 0;
x = 237;
y = 660;
},
{
segmentType = line;
smooth = 0;
x = 228;
y = 610;
},
{
segmentType = line;
smooth = 1;
x = 333;
y = 610;
},
{
smooth = 0;
x = 511;
y = 610;
},
{
smooth = 0;
x = 589;
y = 521;
},
{
segmentType = curve;
smooth = 1;
x = 589;
y = 380;
},
{
smooth = 0;
x = 589;
y = 180;
},
{
smooth = 0;
x = 488;
y = 50;
},
{
segmentType = curve;
smooth = 1;
x = 290;
y = 50;
},
{
segmentType = line;
smooth = 0;
x = 157;
y = 50;
},
{
segmentType = line;
smooth = 0;
x = 148;
y = 0;
}
);
},
{
points = (
{
segmentType = line;
smooth = 0;
x = 69;
y = 322;
},
{
segmentType = line;
smooth = 0;
x = 393;
y = 322;
},
{
segmentType = line;
smooth = 0;
x = 401;
y = 363;
},
{
segmentType = line;
smooth = 0;
x = 77;
y = 363;
}
);
}
);
lib = {
};
name = Dcroat;
unicodes = (
);
width = 732;
};
};
};
width = 732;
},
{
layerId = "48B243E4-A9BC-4CE2-9E97-0DBF8BE24EDB";
shapes = (
{
closed = 1;
nodes = (
(217,0,l),
(334,660,l),
(86,660,l),
(83,644,l),
(152,604,l),
(56,56,l),
(-27,16,l),
(-30,0,l)
);
},
{
closed = 1;
nodes = (
(523,0,o),
(717,160,o),
(717,375,cs),
(717,547,o),
(595,660,o),
(375,660,cs),
(292,660,l),
(283,607,l),
(348,607,ls),
(467,607,o),
(541,523,o),
(541,387,cs),
(541,186,o),
(431,48,o),
(298,48,cs),
(172,48,l),
(159,0,l),
(285,0,ls)
);
},
{
closed = 1;
nodes = (
(394,315,l),
(403,367,l),
(34,367,l),
(25,315,l)
);
}
);
userData = {
com.typemytype.robofont.layerData = {
mask = {
anchors = (
);
components = (
);
contours = (
{
points = (
{
segmentType = line;
smooth = 0;
x = -30;
y = 0;
},
{
segmentType = line;
smooth = 0;
x = 217;
y = 0;
},
{
segmentType = line;
smooth = 0;
x = 334;
y = 660;
},
{
segmentType = line;
smooth = 0;
x = 86;
y = 660;
},
{
segmentType = line;
smooth = 0;
x = 83;
y = 644;
},
{
segmentType = line;
smooth = 0;
x = 152;
y = 604;
},
{
segmentType = line;
smooth = 0;
x = 56;
y = 56;
},
{
segmentType = line;
smooth = 0;
x = -27;
y = 16;
}
);
},
{
points = (
{
segmentType = line;
smooth = 1;
x = 285;
y = 0;
},
{
smooth = 0;
x = 523;
y = 0;
},
{
smooth = 0;
x = 717;
y = 160;
},
{
segmentType = curve;
smooth = 1;
x = 717;
y = 375;
},
{
smooth = 0;
x = 717;
y = 547;
},
{
smooth = 0;
x = 595;
y = 660;
},
{
segmentType = curve;
smooth = 1;
x = 375;
y = 660;
},
{
segmentType = line;
smooth = 0;
x = 292;
y = 660;
},
{
segmentType = line;
smooth = 0;
x = 283;
y = 607;
},
{
segmentType = line;
smooth = 1;
x = 348;
y = 607;
},
{
smooth = 0;
x = 467;
y = 607;
},
{
smooth = 0;
x = 541;
y = 523;
},
{
segmentType = curve;
smooth = 1;
x = 541;
y = 387;
},
{
smooth = 0;
x = 541;
y = 186;
},
{
smooth = 0;
x = 431;
y = 48;
},
{
segmentType = curve;
smooth = 1;
x = 298;
y = 48;
},
{
segmentType = line;
smooth = 0;
x = 172;
y = 48;
},
{
segmentType = line;
smooth = 0;
x = 159;
y = 0;
}
);
},
{
points = (
{
segmentType = line;
smooth = 0;
x = 25;
y = 315;
},
{
segmentType = line;
smooth = 0;
x = 394;
y = 315;
},
{
segmentType = line;
smooth = 0;
x = 403;
y = 367;
},
{
segmentType = line;
smooth = 0;
x = 34;
y = 367;
}
);
}
);
lib = {
};
name = Dcroat;
unicodes = (
);
width = 757;
};
};
};
width = 757;
}
);
unicode = 272;
},
{
color = 5;
glyphname = E;
kernLeft = kern_H2;
kernRight = kern_E1;
layers = (
{
anchors = (
{
name = bottom;
pos = (289,0);
},
{
name = right;
pos = (444,0);
},
{
name = top;
pos = (399,710);
}
);
layerId = master01;
shapes = (
{
closed = 1;
nodes = (
(171,0,l),
(288,660,l),
(126,660,l),
(123,644,l),
(192,604,l),
(96,56,l),
(13,16,l),
(10,0,l)
);
},
{
closed = 1;
nodes = (
(555,488,l),
(586,660,l),
(237,660,l),
(228,610,l),
(502,610,l),
(539,488,l)
);
},
{
closed = 1;
nodes = (
(436,232,l),
(475,451,l),
(459,451,l),
(397,366,l),
(193,366,l),
(184,316,l),
(389,316,l),
(420,232,l)
);
},
{
closed = 1;
nodes = (
(543,182,l),
(527,182,l),
(447,50,l),
(157,50,l),
(148,0,l),
(511,0,l)
);
}
);
userData = {
com.typemytype.robofont.layerData = {
mask = {
anchors = (
{
name = top;
x = 399;
y = 710;
},
{
name = right;
x = 444;
y = 0;
},
{
name = bottom;
x = 289;
y = 0;
}
);
components = (
);
contours = (
{
points = (
{
segmentType = line;
smooth = 0;
x = 10;
y = 0;
},
{
segmentType = line;
smooth = 0;
x = 171;
y = 0;
},
{
segmentType = line;
smooth = 0;
x = 288;
y = 660;
},
{
segmentType = line;
smooth = 0;
x = 126;
y = 660;
},
{
segmentType = line;
smooth = 0;
x = 123;
y = 644;
},
{
segmentType = line;
smooth = 0;
x = 192;
y = 604;
},
{
segmentType = line;
smooth = 0;
x = 96;
y = 56;
},
{
segmentType = line;
smooth = 0;
x = 13;
y = 16;
}
);
},
{
points = (
{
segmentType = line;
smooth = 0;
x = 539;
y = 488;
},
{
segmentType = line;
smooth = 0;
x = 555;
y = 488;
},
{
segmentType = line;
smooth = 0;
x = 586;
y = 660;
},
{
segmentType = line;
smooth = 0;
x = 237;
y = 660;
},
{
segmentType = line;
smooth = 0;
x = 228;
y = 610;
},
{
segmentType = line;
smooth = 0;
x = 502;
y = 610;
}
);
},
{
points = (
{
segmentType = line;
smooth = 0;
x = 420;
y = 232;
},
{
segmentType = line;
smooth = 0;
x = 436;
y = 232;
},
{
segmentType = line;
smooth = 0;
x = 475;
y = 451;
},
{
segmentType = line;
smooth = 0;
x = 459;
y = 451;
},
{
segmentType = line;
smooth = 0;
x = 397;
y = 366;
},
{
segmentType = line;
smooth = 0;
x = 193;
y = 366;
},
{
segmentType = line;
smooth = 0;
x = 184;
y = 316;
},
{
segmentType = line;
smooth = 0;
x = 389;
y = 316;
}
);
},
{
points = (
{
segmentType = line;
smooth = 0;
x = 511;
y = 0;
},
{
segmentType = line;
smooth = 0;
x = 543;
y = 182;
},
{
segmentType = line;
smooth = 0;
x = 527;
y = 182;
},
{
segmentType = line;
smooth = 0;
x = 447;
y = 50;
},
{
segmentType = line;
smooth = 0;
x = 157;
y = 50;
},
{
segmentType = line;
smooth = 0;
x = 148;
y = 0;
}
);
}
);
lib = {
};
name = E;
unicodes = (
);
width = 621;
};
};
};
width = 621;
},
{
anchors = (
{
name = bottom;
pos = (289,0);
},
{
name = right;
pos = (436,0);
},
{
name = top;
pos = (385,710);
}
);
layerId = "48B243E4-A9BC-4CE2-9E97-0DBF8BE24EDB";
shapes = (
{
closed = 1;
nodes = (
(221,0,l),
(337,660,l),
(86,660,l),
(83,644,l),
(156,602,l),
(60,58,l),
(-27,16,l),
(-30,0,l)
);
},
{
closed = 1;
nodes = (
(579,486,l),
(609,660,l),
(245,660,l),
(235,605,l),
(511,605,l),
(564,486,l)
);
},
{
closed = 1;
nodes = (
(460,232,l),
(499,451,l),
(483,451,l),
(405,363,l),
(210,363,l),
(202,318,l),
(397,318,l),
(444,232,l)
);
},
{
closed = 1;
nodes = (
(558,219,l),
(542,219,l),
(431,55,l),
(161,55,l),
(154,0,l),
(519,0,l)
);
}
);
userData = {
com.typemytype.robofont.layerData = {
mask = {
anchors = (
{
name = top;
x = 385;
y = 710;
},
{
name = right;
x = 436;
y = 0;
},
{
name = bottom;
x = 289;
y = 0;
}
);
components = (
);
contours = (
{
points = (
{
segmentType = line;
smooth = 0;
x = -30;
y = 0;
},
{
segmentType = line;
smooth = 0;
x = 221;
y = 0;
},
{
segmentType = line;
smooth = 0;
x = 337;
y = 660;
},
{
segmentType = line;
smooth = 0;
x = 86;
y = 660;
},
{
segmentType = line;
smooth = 0;
x = 83;
y = 644;
},
{
segmentType = line;
smooth = 0;
x = 156;
y = 602;
},
{
segmentType = line;
smooth = 0;
x = 60;
y = 58;
},
{
segmentType = line;
smooth = 0;
x = -27;
y = 16;
}
);
},
{
points = (
{
segmentType = line;
smooth = 0;
x = 564;
y = 486;
},
{
segmentType = line;
smooth = 0;
x = 579;
y = 486;
},
{
segmentType = line;
smooth = 0;
x = 609;
y = 660;
},
{
segmentType = line;
smooth = 0;
x = 245;
y = 660;
},
{
segmentType = line;
smooth = 0;
x = 235;
y = 605;
},
{
segmentType = line;
smooth = 0;
x = 511;
y = 605;
}
);
},
{
points = (
{
segmentType = line;
smooth = 0;
x = 444;
y = 232;
},
{
segmentType = line;
smooth = 0;
x = 460;
y = 232;
},
{
segmentType = line;
smooth = 0;
x = 499;
y = 451;
},
{
segmentType = line;
smooth = 0;
x = 483;
y = 451;
},
{
segmentType = line;
smooth = 0;
x = 405;
y = 363;
},
{
segmentType = line;
smooth = 0;
x = 210;
y = 363;
},
{
segmentType = line;
smooth = 0;
x = 202;
y = 318;
},
{
segmentType = line;
smooth = 0;
x = 397;
y = 318;
}
);
},
{
points = (
{
segmentType = line;
smooth = 0;
x = 519;
y = 0;
},
{
segmentType = line;
smooth = 0;
x = 558;
y = 219;
},
{
segmentType = line;
smooth = 0;
x = 542;
y = 219;
},
{
segmentType = line;
smooth = 0;
x = 431;
y = 55;
},
{
segmentType = line;
smooth = 0;
x = 161;
y = 55;
},
{
segmentType = line;
smooth = 0;
x = 154;
y = 0;
}
);
}
);
lib = {
};
name = E;
unicodes = (
);
width = 624;
};
};
};
width = 624;
}
);
unicode = 69;
},
{
color = 5;
glyphname = Eogonek;
kernLeft = kern_H2;
kernRight = kern_E1;
layers = (
{
layerId = master01;
shapes = (
{
closed = 1;
nodes = (
(171,0,l),
(288,660,l),
(126,660,l),
(123,644,l),
(192,604,l),
(96,56,l),
(13,16,l),
(10,0,l)
);
},
{
closed = 1;
nodes = (
(555,488,l),
(586,660,l),
(237,660,l),
(228,610,l),
(502,610,l),
(539,488,l)
);
},
{
closed = 1;
nodes = (
(436,232,l),
(475,451,l),
(459,451,l),
(397,366,l),
(193,366,l),
(184,316,l),
(389,316,l),
(420,232,l)
);
},
{
closed = 1;
nodes = (
(543,182,l),
(527,182,l),
(447,50,l),
(157,50,l),
(148,0,l),
(511,0,l)
);
},
{
closed = 1;
nodes = (
(432,-240,o),
(462,-223,o),
(483,-193,c),
(485,-180,l),
(482,-180,l),
(464,-192,o),
(446,-196,o),
(432,-196,cs),
(397,-196,o),
(376,-179,o),
(376,-140,cs),
(376,-92,o),
(406,-37,o),
(461,25,c),
(437,25,l),
(361,-46,o),
(315,-103,o),
(315,-159,cs),
(315,-210,o),
(346,-240,o),
(396,-240,cs)
);
}
);
userData = {
com.typemytype.robofont.layerData = {
mask = {
anchors = (
);
components = (
);
contours = (
{
points = (
{
segmentType = line;
smooth = 0;
x = 10;
y = 0;
},
{
segmentType = line;
smooth = 0;
x = 171;
y = 0;
},
{
segmentType = line;
smooth = 0;
x = 288;
y = 660;
},
{
segmentType = line;
smooth = 0;
x = 126;
y = 660;
},
{
segmentType = line;
smooth = 0;
x = 123;
y = 644;
},
{
segmentType = line;
smooth = 0;
x = 192;
y = 604;
},
{
segmentType = line;
smooth = 0;
x = 96;
y = 56;
},
{
segmentType = line;
smooth = 0;
x = 13;
y = 16;
}
);
},
{
points = (
{
segmentType = line;
smooth = 0;
x = 539;
y = 488;
},
{
segmentType = line;
smooth = 0;
x = 555;
y = 488;
},
{
segmentType = line;
smooth = 0;
x = 586;
y = 660;
},
{
segmentType = line;
smooth = 0;
x = 237;
y = 660;
},
{
segmentType = line;
smooth = 0;
x = 228;
y = 610;
},
{
segmentType = line;
smooth = 0;
x = 502;
y = 610;
}
);
},
{
points = (
{
segmentType = line;
smooth = 0;
x = 420;
y = 232;
},
{
segmentType = line;
smooth = 0;
x = 436;
y = 232;
},
{
segmentType = line;
smooth = 0;
x = 475;
y = 451;
},
{
segmentType = line;
smooth = 0;
x = 459;
y = 451;
},
{
segmentType = line;
smooth = 0;
x = 397;
y = 366;
},
{
segmentType = line;
smooth = 0;
x = 193;
y = 366;
},
{
segmentType = line;
smooth = 0;
x = 184;
y = 316;
},
{
segmentType = line;
smooth = 0;
x = 389;
y = 316;
}
);
},
{
points = (
{
segmentType = line;
smooth = 0;
x = 511;
y = 0;
},
{
segmentType = line;
smooth = 0;
x = 543;
y = 182;
},
{
segmentType = line;
smooth = 0;
x = 527;
y = 182;
},
{
segmentType = line;
smooth = 0;
x = 447;
y = 50;
},
{
segmentType = line;
smooth = 0;
x = 157;
y = 50;
},
{
segmentType = line;
smooth = 0;
x = 148;
y = 0;
}
);
},
{
points = (
{
segmentType = curve;
smooth = 1;
x = 396;
y = -240;
},
{
smooth = 0;
x = 432;
y = -240;
},
{
smooth = 0;
x = 462;
y = -223;
},
{
segmentType = curve;
smooth = 0;
x = 483;
y = -193;
},
{
segmentType = line;
smooth = 0;
x = 485;
y = -180;
},
{
segmentType = line;
smooth = 0;
x = 482;
y = -180;
},
{
smooth = 0;
x = 464;
y = -192;
},
{
smooth = 0;
x = 446;
y = -196;
},
{
segmentType = curve;
smooth = 1;
x = 432;
y = -196;
},
{
smooth = 0;
x = 397;
y = -196;
},
{
smooth = 0;
x = 376;
y = -179;
},
{
segmentType = curve;
smooth = 1;
x = 376;
y = -140;
},
{
smooth = 0;
x = 376;
y = -92;
},
{
smooth = 0;
x = 406;
y = -37;
},
{
segmentType = curve;
smooth = 0;
x = 461;
y = 25;
},
{
segmentType = line;
smooth = 0;
x = 437;
y = 25;
},
{
smooth = 0;
x = 361;
y = -46;
},
{
smooth = 0;
x = 315;
y = -103;
},
{
segmentType = curve;
smooth = 1;
x = 315;
y = -159;
},
{
smooth = 0;
x = 315;
y = -210;
},
{
smooth = 0;
x = 346;
y = -240;
}
);
}
);
lib = {
};
name = Eogonek;
unicodes = (
);
width = 621;
};
};
};
width = 621;
},
{
layerId = "48B243E4-A9BC-4CE2-9E97-0DBF8BE24EDB";
shapes = (
{
closed = 1;
nodes = (
(221,0,l),
(337,660,l),
(86,660,l),
(83,644,l),
(156,602,l),
(60,58,l),
(-27,16,l),
(-30,0,l)
);
},
{
closed = 1;
nodes = (
(579,486,l),
(609,660,l),
(245,660,l),
(235,605,l),
(511,605,l),
(564,486,l)
);
},
{
closed = 1;
nodes = (
(460,232,l),
(499,451,l),
(483,451,l),
(405,363,l),
(210,363,l),
(202,318,l),
(397,318,l),
(444,232,l)
);
},
{
closed = 1;
nodes = (
(558,219,l),
(542,219,l),
(431,55,l),
(161,55,l),
(154,0,l),
(519,0,l)
);
},
{
closed = 1;
nodes = (
(437,-240,o),
(468,-220,o),
(488,-189,c),
(494,-167,l),
(490,-167,l),
(480,-177,o),
(462,-183,o),
(448,-183,cs),
(413,-183,o),
(395,-164,o),
(395,-130,cs),
(395,-76,o),
(422,-19,o),
(453,27,c),
(430,27,l),
(368,-25,o),
(302,-89,o),
(302,-160,cs),
(302,-209,o),
(336,-240,o),
(393,-240,cs)
);
}
);
width = 624;
}
);
unicode = 280;
},
{
color = 5;
glyphname = F;
kernLeft = kern_H2;
kernRight = kern_F1;
layers = (
{
layerId = master01;
shapes = (
{
closed = 1;
nodes = (
(267,0,l),
(270,16,l),
(181,56,l),
(288,660,l),
(126,660,l),
(123,644,l),
(192,604,l),
(96,56,l),
(13,16,l),
(10,0,l)
);
},
{
closed = 1;
nodes = (
(551,488,l),
(581,660,l),
(228,660,l),
(218,610,l),
(497,610,l),
(535,488,l)
);
},
{
closed = 1;
nodes = (
(426,232,l),
(465,451,l),
(449,451,l),
(387,366,l),
(183,366,l),
(174,316,l),
(379,316,l),
(410,232,l)
);
}
);
userData = {
com.typemytype.robofont.layerData = {
mask = {
anchors = (
);
components = (
);
contours = (
{
points = (
{
segmentType = line;
smooth = 0;
x = 10;
y = 0;
},
{
segmentType = line;
smooth = 0;
x = 267;
y = 0;
},
{
segmentType = line;
smooth = 0;
x = 270;
y = 16;
},
{
segmentType = line;
smooth = 0;
x = 181;
y = 56;
},
{
segmentType = line;
smooth = 0;
x = 288;
y = 660;
},
{
segmentType = line;
smooth = 0;
x = 126;
y = 660;
},
{
segmentType = line;
smooth = 0;
x = 123;
y = 644;
},
{
segmentType = line;
smooth = 0;
x = 192;
y = 604;
},
{
segmentType = line;
smooth = 0;
x = 96;
y = 56;
},
{
segmentType = line;
smooth = 0;
x = 13;
y = 16;
}
);
},
{
points = (
{
segmentType = line;
smooth = 0;
x = 535;
y = 488;
},
{
segmentType = line;
smooth = 0;
x = 551;
y = 488;
},
{
segmentType = line;
smooth = 0;
x = 581;
y = 660;
},
{
segmentType = line;
smooth = 0;
x = 228;
y = 660;
},
{
segmentType = line;
smooth = 0;
x = 218;
y = 610;
},
{
segmentType = line;
smooth = 0;
x = 497;
y = 610;
}
);
},
{
points = (
{
segmentType = line;
smooth = 0;
x = 410;
y = 232;
},
{
segmentType = line;
smooth = 0;
x = 426;
y = 232;
},
{
segmentType = line;
smooth = 0;
x = 465;
y = 451;
},
{
segmentType = line;
smooth = 0;
x = 449;
y = 451;
},
{
segmentType = line;
smooth = 0;
x = 387;
y = 366;
},
{
segmentType = line;
smooth = 0;
x = 183;
y = 366;
},
{
segmentType = line;
smooth = 0;
x = 174;
y = 316;
},
{
segmentType = line;
smooth = 0;
x = 379;
y = 316;
}
);
}
);
lib = {
};
name = F;
unicodes = (
);
width = 603;
};
};
};
width = 603;
},
{
layerId = "48B243E4-A9BC-4CE2-9E97-0DBF8BE24EDB";
shapes = (
{
closed = 1;
nodes = (
(330,0,l),
(333,16,l),
(231,58,l),
(337,660,l),
(86,660,l),
(83,644,l),
(156,602,l),
(60,58,l),
(-27,16,l),
(-30,0,l)
);
},
{
closed = 1;
nodes = (
(575,486,l),
(605,660,l),
(245,660,l),
(235,605,l),
(507,605,l),
(559,486,l)
);
},
{
closed = 1;
nodes = (
(456,232,l),
(495,451,l),
(479,451,l),
(401,363,l),
(206,363,l),
(198,318,l),
(393,318,l),
(440,232,l)
);
}
);
userData = {
com.typemytype.robofont.layerData = {
mask = {
anchors = (
);
components = (
);
contours = (
{
points = (
{
segmentType = line;
smooth = 0;
x = -30;
y = 0;
},
{
segmentType = line;
smooth = 0;
x = 330;
y = 0;
},
{
segmentType = line;
smooth = 0;
x = 333;
y = 16;
},
{
segmentType = line;
smooth = 0;
x = 231;
y = 58;
},
{
segmentType = line;
smooth = 0;
x = 337;
y = 660;
},
{
segmentType = line;
smooth = 0;
x = 86;
y = 660;
},
{
segmentType = line;
smooth = 0;
x = 83;
y = 644;
},
{
segmentType = line;
smooth = 0;
x = 156;
y = 602;
},
{
segmentType = line;
smooth = 0;
x = 60;
y = 58;
},
{
segmentType = line;
smooth = 0;
x = -27;
y = 16;
}
);
},
{
points = (
{
segmentType = line;
smooth = 0;
x = 559;
y = 486;
},
{
segmentType = line;
smooth = 0;
x = 575;
y = 486;
},
{
segmentType = line;
smooth = 0;
x = 605;
y = 660;
},
{
segmentType = line;
smooth = 0;
x = 245;
y = 660;
},
{
segmentType = line;
smooth = 0;
x = 235;
y = 605;
},
{
segmentType = line;
smooth = 0;
x = 507;
y = 605;
}
);
},
{
points = (
{
segmentType = line;
smooth = 0;
x = 440;
y = 232;
},
{
segmentType = line;
smooth = 0;
x = 456;
y = 232;
},
{
segmentType = line;
smooth = 0;
x = 495;
y = 451;
},
{
segmentType = line;
smooth = 0;
x = 479;
y = 451;
},
{
segmentType = line;
smooth = 0;
x = 401;
y = 363;
},
{
segmentType = line;
smooth = 0;
x = 206;
y = 363;
},
{
segmentType = line;
smooth = 0;
x = 198;
y = 318;
},
{
segmentType = line;
smooth = 0;
x = 393;
y = 318;
}
);
}
);
lib = {
};
name = F;
unicodes = (
);
width = 600;
};
};
};
width = 600;
}
);
unicode = 70;
},
{
color = 5;
glyphname = G;
kernLeft = kern_O2;
kernRight = kern_G1;
layers = (
{
anchors = (
{
name = bottom;
pos = (332,0);
},
{
name = top;
pos = (463,710);
}
);
layerId = master01;
shapes = (
{
closed = 1;
nodes = (
(402,-10,o),
(502,23,o),
(569,74,c),
(596,231,l),
(669,274,l),
(672,290,l),
(437,290,l),
(433,274,l),
(511,234,l),
(481,61,l),
(512,82,l),
(454,53,o),
(407,45,o),
(357,45,cs),
(237,45,o),
(152,132,o),
(152,285,cs),
(152,466,o),
(255,624,o),
(443,624,cs),
(502,624,o),
(539,609,o),
(575,571,c),
(615,457,l),
(631,457,l),
(657,622,l),
(588,660,o),
(538,671,o),
(455,671,cs),
(245,671,o),
(60,487,o),
(60,259,cs),
(60,101,o),
(154,-10,o),
(320,-10,c)
);
}
);
userData = {
com.typemytype.robofont.layerData = {
mask = {
anchors = (
{
name = top;
x = 463;
y = 710;
},
{
name = bottom;
x = 332;
y = 0;
}
);
components = (
);
contours = (
{
points = (
{
segmentType = curve;
smooth = 0;
x = 320;
y = -10;
},
{
smooth = 0;
x = 402;
y = -10;
},
{
smooth = 0;
x = 502;
y = 23;
},
{
segmentType = curve;
smooth = 0;
x = 569;
y = 74;
},
{
segmentType = line;
smooth = 0;
x = 596;
y = 231;
},
{
segmentType = line;
smooth = 0;
x = 669;
y = 274;
},
{
segmentType = line;
smooth = 0;
x = 672;
y = 290;
},
{
segmentType = line;
smooth = 0;
x = 437;
y = 290;
},
{
segmentType = line;
smooth = 0;
x = 433;
y = 274;
},
{
segmentType = line;
smooth = 0;
x = 511;
y = 234;
},
{
segmentType = line;
smooth = 0;
x = 481;
y = 61;
},
{
segmentType = line;
smooth = 0;
x = 512;
y = 82;
},
{
smooth = 0;
x = 454;
y = 53;
},
{
smooth = 0;
x = 407;
y = 45;
},
{
segmentType = curve;
smooth = 1;
x = 357;
y = 45;
},
{
smooth = 0;
x = 237;
y = 45;
},
{
smooth = 0;
x = 152;
y = 132;
},
{
segmentType = curve;
smooth = 1;
x = 152;
y = 285;
},
{
smooth = 0;
x = 152;
y = 466;
},
{
smooth = 0;
x = 255;
y = 624;
},
{
segmentType = curve;
smooth = 1;
x = 443;
y = 624;
},
{
smooth = 0;
x = 502;
y = 624;
},
{
smooth = 0;
x = 539;
y = 609;
},
{
segmentType = curve;
smooth = 0;
x = 575;
y = 571;
},
{
segmentType = line;
smooth = 0;
x = 615;
y = 457;
},
{
segmentType = line;
smooth = 0;
x = 631;
y = 457;
},
{
segmentType = line;
smooth = 0;
x = 657;
y = 622;
},
{
smooth = 0;
x = 588;
y = 660;
},
{
smooth = 0;
x = 538;
y = 671;
},
{
segmentType = curve;
smooth = 1;
x = 455;
y = 671;
},
{
smooth = 0;
x = 245;
y = 671;
},
{
smooth = 0;
x = 60;
y = 487;
},
{
segmentType = curve;
smooth = 1;
x = 60;
y = 259;
},
{
smooth = 0;
x = 60;
y = 101;
},
{
smooth = 0;
x = 154;
y = -10;
}
);
}
);
lib = {
};
name = G;
unicodes = (
);
width = 739;
};
};
};
width = 739;
},
{
anchors = (
{
name = bottom;
pos = (315,0);
},
{
name = top;
pos = (447,710);
}
);
layerId = "48B243E4-A9BC-4CE2-9E97-0DBF8BE24EDB";
shapes = (
{
closed = 1;
nodes = (
(382,-10,o),
(493,23,o),
(557,74,c),
(586,239,l),
(666,291,l),
(669,307,l),
(347,307,l),
(344,291,l),
(415,239,l),
(377,22,l),
(489,83,l),
(444,59,o),
(380,49,o),
(342,49,cs),
(267,49,o),
(216,118,o),
(216,231,cs),
(216,428,o),
(327,622,o),
(457,622,cs),
(491,622,o),
(509,618,o),
(533,606,c),
(612,439,l),
(628,439,l),
(647,622,l),
(600,650,o),
(556,670,o),
(458,670,cs),
(251,670,o),
(40,482,o),
(40,258,cs),
(40,103,o),
(151,-10,o),
(305,-10,cs)
);
}
);
userData = {
com.typemytype.robofont.layerData = {
mask = {
anchors = (
{
name = top;
x = 447;
y = 710;
},
{
name = bottom;
x = 315;
y = 0;
}
);
components = (
);
contours = (
{
points = (
{
segmentType = curve;
smooth = 1;
x = 305;
y = -10;
},
{
smooth = 0;
x = 382;
y = -10;
},
{
smooth = 0;
x = 493;
y = 23;
},
{
segmentType = curve;
smooth = 0;
x = 557;
y = 74;
},
{
segmentType = line;
smooth = 0;
x = 586;
y = 239;
},
{
segmentType = line;
smooth = 0;
x = 666;
y = 291;
},
{
segmentType = line;
smooth = 0;
x = 669;
y = 307;
},
{
segmentType = line;
smooth = 0;
x = 347;
y = 307;
},
{
segmentType = line;
smooth = 0;
x = 344;
y = 291;
},
{
segmentType = line;
smooth = 0;
x = 415;
y = 239;
},
{
segmentType = line;
smooth = 0;
x = 377;
y = 22;
},
{
segmentType = line;
smooth = 0;
x = 489;
y = 83;
},
{
smooth = 0;
x = 444;
y = 59;
},
{
smooth = 0;
x = 380;
y = 49;
},
{
segmentType = curve;
smooth = 1;
x = 342;
y = 49;
},
{
smooth = 0;
x = 267;
y = 49;
},
{
smooth = 0;
x = 216;
y = 118;
},
{
segmentType = curve;
smooth = 1;
x = 216;
y = 231;
},
{
smooth = 0;
x = 216;
y = 428;
},
{
smooth = 0;
x = 327;
y = 622;
},
{
segmentType = curve;
smooth = 1;
x = 457;
y = 622;
},
{
smooth = 0;
x = 491;
y = 622;
},
{
smooth = 0;
x = 509;
y = 618;
},
{
segmentType = curve;
smooth = 0;
x = 533;
y = 606;
},
{
segmentType = line;
smooth = 0;
x = 612;
y = 439;
},
{
segmentType = line;
smooth = 0;
x = 628;
y = 439;
},
{
segmentType = line;
smooth = 0;
x = 647;
y = 622;
},
{
smooth = 0;
x = 600;
y = 650;
},
{
smooth = 0;
x = 556;
y = 670;
},
{
segmentType = curve;
smooth = 1;
x = 458;
y = 670;
},
{
smooth = 0;
x = 251;
y = 670;
},
{
smooth = 0;
x = 40;
y = 482;
},
{
segmentType = curve;
smooth = 1;
x = 40;
y = 258;
},
{
smooth = 0;
x = 40;
y = 103;
},
{
smooth = 0;
x = 151;
y = -10;
}
);
}
);
lib = {
};
name = G;
unicodes = (
);
width = 690;
};
};
};
width = 690;
}
);
unicode = 71;
},
{
color = 5;
glyphname = H;
kernLeft = kern_H2;
kernRight = kern_H1;
layers = (
{
anchors = (
{
name = bottom;
pos = (332,0);
},
{
name = top;
pos = (456,710);
}
);
layerId = master01;
shapes = (
{
closed = 1;
nodes = (
(248,0,l),
(251,16,l),
(174,56,l),
(271,604,l),
(352,644,l),
(355,660,l),
(117,660,l),
(114,644,l),
(186,604,l),
(89,56,l),
(13,16,l),
(10,0,l)
);
},
{
closed = 1;
nodes = (
(615,315,l),
(615,365,l),
(185,365,l),
(185,315,l)
);
},
{
closed = 1;
nodes = (
(657,0,l),
(660,16,l),
(583,56,l),
(680,604,l),
(761,644,l),
(764,660,l),
(526,660,l),
(523,644,l),
(595,604,l),
(498,56,l),
(422,16,l),
(419,0,l)
);
}
);
userData = {
com.typemytype.robofont.layerData = {
mask = {
anchors = (
{
name = top;
x = 456;
y = 710;
},
{
name = bottom;
x = 332;
y = 0;
}
);
components = (
);
contours = (
{
points = (
{
segmentType = line;
smooth = 0;
x = 10;
y = 0;
},
{
segmentType = line;
smooth = 0;
x = 248;
y = 0;
},
{
segmentType = line;
smooth = 0;
x = 251;
y = 16;
},
{
segmentType = line;
smooth = 0;
x = 174;
y = 56;
},
{
segmentType = line;
smooth = 0;
x = 271;
y = 604;
},
{
segmentType = line;
smooth = 0;
x = 352;
y = 644;
},
{
segmentType = line;
smooth = 0;
x = 355;
y = 660;
},
{
segmentType = line;
smooth = 0;
x = 117;
y = 660;
},
{
segmentType = line;
smooth = 0;
x = 114;
y = 644;
},
{
segmentType = line;
smooth = 0;
x = 186;
y = 604;
},
{
segmentType = line;
smooth = 0;
x = 89;
y = 56;
},
{
segmentType = line;
smooth = 0;
x = 13;
y = 16;
}
);
},
{
points = (
{
segmentType = line;
smooth = 0;
x = 185;
y = 315;
},
{
segmentType = line;
smooth = 0;
x = 615;
y = 315;
},
{
segmentType = line;
smooth = 0;
x = 615;
y = 365;
},
{
segmentType = line;
smooth = 0;
x = 185;
y = 365;
}
);
},
{
points = (
{
segmentType = line;
smooth = 0;
x = 419;
y = 0;
},
{
segmentType = line;
smooth = 0;
x = 657;
y = 0;
},
{
segmentType = line;
smooth = 0;
x = 660;
y = 16;
},
{
segmentType = line;
smooth = 0;
x = 583;
y = 56;
},
{
segmentType = line;
smooth = 0;
x = 680;
y = 604;
},
{
segmentType = line;
smooth = 0;
x = 761;
y = 644;
},
{
segmentType = line;
smooth = 0;
x = 764;
y = 660;
},
{
segmentType = line;
smooth = 0;
x = 526;
y = 660;
},
{
segmentType = line;
smooth = 0;
x = 523;
y = 644;
},
{
segmentType = line;
smooth = 0;
x = 595;
y = 604;
},
{
segmentType = line;
smooth = 0;
x = 498;
y = 56;
},
{
segmentType = line;
smooth = 0;
x = 422;
y = 16;
}
);
}
);
lib = {
};
name = H;
unicodes = (
);
width = 774;
};
};
};
width = 774;
},
{
anchors = (
{
name = bottom;
pos = (324,0);
},
{
name = top;
pos = (450,710);
}
);
layerId = "48B243E4-A9BC-4CE2-9E97-0DBF8BE24EDB";
shapes = (
{
closed = 1;
nodes = (
(291,0,l),
(294,16,l),
(231,58,l),
(327,602,l),
(404,644,l),
(407,660,l),
(86,660,l),
(83,644,l),
(156,602,l),
(60,58,l),
(-27,16,l),
(-30,0,l)
);
},
{
closed = 1;
nodes = (
(579,313,l),
(590,368,l),
(203,368,l),
(192,313,l)
);
},
{
closed = 1;
nodes = (
(683,0,l),
(686,16,l),
(615,58,l),
(711,602,l),
(796,644,l),
(799,660,l),
(479,660,l),
(476,644,l),
(540,602,l),
(444,58,l),
(366,16,l),
(363,0,l)
);
}
);
userData = {
com.typemytype.robofont.layerData = {
mask = {
anchors = (
{
name = top;
x = 450;
y = 710;
},
{
name = bottom;
x = 324;
y = 0;
}
);
components = (
);
contours = (
{
points = (
{
segmentType = line;
smooth = 0;
x = -30;
y = 0;
},
{
segmentType = line;
smooth = 0;
x = 291;
y = 0;
},
{
segmentType = line;
smooth = 0;
x = 294;
y = 16;
},
{
segmentType = line;
smooth = 0;
x = 231;
y = 58;
},
{
segmentType = line;
smooth = 0;
x = 327;
y = 602;
},
{
segmentType = line;
smooth = 0;
x = 404;
y = 644;
},
{
segmentType = line;
smooth = 0;
x = 407;
y = 660;
},
{
segmentType = line;
smooth = 0;
x = 86;
y = 660;
},
{
segmentType = line;
smooth = 0;
x = 83;
y = 644;
},
{
segmentType = line;
smooth = 0;
x = 156;
y = 602;
},
{
segmentType = line;
smooth = 0;
x = 60;
y = 58;
},
{
segmentType = line;
smooth = 0;
x = -27;
y = 16;
}
);
},
{
points = (
{
segmentType = line;
smooth = 0;
x = 192;
y = 313;
},
{
segmentType = line;
smooth = 0;
x = 579;
y = 313;
},
{
segmentType = line;
smooth = 0;
x = 590;
y = 368;
},
{
segmentType = line;
smooth = 0;
x = 203;
y = 368;
}
);
},
{
points = (
{
segmentType = line;
smooth = 0;
x = 363;
y = 0;
},
{
segmentType = line;
smooth = 0;
x = 683;
y = 0;
},
{
segmentType = line;
smooth = 0;
x = 686;
y = 16;
},
{
segmentType = line;
smooth = 0;
x = 615;
y = 58;
},
{
segmentType = line;
smooth = 0;
x = 711;
y = 602;
},
{
segmentType = line;
smooth = 0;
x = 796;
y = 644;
},
{
segmentType = line;
smooth = 0;
x = 799;
y = 660;
},
{
segmentType = line;
smooth = 0;
x = 479;
y = 660;
},
{
segmentType = line;
smooth = 0;
x = 476;
y = 644;
},
{
segmentType = line;
smooth = 0;
x = 540;
y = 602;
},
{
segmentType = line;
smooth = 0;
x = 444;
y = 58;
},
{
segmentType = line;
smooth = 0;
x = 366;
y = 16;
}
);
}
);
lib = {
};
name = H;
unicodes = (
);
width = 769;
};
};
};
width = 769;
}
);
unicode = 72;
},
{
color = 5;
glyphname = Hbar;
kernLeft = kern_H2;
kernRight = kern_H1;
layers = (
{
layerId = master01;
shapes = (
{
closed = 1;
nodes = (
(248,0,l),
(251,16,l),
(174,56,l),
(271,604,l),
(352,644,l),
(355,660,l),
(117,660,l),
(114,644,l),
(186,604,l),
(89,56,l),
(13,16,l),
(10,0,l)
);
},
{
closed = 1;
nodes = (
(615,315,l),
(615,365,l),
(185,365,l),
(185,315,l)
);
},
{
closed = 1;
nodes = (
(657,0,l),
(660,16,l),
(583,56,l),
(680,604,l),
(761,644,l),
(764,660,l),
(526,660,l),
(523,644,l),
(595,604,l),
(498,56,l),
(422,16,l),
(419,0,l)
);
},
{
closed = 1;
nodes = (
(732,476,l),
(740,517,l),
(98,517,l),
(90,476,l)
);
}
);
userData = {
com.typemytype.robofont.layerData = {
mask = {
anchors = (
);
components = (
);
contours = (
{
points = (
{
segmentType = line;
smooth = 0;
x = 10;
y = 0;
},
{
segmentType = line;
smooth = 0;
x = 248;
y = 0;
},
{
segmentType = line;
smooth = 0;
x = 251;
y = 16;
},
{
segmentType = line;
smooth = 0;
x = 174;
y = 56;
},
{
segmentType = line;
smooth = 0;
x = 271;
y = 604;
},
{
segmentType = line;
smooth = 0;
x = 352;
y = 644;
},
{
segmentType = line;
smooth = 0;
x = 355;
y = 660;
},
{
segmentType = line;
smooth = 0;
x = 117;
y = 660;
},
{
segmentType = line;
smooth = 0;
x = 114;
y = 644;
},
{
segmentType = line;
smooth = 0;
x = 186;
y = 604;
},
{
segmentType = line;
smooth = 0;
x = 89;
y = 56;
},
{
segmentType = line;
smooth = 0;
x = 13;
y = 16;
}
);
},
{
points = (
{
segmentType = line;
smooth = 0;
x = 185;
y = 315;
},
{
segmentType = line;
smooth = 0;
x = 615;
y = 315;
},
{
segmentType = line;
smooth = 0;
x = 615;
y = 365;
},
{
segmentType = line;
smooth = 0;
x = 185;
y = 365;
}
);
},
{
points = (
{
segmentType = line;
smooth = 0;
x = 419;
y = 0;
},
{
segmentType = line;
smooth = 0;
x = 657;
y = 0;
},
{
segmentType = line;
smooth = 0;
x = 660;
y = 16;
},
{
segmentType = line;
smooth = 0;
x = 583;
y = 56;
},
{
segmentType = line;
smooth = 0;
x = 680;
y = 604;
},
{
segmentType = line;
smooth = 0;
x = 761;
y = 644;
},
{
segmentType = line;
smooth = 0;
x = 764;
y = 660;
},
{
segmentType = line;
smooth = 0;
x = 526;
y = 660;
},
{
segmentType = line;
smooth = 0;
x = 523;
y = 644;
},
{
segmentType = line;
smooth = 0;
x = 595;
y = 604;
},
{
segmentType = line;
smooth = 0;
x = 498;
y = 56;
},
{
segmentType = line;
smooth = 0;
x = 422;
y = 16;
}
);
},
{
points = (
{
segmentType = line;
smooth = 0;
x = 90;
y = 476;
},
{
segmentType = line;
smooth = 0;
x = 732;
y = 476;
},
{
segmentType = line;
smooth = 0;
x = 740;
y = 517;
},
{
segmentType = line;
smooth = 0;
x = 98;
y = 517;
}
);
}
);
lib = {
};
name = Hbar;
unicodes = (
);
width = 774;
};
};
};
width = 774;
},
{
layerId = "48B243E4-A9BC-4CE2-9E97-0DBF8BE24EDB";
shapes = (
{
closed = 1;
nodes = (
(291,0,l),
(294,16,l),
(231,58,l),
(327,602,l),
(404,644,l),
(407,660,l),
(86,660,l),
(83,644,l),
(156,602,l),
(60,58,l),
(-27,16,l),
(-30,0,l)
);
},
{
closed = 1;
nodes = (
(579,313,l),
(590,368,l),
(203,368,l),
(192,313,l)
);
},
{
closed = 1;
nodes = (
(683,0,l),
(686,16,l),
(615,58,l),
(711,602,l),
(796,644,l),
(799,660,l),
(479,660,l),
(476,644,l),
(540,602,l),
(444,58,l),
(366,16,l),
(363,0,l)
);
},
{
closed = 1;
nodes = (
(763,469,l),
(774,521,l),
(63,521,l),
(52,469,l)
);
}
);
userData = {
com.typemytype.robofont.layerData = {
mask = {
anchors = (
);
components = (
);
contours = (
{
points = (
{
segmentType = line;
smooth = 0;
x = -30;
y = 0;
},
{
segmentType = line;
smooth = 0;
x = 291;
y = 0;
},
{
segmentType = line;
smooth = 0;
x = 294;
y = 16;
},
{
segmentType = line;
smooth = 0;
x = 231;
y = 58;
},
{
segmentType = line;
smooth = 0;
x = 327;
y = 602;
},
{
segmentType = line;
smooth = 0;
x = 404;
y = 644;
},
{
segmentType = line;
smooth = 0;
x = 407;
y = 660;
},
{
segmentType = line;
smooth = 0;
x = 86;
y = 660;
},
{
segmentType = line;
smooth = 0;
x = 83;
y = 644;
},
{
segmentType = line;
smooth = 0;
x = 156;
y = 602;
},
{
segmentType = line;
smooth = 0;
x = 60;
y = 58;
},
{
segmentType = line;
smooth = 0;
x = -27;
y = 16;
}
);
},
{
points = (
{
segmentType = line;
smooth = 0;
x = 192;
y = 313;
},
{
segmentType = line;
smooth = 0;
x = 579;
y = 313;
},
{
segmentType = line;
smooth = 0;
x = 590;
y = 368;
},
{
segmentType = line;
smooth = 0;
x = 203;
y = 368;
}
);
},
{
points = (
{
segmentType = line;
smooth = 0;
x = 363;
y = 0;
},
{
segmentType = line;
smooth = 0;
x = 683;
y = 0;
},
{
segmentType = line;
smooth = 0;
x = 686;
y = 16;
},
{
segmentType = line;
smooth = 0;
x = 615;
y = 58;
},
{
segmentType = line;
smooth = 0;
x = 711;
y = 602;
},
{
segmentType = line;
smooth = 0;
x = 796;
y = 644;
},
{
segmentType = line;
smooth = 0;
x = 799;
y = 660;
},
{
segmentType = line;
smooth = 0;
x = 479;
y = 660;
},
{
segmentType = line;
smooth = 0;
x = 476;
y = 644;
},
{
segmentType = line;
smooth = 0;
x = 540;
y = 602;
},
{
segmentType = line;
smooth = 0;
x = 444;
y = 58;
},
{
segmentType = line;
smooth = 0;
x = 366;
y = 16;
}
);
},
{
points = (
{
segmentType = line;
smooth = 0;
x = 52;
y = 469;
},
{
segmentType = line;
smooth = 0;
x = 763;
y = 469;
},
{
segmentType = line;
smooth = 0;
x = 774;
y = 521;
},
{
segmentType = line;
smooth = 0;
x = 63;
y = 521;
}
);
}
);
lib = {
};
name = Hbar;
unicodes = (
);
width = 769;
};
};
};
width = 769;
}
);
unicode = 294;
},
{
color = 5;
glyphname = I;
kernLeft = kern_H2;
kernRight = kern_H1;
layers = (
{
anchors = (
{
name = bottom;
pos = (121,0);
},
{
name = right;
pos = (145,0);
},
{
name = top;
pos = (246,710);
}
);
layerId = master01;
shapes = (
{
closed = 1;
nodes = (
(248,0,l),
(251,16,l),
(174,56,l),
(271,604,l),
(352,644,l),
(355,660,l),
(117,660,l),
(114,644,l),
(186,604,l),
(89,56,l),
(13,16,l),
(10,0,l)
);
}
);
userData = {
com.typemytype.robofont.layerData = {
mask = {
anchors = (
{
name = top;
x = 246;
y = 710;
},
{
name = right;
x = 145;
y = 0;
},
{
name = bottom;
x = 121;
y = 0;
}
);
components = (
);
contours = (
{
points = (
{
segmentType = line;
smooth = 0;
x = 10;
y = 0;
},
{
segmentType = line;
smooth = 0;
x = 248;
y = 0;
},
{
segmentType = line;
smooth = 0;
x = 251;
y = 16;
},
{
segmentType = line;
smooth = 0;
x = 174;
y = 56;
},
{
segmentType = line;
smooth = 0;
x = 271;
y = 604;
},
{
segmentType = line;
smooth = 0;
x = 352;
y = 644;
},
{
segmentType = line;
smooth = 0;
x = 355;
y = 660;
},
{
segmentType = line;
smooth = 0;
x = 117;
y = 660;
},
{
segmentType = line;
smooth = 0;
x = 114;
y = 644;
},
{
segmentType = line;
smooth = 0;
x = 186;
y = 604;
},
{
segmentType = line;
smooth = 0;
x = 89;
y = 56;
},
{
segmentType = line;
smooth = 0;
x = 13;
y = 16;
}
);
}
);
lib = {
};
name = I;
unicodes = (
);
width = 365;
};
};
};
width = 365;
},
{
anchors = (
{
name = bottom;
pos = (135,0);
},
{
name = right;
pos = (152,0);
},
{
name = top;
pos = (260,710);
}
);
layerId = "48B243E4-A9BC-4CE2-9E97-0DBF8BE24EDB";
shapes = (
{
closed = 1;
nodes = (
(301,0,l),
(304,16,l),
(231,58,l),
(327,602,l),
(414,644,l),
(417,660,l),
(86,660,l),
(83,644,l),
(156,602,l),
(60,58,l),
(-27,16,l),
(-30,0,l)
);
}
);
userData = {
com.typemytype.robofont.layerData = {
mask = {
anchors = (
{
name = top;
x = 260;
y = 710;
},
{
name = right;
x = 152;
y = 0;
},
{
name = bottom;
x = 135;
y = 0;
}
);
components = (
);
contours = (
{
points = (
{
segmentType = line;
smooth = 0;
x = -30;
y = 0;
},
{
segmentType = line;
smooth = 0;
x = 301;
y = 0;
},
{
segmentType = line;
smooth = 0;
x = 304;
y = 16;
},
{
segmentType = line;
smooth = 0;
x = 231;
y = 58;
},
{
segmentType = line;
smooth = 0;
x = 327;
y = 602;
},
{
segmentType = line;
smooth = 0;
x = 414;
y = 644;
},
{
segmentType = line;
smooth = 0;
x = 417;
y = 660;
},
{
segmentType = line;
smooth = 0;
x = 86;
y = 660;
},
{
segmentType = line;
smooth = 0;
x = 83;
y = 644;
},
{
segmentType = line;
smooth = 0;
x = 156;
y = 602;
},
{
segmentType = line;
smooth = 0;
x = 60;
y = 58;
},
{
segmentType = line;
smooth = 0;
x = -27;
y = 16;
}
);
}
);
lib = {
};
name = I;
unicodes = (
);
width = 387;
};
};
};
width = 387;
}
);
unicode = 73;
},
{
color = 5;
glyphname = Iogonek;
kernLeft = kern_H2;
kernRight = kern_H1;
layers = (
{
layerId = master01;
shapes = (
{
closed = 1;
nodes = (
(248,0,l),
(251,16,l),
(174,56,l),
(271,604,l),
(352,644,l),
(355,660,l),
(117,660,l),
(114,644,l),
(186,604,l),
(89,56,l),
(13,16,l),
(10,0,l)
);
},
{
closed = 1;
nodes = (
(133,-240,o),
(163,-223,o),
(184,-193,c),
(186,-180,l),
(183,-180,l),
(165,-192,o),
(147,-196,o),
(133,-196,cs),
(98,-196,o),
(77,-179,o),
(77,-140,cs),
(77,-92,o),
(107,-37,o),
(162,25,c),
(138,25,l),
(62,-46,o),
(16,-103,o),
(16,-159,cs),
(16,-210,o),
(47,-240,o),
(97,-240,cs)
);
}
);
userData = {
com.typemytype.robofont.layerData = {
mask = {
anchors = (
);
components = (
);
contours = (
{
points = (
{
segmentType = line;
smooth = 0;
x = 10;
y = 0;
},
{
segmentType = line;
smooth = 0;
x = 248;
y = 0;
},
{
segmentType = line;
smooth = 0;
x = 251;
y = 16;
},
{
segmentType = line;
smooth = 0;
x = 174;
y = 56;
},
{
segmentType = line;
smooth = 0;
x = 271;
y = 604;
},
{
segmentType = line;
smooth = 0;
x = 352;
y = 644;
},
{
segmentType = line;
smooth = 0;
x = 355;
y = 660;
},
{
segmentType = line;
smooth = 0;
x = 117;
y = 660;
},
{
segmentType = line;
smooth = 0;
x = 114;
y = 644;
},
{
segmentType = line;
smooth = 0;
x = 186;
y = 604;
},
{
segmentType = line;
smooth = 0;
x = 89;
y = 56;
},
{
segmentType = line;
smooth = 0;
x = 13;
y = 16;
}
);
},
{
points = (
{
segmentType = curve;
smooth = 1;
x = 97;
y = -240;
},
{
smooth = 0;
x = 133;
y = -240;
},
{
smooth = 0;
x = 163;
y = -223;
},
{
segmentType = curve;
smooth = 0;
x = 184;
y = -193;
},
{
segmentType = line;
smooth = 0;
x = 186;
y = -180;
},
{
segmentType = line;
smooth = 0;
x = 183;
y = -180;
},
{
smooth = 0;
x = 165;
y = -192;
},
{
smooth = 0;
x = 147;
y = -196;
},
{
segmentType = curve;
smooth = 1;
x = 133;
y = -196;
},
{
smooth = 0;
x = 98;
y = -196;
},
{
smooth = 0;
x = 77;
y = -179;
},
{
segmentType = curve;
smooth = 1;
x = 77;
y = -140;
},
{
smooth = 0;
x = 77;
y = -92;
},
{
smooth = 0;
x = 107;
y = -37;
},
{
segmentType = curve;
smooth = 0;
x = 162;
y = 25;
},
{
segmentType = line;
smooth = 0;
x = 138;
y = 25;
},
{
smooth = 0;
x = 62;
y = -46;
},
{
smooth = 0;
x = 16;
y = -103;
},
{
segmentType = curve;
smooth = 1;
x = 16;
y = -159;
},
{
smooth = 0;
x = 16;
y = -210;
},
{
smooth = 0;
x = 47;
y = -240;
}
);
}
);
lib = {
};
name = Iogonek;
unicodes = (
);
width = 365;
};
};
};
width = 365;
},
{
layerId = "48B243E4-A9BC-4CE2-9E97-0DBF8BE24EDB";
shapes = (
{
closed = 1;
nodes = (
(301,0,l),
(304,16,l),
(231,58,l),
(327,602,l),
(414,644,l),
(417,660,l),
(86,660,l),
(83,644,l),
(156,602,l),
(60,58,l),
(-27,16,l),
(-30,0,l)
);
},
{
closed = 1;
nodes = (
(154,-240,o),
(185,-220,o),
(205,-189,c),
(211,-167,l),
(207,-167,l),
(197,-177,o),
(179,-183,o),
(165,-183,cs),
(130,-183,o),
(112,-164,o),
(112,-130,cs),
(112,-76,o),
(139,-19,o),
(170,27,c),
(147,27,l),
(85,-25,o),
(19,-89,o),
(19,-160,cs),
(19,-209,o),
(53,-240,o),
(110,-240,cs)
);
}
);
width = 387;
}
);
unicode = 302;
},
{
color = 5;
glyphname = J;
kernLeft = kern_J2;
kernRight = kern_J1;
layers = (
{
anchors = (
{
name = top;
pos = (261,710);
}
);
layerId = master01;
shapes = (
{
closed = 1;
nodes = (
(3,-173,o),
(20,-162,o),
(85,-99,cs),
(152,-35,o),
(194,90,o),
(220,240,cs),
(285,604,l),
(367,644,l),
(370,660,l),
(133,660,l),
(130,644,l),
(199,604,l),
(101,51,ls),
(78,-83,o),
(49,-100,o),
(8,-100,cs),
(-9,-100,o),
(-18,-97,o),
(-38,-91,c),
(-44,-91,l),
(-57,-130,ls),
(-68,-162,o),
(-52.333,-173,o),
(-34,-173,cs)
);
}
);
userData = {
com.typemytype.robofont.layerData = {
mask = {
anchors = (
{
name = top;
x = 261;
y = 710;
}
);
components = (
);
contours = (
{
points = (
{
segmentType = curve;
smooth = 1;
x = -34;
y = -173;
},
{
smooth = 0;
x = 3;
y = -173;
},
{
smooth = 0;
x = 20;
y = -162;
},
{
segmentType = curve;
smooth = 1;
x = 85;
y = -99;
},
{
smooth = 0;
x = 152;
y = -35;
},
{
smooth = 0;
x = 194;
y = 90;
},
{
segmentType = curve;
smooth = 1;
x = 220;
y = 240;
},
{
segmentType = line;
smooth = 0;
x = 285;
y = 604;
},
{
segmentType = line;
smooth = 0;
x = 367;
y = 644;
},
{
segmentType = line;
smooth = 0;
x = 370;
y = 660;
},
{
segmentType = line;
smooth = 0;
x = 133;
y = 660;
},
{
segmentType = line;
smooth = 0;
x = 130;
y = 644;
},
{
segmentType = line;
smooth = 0;
x = 199;
y = 604;
},
{
segmentType = line;
smooth = 1;
x = 101;
y = 51;
},
{
smooth = 0;
x = 78;
y = -83;
},
{
smooth = 0;
x = 49;
y = -100;
},
{
segmentType = curve;
smooth = 1;
x = 8;
y = -100;
},
{
smooth = 0;
x = -9;
y = -100;
},
{
smooth = 0;
x = -18;
y = -97;
},
{
segmentType = curve;
smooth = 0;
x = -38;
y = -91;
},
{
segmentType = line;
smooth = 0;
x = -44;
y = -91;
},
{
segmentType = line;
smooth = 1;
x = -57;
y = -130;
},
{
smooth = 0;
x = -68;
y = -162;
},
{
smooth = 0;
x = -52.33333;
y = -173;
}
);
}
);
lib = {
};
name = J;
unicodes = (
);
width = 375;
};
};
};
width = 375;
},
{
anchors = (
{
name = top;
pos = (279,710);
}
);
layerId = "48B243E4-A9BC-4CE2-9E97-0DBF8BE24EDB";
shapes = (
{
closed = 1;
nodes = (
(10,-173,o),
(31,-151,o),
(109,-73,cs),
(177,-5,o),
(254,88,o),
(280,229,cs),
(349,602,l),
(427,644,l),
(429,660,l),
(97,660,l),
(95,644,l),
(178,602,l),
(87,87,ls),
(63,-47,o),
(40,-64,o),
(-5,-64,cs),
(-22,-64,o),
(-36,-61,o),
(-53,-55,c),
(-59,-55,l),
(-81,-122,ls),
(-91.556,-154.149,o),
(-77,-173,o),
(-43,-173,cs)
);
}
);
userData = {
com.typemytype.robofont.layerData = {
mask = {
anchors = (
{
name = top;
x = 279;
y = 710;
}
);
components = (
);
contours = (
{
points = (
{
segmentType = curve;
smooth = 1;
x = -43;
y = -173;
},
{
smooth = 0;
x = 10;
y = -173;
},
{
smooth = 0;
x = 31;
y = -151;
},
{
segmentType = curve;
smooth = 1;
x = 109;
y = -73;
},
{
smooth = 0;
x = 177;
y = -5;
},
{
smooth = 0;
x = 254;
y = 88;
},
{
segmentType = curve;
smooth = 1;
x = 280;
y = 229;
},
{
segmentType = line;
smooth = 0;
x = 349;
y = 602;
},
{
segmentType = line;
smooth = 0;
x = 427;
y = 644;
},
{
segmentType = line;
smooth = 0;
x = 429;
y = 660;
},
{
segmentType = line;
smooth = 0;
x = 97;
y = 660;
},
{
segmentType = line;
smooth = 0;
x = 95;
y = 644;
},
{
segmentType = line;
smooth = 0;
x = 178;
y = 602;
},
{
segmentType = line;
smooth = 1;
x = 87;
y = 87;
},
{
smooth = 0;
x = 63;
y = -47;
},
{
smooth = 0;
x = 40;
y = -64;
},
{
segmentType = curve;
smooth = 1;
x = -5;
y = -64;
},
{
smooth = 0;
x = -22;
y = -64;
},
{
smooth = 0;
x = -36;
y = -61;
},
{
segmentType = curve;
smooth = 0;
x = -53;
y = -55;
},
{
segmentType = line;
smooth = 0;
x = -59;
y = -55;
},
{
segmentType = line;
smooth = 1;
x = -81;
y = -122;
},
{
smooth = 0;
x = -91.55641;
y = -154.14906;
},
{
smooth = 0;
x = -77;
y = -173;
}
);
}
);
lib = {
};
name = J;
unicodes = (
);
width = 397;
};
};
};
width = 397;
}
);
unicode = 74;
},
{
color = 5;
glyphname = K;
kernLeft = kern_H2;
kernRight = kern_K1;
layers = (
{
anchors = (
{
name = bottom;
pos = (320,0);
},
{
name = top;
pos = (430,710);
}
);
layerId = master01;
shapes = (
{
closed = 1;
nodes = (
(247,0,l),
(251,16,l),
(181,56,l),
(278,604,l),
(360,644,l),
(364,660,l),
(126,660,l),
(123,644,l),
(192,604,l),
(96,56,l),
(13,16,l),
(10,0,l)
);
},
{
closed = 1;
nodes = (
(610,0,l),
(613,16,l),
(552,52,l),
(301,381,l),
(295,338,l),
(632,632,l),
(592,610,l),
(680,644,l),
(684,660,l),
(484,660,l),
(481,644,l),
(567,597,l),
(568,632,l),
(232,338,l),
(480,0,l)
);
}
);
userData = {
com.typemytype.robofont.layerData = {
mask = {
anchors = (
{
name = top;
x = 430;
y = 710;
},
{
name = bottom;
x = 320;
y = 0;
}
);
components = (
);
contours = (
{
points = (
{
segmentType = line;
smooth = 0;
x = 10;
y = 0;
},
{
segmentType = line;
smooth = 0;
x = 247;
y = 0;
},
{
segmentType = line;
smooth = 0;
x = 251;
y = 16;
},
{
segmentType = line;
smooth = 0;
x = 181;
y = 56;
},
{
segmentType = line;
smooth = 0;
x = 278;
y = 604;
},
{
segmentType = line;
smooth = 0;
x = 360;
y = 644;
},
{
segmentType = line;
smooth = 0;
x = 364;
y = 660;
},
{
segmentType = line;
smooth = 0;
x = 126;
y = 660;
},
{
segmentType = line;
smooth = 0;
x = 123;
y = 644;
},
{
segmentType = line;
smooth = 0;
x = 192;
y = 604;
},
{
segmentType = line;
smooth = 0;
x = 96;
y = 56;
},
{
segmentType = line;
smooth = 0;
x = 13;
y = 16;
}
);
},
{
points = (
{
segmentType = line;
smooth = 0;
x = 480;
y = 0;
},
{
segmentType = line;
smooth = 0;
x = 610;
y = 0;
},
{
segmentType = line;
smooth = 0;
x = 613;
y = 16;
},
{
segmentType = line;
smooth = 0;
x = 552;
y = 52;
},
{
segmentType = line;
smooth = 0;
x = 301;
y = 381;
},
{
segmentType = line;
smooth = 0;
x = 295;
y = 338;
},
{
segmentType = line;
smooth = 0;
x = 632;
y = 632;
},
{
segmentType = line;
smooth = 0;
x = 592;
y = 610;
},
{
segmentType = line;
smooth = 0;
x = 680;
y = 644;
},
{
segmentType = line;
smooth = 0;
x = 684;
y = 660;
},
{
segmentType = line;
smooth = 0;
x = 484;
y = 660;
},
{
segmentType = line;
smooth = 0;
x = 481;
y = 644;
},
{
segmentType = line;
smooth = 0;
x = 567;
y = 597;
},
{
segmentType = line;
smooth = 0;
x = 568;
y = 632;
},
{
segmentType = line;
smooth = 0;
x = 232;
y = 338;
}
);
}
);
lib = {
};
name = K;
unicodes = (
);
width = 700;
};
};
};
width = 700;
},
{
anchors = (
{
name = bottom;
pos = (340,0);
},
{
name = top;
pos = (454,710);
}
);
layerId = "48B243E4-A9BC-4CE2-9E97-0DBF8BE24EDB";
shapes = (
{
closed = 1;
nodes = (
(301,0,l),
(305,16,l),
(231,58,l),
(327,602,l),
(414,644,l),
(418,660,l),
(86,660,l),
(83,644,l),
(156,602,l),
(60,58,l),
(-27,16,l),
(-30,0,l)
);
},
{
closed = 1;
nodes = (
(683,0,l),
(686,16,l),
(630,52,l),
(416,416,l),
(368,338,l),
(682,632,l),
(610,597,l),
(730,644,l),
(734,660,l),
(508,660,l),
(505,644,l),
(591,597,l),
(594,632,l),
(282,331,l),
(460,0,l)
);
}
);
userData = {
com.typemytype.robofont.layerData = {
mask = {
anchors = (
{
name = top;
x = 454;
y = 710;
},
{
name = bottom;
x = 340;
y = 0;
}
);
components = (
);
contours = (
{
points = (
{
segmentType = line;
smooth = 0;
x = -30;
y = 0;
},
{
segmentType = line;
smooth = 0;
x = 301;
y = 0;
},
{
segmentType = line;
smooth = 0;
x = 305;
y = 16;
},
{
segmentType = line;
smooth = 0;
x = 231;
y = 58;
},
{
segmentType = line;
smooth = 0;
x = 327;
y = 602;
},
{
segmentType = line;
smooth = 0;
x = 414;
y = 644;
},
{
segmentType = line;
smooth = 0;
x = 418;
y = 660;
},
{
segmentType = line;
smooth = 0;
x = 86;
y = 660;
},
{
segmentType = line;
smooth = 0;
x = 83;
y = 644;
},
{
segmentType = line;
smooth = 0;
x = 156;
y = 602;
},
{
segmentType = line;
smooth = 0;
x = 60;
y = 58;
},
{
segmentType = line;
smooth = 0;
x = -27;
y = 16;
}
);
},
{
points = (
{
segmentType = line;
smooth = 0;
x = 460;
y = 0;
},
{
segmentType = line;
smooth = 0;
x = 683;
y = 0;
},
{
segmentType = line;
smooth = 0;
x = 686;
y = 16;
},
{
segmentType = line;
smooth = 0;
x = 630;
y = 52;
},
{
segmentType = line;
smooth = 0;
x = 416;
y = 416;
},
{
segmentType = line;
smooth = 0;
x = 368;
y = 338;
},
{
segmentType = line;
smooth = 0;
x = 682;
y = 632;
},
{
segmentType = line;
smooth = 0;
x = 610;
y = 597;
},
{
segmentType = line;
smooth = 0;
x = 730;
y = 644;
},
{
segmentType = line;
smooth = 0;
x = 734;
y = 660;
},
{
segmentType = line;
smooth = 0;
x = 508;
y = 660;
},
{
segmentType = line;
smooth = 0;
x = 505;
y = 644;
},
{
segmentType = line;
smooth = 0;
x = 591;
y = 597;
},
{
segmentType = line;
smooth = 0;
x = 594;
y = 632;
},
{
segmentType = line;
smooth = 0;
x = 282;
y = 331;
}
);
}
);
lib = {
};
name = K;
unicodes = (
);
width = 734;
};
};
};
width = 734;
}
);
unicode = 75;
},
{
color = 5;
glyphname = L;
kernLeft = kern_H2;
kernRight = kern_L1;
layers = (
{
anchors = (
{
name = bottom;
pos = (263,0);
},
{
name = mid;
pos = (490,347);
},
{
name = right;
pos = (499,660);
},
{
name = top;
pos = (254,710);
}
);
layerId = master01;
shapes = (
{
closed = 1;
nodes = (
(482,0,l),
(521,222,l),
(505,222,l),
(412,50,l),
(181,50,l),
(278,604,l),
(370,644,l),
(373,660,l),
(126,660,l),
(123,644,l),
(192,604,l),
(96,56,l),
(13,16,l),
(10,0,l)
);
}
);
userData = {
com.typemytype.robofont.layerData = {
mask = {
anchors = (
{
name = top;
x = 254;
y = 710;
},
{
name = right;
x = 499;
y = 660;
},
{
name = bottom;
x = 263;
y = 0;
},
{
name = mid;
x = 490;
y = 347;
}
);
components = (
);
contours = (
{
points = (
{
segmentType = line;
smooth = 0;
x = 10;
y = 0;
},
{
segmentType = line;
smooth = 0;
x = 482;
y = 0;
},
{
segmentType = line;
smooth = 0;
x = 521;
y = 222;
},
{
segmentType = line;
smooth = 0;
x = 505;
y = 222;
},
{
segmentType = line;
smooth = 0;
x = 412;
y = 50;
},
{
segmentType = line;
smooth = 0;
x = 181;
y = 50;
},
{
segmentType = line;
smooth = 0;
x = 278;
y = 604;
},
{
segmentType = line;
smooth = 0;
x = 370;
y = 644;
},
{
segmentType = line;
smooth = 0;
x = 373;
y = 660;
},
{
segmentType = line;
smooth = 0;
x = 126;
y = 660;
},
{
segmentType = line;
smooth = 0;
x = 123;
y = 644;
},
{
segmentType = line;
smooth = 0;
x = 192;
y = 604;
},
{
segmentType = line;
smooth = 0;
x = 96;
y = 56;
},
{
segmentType = line;
smooth = 0;
x = 13;
y = 16;
}
);
}
);
lib = {
};
name = L;
unicodes = (
);
width = 598;
};
};
};
width = 598;
},
{
anchors = (
{
name = bottom;
pos = (263,0);
},
{
name = mid;
pos = (484,355);
},
{
name = right;
pos = (530,660);
},
{
name = top;
pos = (260,710);
}
);
layerId = "48B243E4-A9BC-4CE2-9E97-0DBF8BE24EDB";
shapes = (
{
closed = 1;
nodes = (
(489,0,l),
(535,245,l),
(519,245,l),
(395,55,l),
(230,55,l),
(327,602,l),
(424,644,l),
(427,660,l),
(86,660,l),
(83,644,l),
(156,602,l),
(60,58,l),
(-27,16,l),
(-30,0,l)
);
}
);
userData = {
com.typemytype.robofont.layerData = {
mask = {
anchors = (
{
name = top;
x = 260;
y = 710;
},
{
name = right;
x = 530;
y = 660;
},
{
name = mid;
x = 484;
y = 355;
},
{
name = bottom;
x = 263;
y = 0;
}
);
components = (
);
contours = (
{
points = (
{
segmentType = line;
smooth = 0;
x = -30;
y = 0;
},
{
segmentType = line;
smooth = 0;
x = 489;
y = 0;
},
{
segmentType = line;
smooth = 0;
x = 535;
y = 245;
},
{
segmentType = line;
smooth = 0;
x = 519;
y = 245;
},
{
segmentType = line;
smooth = 0;
x = 395;
y = 55;
},
{
segmentType = line;
smooth = 0;
x = 230;
y = 55;
},
{
segmentType = line;
smooth = 0;
x = 327;
y = 602;
},
{
segmentType = line;
smooth = 0;
x = 424;
y = 644;
},
{
segmentType = line;
smooth = 0;
x = 427;
y = 660;
},
{
segmentType = line;
smooth = 0;
x = 86;
y = 660;
},
{
segmentType = line;
smooth = 0;
x = 83;
y = 644;
},
{
segmentType = line;
smooth = 0;
x = 156;
y = 602;
},
{
segmentType = line;
smooth = 0;
x = 60;
y = 58;
},
{
segmentType = line;
smooth = 0;
x = -27;
y = 16;
}
);
}
);
lib = {
};
name = L;
unicodes = (
);
width = 570;
};
};
};
width = 570;
}
);
unicode = 76;
},
{
color = 5;
glyphname = Lslash;
kernLeft = kern_H2;
kernRight = kern_L1;
layers = (
{
layerId = master01;
shapes = (
{
closed = 1;
nodes = (
(482,0,l),
(521,222,l),
(505,222,l),
(412,50,l),
(181,50,l),
(278,604,l),
(370,644,l),
(373,660,l),
(126,660,l),
(123,644,l),
(192,604,l),
(96,56,l),
(13,16,l),
(10,0,l)
);
},
{
closed = 1;
nodes = (
(168,283,l),
(203,297,l),
(388,405,l),
(400,460,l),
(217,353,l),
(179,338,l),
(56,266,l),
(46,211,l)
);
}
);
userData = {
com.typemytype.robofont.layerData = {
mask = {
anchors = (
);
components = (
);
contours = (
{
points = (
{
segmentType = line;
smooth = 0;
x = 10;
y = 0;
},
{
segmentType = line;
smooth = 0;
x = 482;
y = 0;
},
{
segmentType = line;
smooth = 0;
x = 521;
y = 222;
},
{
segmentType = line;
smooth = 0;
x = 505;
y = 222;
},
{
segmentType = line;
smooth = 0;
x = 412;
y = 50;
},
{
segmentType = line;
smooth = 0;
x = 181;
y = 50;
},
{
segmentType = line;
smooth = 0;
x = 278;
y = 604;
},
{
segmentType = line;
smooth = 0;
x = 370;
y = 644;
},
{
segmentType = line;
smooth = 0;
x = 373;
y = 660;
},
{
segmentType = line;
smooth = 0;
x = 126;
y = 660;
},
{
segmentType = line;
smooth = 0;
x = 123;
y = 644;
},
{
segmentType = line;
smooth = 0;
x = 192;
y = 604;
},
{
segmentType = line;
smooth = 0;
x = 96;
y = 56;
},
{
segmentType = line;
smooth = 0;
x = 13;
y = 16;
}
);
},
{
points = (
{
segmentType = line;
smooth = 0;
x = 46;
y = 211;
},
{
segmentType = line;
smooth = 0;
x = 168;
y = 283;
},
{
segmentType = line;
smooth = 0;
x = 203;
y = 297;
},
{
segmentType = line;
smooth = 0;
x = 388;
y = 405;
},
{
segmentType = line;
smooth = 0;
x = 400;
y = 460;
},
{
segmentType = line;
smooth = 0;
x = 217;
y = 353;
},
{
segmentType = line;
smooth = 0;
x = 179;
y = 338;
},
{
segmentType = line;
smooth = 0;
x = 56;
y = 266;
}
);
}
);
lib = {
};
name = Lslash;
unicodes = (
);
width = 598;
};
};
};
width = 598;
},
{
layerId = "48B243E4-A9BC-4CE2-9E97-0DBF8BE24EDB";
shapes = (
{
closed = 1;
nodes = (
(489,0,l),
(535,245,l),
(519,245,l),
(395,55,l),
(230,55,l),
(327,602,l),
(424,644,l),
(427,660,l),
(86,660,l),
(83,644,l),
(156,602,l),
(60,58,l),
(-27,16,l),
(-30,0,l)
);
},
{
closed = 1;
nodes = (
(152,263,l),
(235,294,l),
(433,402,l),
(445,470,l),
(246,361,l),
(166,331,l),
(14,247,l),
(3,179,l)
);
}
);
userData = {
com.typemytype.robofont.layerData = {
mask = {
anchors = (
);
components = (
);
contours = (
{
points = (
{
segmentType = line;
smooth = 0;
x = -30;
y = 0;
},
{
segmentType = line;
smooth = 0;
x = 489;
y = 0;
},
{
segmentType = line;
smooth = 0;
x = 535;
y = 245;
},
{
segmentType = line;
smooth = 0;
x = 519;
y = 245;
},
{
segmentType = line;
smooth = 0;
x = 395;
y = 55;
},
{
segmentType = line;
smooth = 0;
x = 230;
y = 55;
},
{
segmentType = line;
smooth = 0;
x = 327;
y = 602;
},
{
segmentType = line;
smooth = 0;
x = 424;
y = 644;
},
{
segmentType = line;
smooth = 0;
x = 427;
y = 660;
},
{
segmentType = line;
smooth = 0;
x = 86;
y = 660;
},
{
segmentType = line;
smooth = 0;
x = 83;
y = 644;
},
{
segmentType = line;
smooth = 0;
x = 156;
y = 602;
},
{
segmentType = line;
smooth = 0;
x = 60;
y = 58;
},
{
segmentType = line;
smooth = 0;
x = -27;
y = 16;
}
);
},
{
points = (
{
segmentType = line;
smooth = 0;
x = 3;
y = 179;
},
{
segmentType = line;
smooth = 0;
x = 152;
y = 263;
},
{
segmentType = line;
smooth = 0;
x = 235;
y = 294;
},
{
segmentType = line;
smooth = 0;
x = 433;
y = 402;
},
{
segmentType = line;
smooth = 0;
x = 445;
y = 470;
},
{
segmentType = line;
smooth = 0;
x = 246;
y = 361;
},
{
segmentType = line;
smooth = 0;
x = 166;
y = 331;
},
{
segmentType = line;
smooth = 0;
x = 14;
y = 247;
}
);
}
);
lib = {
};
name = Lslash;
unicodes = (
);
width = 570;
};
};
};
width = 570;
}
);
unicode = 321;
},
{
color = 5;
glyphname = M;
kernLeft = kern_M3;
kernRight = kern_M3;
layers = (
{
anchors = (
{
name = bottom;
pos = (409,0);
}
);
layerId = master01;
shapes = (
{
closed = 1;
nodes = (
(221,0,l),
(224,16,l),
(154,55,l),
(273,630,l),
(219,630,l),
(95,56,l),
(13,16,l),
(10,0,l)
);
},
{
closed = 1;
nodes = (
(429,-5,l),
(764,595,l),
(802,595,l),
(908,644,l),
(912,660,l),
(744,660,l),
(416,71,l),
(456,71,l),
(312,660,l),
(134,660,l),
(130,644,l),
(230,595,l),
(243,595,l),
(387,-5,l)
);
},
{
closed = 1;
nodes = (
(817,0,l),
(820,16,l),
(760,56,l),
(827,630,l),
(746,630,l),
(676,55,l),
(599,16,l),
(596,0,l)
);
}
);
userData = {
com.typemytype.robofont.layerData = {
mask = {
anchors = (
{
name = bottom;
x = 409;
y = 0;
}
);
components = (
);
contours = (
{
points = (
{
segmentType = line;
smooth = 0;
x = 10;
y = 0;
},
{
segmentType = line;
smooth = 0;
x = 221;
y = 0;
},
{
segmentType = line;
smooth = 0;
x = 224;
y = 16;
},
{
segmentType = line;
smooth = 0;
x = 154;
y = 55;
},
{
segmentType = line;
smooth = 0;
x = 273;
y = 630;
},
{
segmentType = line;
smooth = 0;
x = 219;
y = 630;
},
{
segmentType = line;
smooth = 0;
x = 95;
y = 56;
},
{
segmentType = line;
smooth = 0;
x = 13;
y = 16;
}
);
},
{
points = (
{
segmentType = line;
smooth = 0;
x = 387;
y = -5;
},
{
segmentType = line;
smooth = 0;
x = 429;
y = -5;
},
{
segmentType = line;
smooth = 0;
x = 764;
y = 595;
},
{
segmentType = line;
smooth = 0;
x = 802;
y = 595;
},
{
segmentType = line;
smooth = 0;
x = 908;
y = 644;
},
{
segmentType = line;
smooth = 0;
x = 912;
y = 660;
},
{
segmentType = line;
smooth = 0;
x = 744;
y = 660;
},
{
segmentType = line;
smooth = 0;
x = 416;
y = 71;
},
{
segmentType = line;
smooth = 0;
x = 456;
y = 71;
},
{
segmentType = line;
smooth = 0;
x = 312;
y = 660;
},
{
segmentType = line;
smooth = 0;
x = 134;
y = 660;
},
{
segmentType = line;
smooth = 0;
x = 130;
y = 644;
},
{
segmentType = line;
smooth = 0;
x = 230;
y = 595;
},
{
segmentType = line;
smooth = 0;
x = 243;
y = 595;
}
);
},
{
points = (
{
segmentType = line;
smooth = 0;
x = 596;
y = 0;
},
{
segmentType = line;
smooth = 0;
x = 817;
y = 0;
},
{
segmentType = line;
smooth = 0;
x = 820;
y = 16;
},
{
segmentType = line;
smooth = 0;
x = 760;
y = 56;
},
{
segmentType = line;
smooth = 0;
x = 827;
y = 630;
},
{
segmentType = line;
smooth = 0;
x = 746;
y = 630;
},
{
segmentType = line;
smooth = 0;
x = 676;
y = 55;
},
{
segmentType = line;
smooth = 0;
x = 599;
y = 16;
}
);
}
);
lib = {
};
name = M;
unicodes = (
);
width = 922;
};
};
};
width = 922;
},
{
anchors = (
{
name = bottom;
pos = (368,0);
}
);
layerId = "48B243E4-A9BC-4CE2-9E97-0DBF8BE24EDB";
shapes = (
{
closed = 1;
nodes = (
(199,0,l),
(203,16,l),
(126,57,l),
(245,642,l),
(183,642,l),
(60,58,l),
(-27,16,l),
(-30,0,l)
);
},
{
closed = 1;
nodes = (
(397,-5,l),
(725,593,l),
(835,593,l),
(938,644,l),
(941,660,l),
(690,660,l),
(436,189,l),
(473,189,l),
(365,660,l),
(99,660,l),
(96,644,l),
(194,593,l),
(204,593,l),
(340,-5,l)
);
},
{
closed = 1;
nodes = (
(855,0,l),
(858,16,l),
(792,58,l),
(858,642,l),
(689,642,l),
(622,57,l),
(541,16,l),
(538,0,l)
);
}
);
userData = {
com.typemytype.robofont.layerData = {
mask = {
anchors = (
{
name = bottom;
x = 368;
y = 0;
}
);
components = (
);
contours = (
{
points = (
{
segmentType = line;
smooth = 0;
x = -30;
y = 0;
},
{
segmentType = line;
smooth = 0;
x = 199;
y = 0;
},
{
segmentType = line;
smooth = 0;
x = 203;
y = 16;
},
{
segmentType = line;
smooth = 0;
x = 126;
y = 57;
},
{
segmentType = line;
smooth = 0;
x = 245;
y = 642;
},
{
segmentType = line;
smooth = 0;
x = 183;
y = 642;
},
{
segmentType = line;
smooth = 0;
x = 60;
y = 58;
},
{
segmentType = line;
smooth = 0;
x = -27;
y = 16;
}
);
},
{
points = (
{
segmentType = line;
smooth = 0;
x = 340;
y = -5;
},
{
segmentType = line;
smooth = 0;
x = 397;
y = -5;
},
{
segmentType = line;
smooth = 0;
x = 725;
y = 593;
},
{
segmentType = line;
smooth = 0;
x = 835;
y = 593;
},
{
segmentType = line;
smooth = 0;
x = 938;
y = 644;
},
{
segmentType = line;
smooth = 0;
x = 941;
y = 660;
},
{
segmentType = line;
smooth = 0;
x = 690;
y = 660;
},
{
segmentType = line;
smooth = 0;
x = 436;
y = 189;
},
{
segmentType = line;
smooth = 0;
x = 473;
y = 189;
},
{
segmentType = line;
smooth = 0;
x = 365;
y = 660;
},
{
segmentType = line;
smooth = 0;
x = 99;
y = 660;
},
{
segmentType = line;
smooth = 0;
x = 96;
y = 644;
},
{
segmentType = line;
smooth = 0;
x = 194;
y = 593;
},
{
segmentType = line;
smooth = 0;
x = 204;
y = 593;
}
);
},
{
points = (
{
segmentType = line;
smooth = 0;
x = 538;
y = 0;
},
{
segmentType = line;
smooth = 0;
x = 855;
y = 0;
},
{
segmentType = line;
smooth = 0;
x = 858;
y = 16;
},
{
segmentType = line;
smooth = 0;
x = 792;
y = 58;
},
{
segmentType = line;
smooth = 0;
x = 858;
y = 642;
},
{
segmentType = line;
smooth = 0;
x = 689;
y = 642;
},
{
segmentType = line;
smooth = 0;
x = 622;
y = 57;
},
{
segmentType = line;
smooth = 0;
x = 541;
y = 16;
}
);
}
);
lib = {
};
name = M;
unicodes = (
);
width = 941;
};
};
};
width = 941;
}
);
unicode = 77;
},
{
color = 5;
glyphname = N;
kernLeft = kern_H2;
kernRight = kern_N1;
layers = (
{
anchors = (
{
name = bottom;
pos = (353,0);
},
{
name = top;
pos = (475,710);
}
);
layerId = master01;
shapes = (
{
closed = 1;
nodes = (
(247,0,l),
(251,16,l),
(159,55,l),
(248,561,l),
(221,561,l),
(540,-5,l),
(577,-5,l),
(684,605,l),
(768,644,l),
(771,660,l),
(535,660,l),
(531,644,l),
(623,606,l),
(533,95,l),
(582,95,l),
(267,660,l),
(127,660,l),
(124,644,l),
(194,602,l),
(98,56,l),
(13,16,l),
(10,0,l)
);
}
);
userData = {
com.typemytype.robofont.layerData = {
mask = {
anchors = (
{
name = top;
x = 475;
y = 710;
},
{
name = bottom;
x = 353;
y = 0;
}
);
components = (
);
contours = (
{
points = (
{
segmentType = line;
smooth = 0;
x = 10;
y = 0;
},
{
segmentType = line;
smooth = 0;
x = 247;
y = 0;
},
{
segmentType = line;
smooth = 0;
x = 251;
y = 16;
},
{
segmentType = line;
smooth = 0;
x = 159;
y = 55;
},
{
segmentType = line;
smooth = 0;
x = 248;
y = 561;
},
{
segmentType = line;
smooth = 0;
x = 221;
y = 561;
},
{
segmentType = line;
smooth = 0;
x = 540;
y = -5;
},
{
segmentType = line;
smooth = 0;
x = 577;
y = -5;
},
{
segmentType = line;
smooth = 0;
x = 684;
y = 605;
},
{
segmentType = line;
smooth = 0;
x = 768;
y = 644;
},
{
segmentType = line;
smooth = 0;
x = 771;
y = 660;
},
{
segmentType = line;
smooth = 0;
x = 535;
y = 660;
},
{
segmentType = line;
smooth = 0;
x = 531;
y = 644;
},
{
segmentType = line;
smooth = 0;
x = 623;
y = 606;
},
{
segmentType = line;
smooth = 0;
x = 533;
y = 95;
},
{
segmentType = line;
smooth = 0;
x = 582;
y = 95;
},
{
segmentType = line;
smooth = 0;
x = 267;
y = 660;
},
{
segmentType = line;
smooth = 0;
x = 127;
y = 660;
},
{
segmentType = line;
smooth = 0;
x = 124;
y = 644;
},
{
segmentType = line;
smooth = 0;
x = 194;
y = 602;
},
{
segmentType = line;
smooth = 0;
x = 98;
y = 56;
},
{
segmentType = line;
smooth = 0;
x = 13;
y = 16;
}
);
}
);
lib = {
};
name = N;
unicodes = (
);
width = 776;
};
};
};
width = 776;
},
{
anchors = (
{
name = bottom;
pos = (331,0);
},
{
name = top;
pos = (447,710);
}
);
layerId = "48B243E4-A9BC-4CE2-9E97-0DBF8BE24EDB";
shapes = (
{
closed = 1;
nodes = (
(238,0,l),
(241,16,l),
(137,58,l),
(214,495,l),
(186,495,l),
(508,-5,l),
(586,-5,l),
(693,602,l),
(778,644,l),
(781,660,l),
(520,660,l),
(517,644,l),
(621,602,l),
(546,176,l),
(592,176,l),
(286,660,l),
(91,660,l),
(88,644,l),
(161,602,l),
(65,58,l),
(-22,16,l),
(-25,0,l)
);
}
);
userData = {
com.typemytype.robofont.layerData = {
mask = {
anchors = (
{
name = top;
x = 447;
y = 710;
},
{
name = bottom;
x = 331;
y = 0;
}
);
components = (
);
contours = (
{
points = (
{
segmentType = line;
smooth = 0;
x = -25;
y = 0;
},
{
segmentType = line;
smooth = 0;
x = 238;
y = 0;
},
{
segmentType = line;
smooth = 0;
x = 241;
y = 16;
},
{
segmentType = line;
smooth = 0;
x = 137;
y = 58;
},
{
segmentType = line;
smooth = 0;
x = 214;
y = 495;
},
{
segmentType = line;
smooth = 0;
x = 186;
y = 495;
},
{
segmentType = line;
smooth = 0;
x = 508;
y = -5;
},
{
segmentType = line;
smooth = 0;
x = 586;
y = -5;
},
{
segmentType = line;
smooth = 0;
x = 693;
y = 602;
},
{
segmentType = line;
smooth = 0;
x = 778;
y = 644;
},
{
segmentType = line;
smooth = 0;
x = 781;
y = 660;
},
{
segmentType = line;
smooth = 0;
x = 520;
y = 660;
},
{
segmentType = line;
smooth = 0;
x = 517;
y = 644;
},
{
segmentType = line;
smooth = 0;
x = 621;
y = 602;
},
{
segmentType = line;
smooth = 0;
x = 546;
y = 176;
},
{
segmentType = line;
smooth = 0;
x = 592;
y = 176;
},
{
segmentType = line;
smooth = 0;
x = 286;
y = 660;
},
{
segmentType = line;
smooth = 0;
x = 91;
y = 660;
},
{
segmentType = line;
smooth = 0;
x = 88;
y = 644;
},
{
segmentType = line;
smooth = 0;
x = 161;
y = 602;
},
{
segmentType = line;
smooth = 0;
x = 65;
y = 58;
},
{
segmentType = line;
smooth = 0;
x = -22;
y = 16;
}
);
}
);
lib = {
};
name = N;
unicodes = (
);
width = 751;
};
};
};
width = 751;
}
);
unicode = 78;
},
{
color = 5;
glyphname = Eng;
kernLeft = kern_H2;
kernRight = kern_N1;
layers = (
{
layerId = master01;
shapes = (
{
closed = 1;
nodes = (
(247,0,l),
(251,16,l),
(159,55,l),
(248,561,l),
(221,561,l),
(540,-5,l),
(525,45,l),
(508,-46,ls),
(493,-127,o),
(463,-158,o),
(387,-158,cs),
(356,-158,l),
(352,-162,l),
(340,-212,ls),
(335,-234,o),
(343,-240,o),
(366,-240,cs),
(406,-240,o),
(454,-225,o),
(485,-200,cs),
(524,-169,o),
(558,-119,o),
(574,-26,cs),
(684,605,l),
(768,644,l),
(771,660,l),
(535,660,l),
(531,644,l),
(623,606,l),
(533,95,l),
(582,95,l),
(267,660,l),
(127,660,l),
(124,644,l),
(194,602,l),
(98,56,l),
(13,16,l),
(10,0,l)
);
}
);
userData = {
com.typemytype.robofont.layerData = {
mask = {
anchors = (
);
components = (
);
contours = (
{
points = (
{
segmentType = line;
smooth = 0;
x = 10;
y = 0;
},
{
segmentType = line;
smooth = 0;
x = 247;
y = 0;
},
{
segmentType = line;
smooth = 0;
x = 251;
y = 16;
},
{
segmentType = line;
smooth = 0;
x = 159;
y = 55;
},
{
segmentType = line;
smooth = 0;
x = 248;
y = 561;
},
{
segmentType = line;
smooth = 0;
x = 221;
y = 561;
},
{
segmentType = line;
smooth = 0;
x = 540;
y = -5;
},
{
segmentType = line;
smooth = 0;
x = 525;
y = 45;
},
{
segmentType = line;
smooth = 1;
x = 508;
y = -46;
},
{
smooth = 0;
x = 493;
y = -127;
},
{
smooth = 0;
x = 463;
y = -158;
},
{
segmentType = curve;
smooth = 1;
x = 387;
y = -158;
},
{
segmentType = line;
smooth = 0;
x = 356;
y = -158;
},
{
segmentType = line;
smooth = 0;
x = 352;
y = -162;
},
{
segmentType = line;
smooth = 1;
x = 340;
y = -212;
},
{
smooth = 0;
x = 335;
y = -234;
},
{
smooth = 0;
x = 343;
y = -240;
},
{
segmentType = curve;
smooth = 1;
x = 366;
y = -240;
},
{
smooth = 0;
x = 406;
y = -240;
},
{
smooth = 0;
x = 454;
y = -225;
},
{
segmentType = curve;
smooth = 1;
x = 485;
y = -200;
},
{
smooth = 0;
x = 524;
y = -169;
},
{
smooth = 0;
x = 558;
y = -119;
},
{
segmentType = curve;
smooth = 1;
x = 574;
y = -26;
},
{
segmentType = line;
smooth = 0;
x = 684;
y = 605;
},
{
segmentType = line;
smooth = 0;
x = 768;
y = 644;
},
{
segmentType = line;
smooth = 0;
x = 771;
y = 660;
},
{
segmentType = line;
smooth = 0;
x = 535;
y = 660;
},
{
segmentType = line;
smooth = 0;
x = 531;
y = 644;
},
{
segmentType = line;
smooth = 0;
x = 623;
y = 606;
},
{
segmentType = line;
smooth = 0;
x = 533;
y = 95;
},
{
segmentType = line;
smooth = 0;
x = 582;
y = 95;
},
{
segmentType = line;
smooth = 0;
x = 267;
y = 660;
},
{
segmentType = line;
smooth = 0;
x = 127;
y = 660;
},
{
segmentType = line;
smooth = 0;
x = 124;
y = 644;
},
{
segmentType = line;
smooth = 0;
x = 194;
y = 602;
},
{
segmentType = line;
smooth = 0;
x = 98;
y = 56;
},
{
segmentType = line;
smooth = 0;
x = 13;
y = 16;
}
);
}
);
lib = {
};
name = Eng;
unicodes = (
);
width = 776;
};
};
};
width = 776;
},
{
layerId = "48B243E4-A9BC-4CE2-9E97-0DBF8BE24EDB";
shapes = (
{
closed = 1;
nodes = (
(238,0,l),
(241,16,l),
(137,58,l),
(214,495,l),
(186,495,l),
(529,-38,l),
(519,22,l),
(514,-6,ls),
(497.214,-100,o),
(476,-117,o),
(388,-117,cs),
(350,-117,l),
(342,-123,l),
(322,-211,ls),
(317,-232,o),
(325,-240,o),
(345,-240,cs),
(393,-240,o),
(453.318,-225.751,o),
(490,-197,cs),
(533,-164,o),
(567,-112,o),
(586,-5,cs),
(693,602,l),
(778,644,l),
(781,660,l),
(520,660,l),
(517,644,l),
(621,602,l),
(546,176,l),
(592,176,l),
(286,660,l),
(91,660,l),
(88,644,l),
(161,602,l),
(65,58,l),
(-22,16,l),
(-25,0,l)
);
}
);
userData = {
com.typemytype.robofont.layerData = {
mask = {
anchors = (
);
components = (
);
contours = (
{
points = (
{
segmentType = line;
smooth = 0;
x = -25;
y = 0;
},
{
segmentType = line;
smooth = 0;
x = 238;
y = 0;
},
{
segmentType = line;
smooth = 0;
x = 241;
y = 16;
},
{
segmentType = line;
smooth = 0;
x = 137;
y = 58;
},
{
segmentType = line;
smooth = 0;
x = 214;
y = 495;
},
{
segmentType = line;
smooth = 0;
x = 186;
y = 495;
},
{
segmentType = line;
smooth = 0;
x = 529;
y = -38;
},
{
segmentType = line;
smooth = 0;
x = 519;
y = 22;
},
{
segmentType = line;
smooth = 1;
x = 514;
y = -6;
},
{
smooth = 0;
x = 497.21418;
y = -100;
},
{
smooth = 0;
x = 476;
y = -117;
},
{
segmentType = curve;
smooth = 1;
x = 388;
y = -117;
},
{
segmentType = line;
smooth = 0;
x = 350;
y = -117;
},
{
segmentType = line;
smooth = 0;
x = 342;
y = -123;
},
{
segmentType = line;
smooth = 1;
x = 322;
y = -211;
},
{
smooth = 0;
x = 317;
y = -232;
},
{
smooth = 0;
x = 325;
y = -240;
},
{
segmentType = curve;
smooth = 1;
x = 345;
y = -240;
},
{
smooth = 0;
x = 393;
y = -240;
},
{
smooth = 0;
x = 453.31773;
y = -225.75097;
},
{
segmentType = curve;
smooth = 1;
x = 490;
y = -197;
},
{
smooth = 0;
x = 533;
y = -164;
},
{
smooth = 0;
x = 567;
y = -112;
},
{
segmentType = curve;
smooth = 1;
x = 586;
y = -5;
},
{
segmentType = line;
smooth = 0;
x = 693;
y = 602;
},
{
segmentType = line;
smooth = 0;
x = 778;
y = 644;
},
{
segmentType = line;
smooth = 0;
x = 781;
y = 660;
},
{
segmentType = line;
smooth = 0;
x = 520;
y = 660;
},
{
segmentType = line;
smooth = 0;
x = 517;
y = 644;
},
{
segmentType = line;
smooth = 0;
x = 621;
y = 602;
},
{
segmentType = line;
smooth = 0;
x = 546;
y = 176;
},
{
segmentType = line;
smooth = 0;
x = 592;
y = 176;
},
{
segmentType = line;
smooth = 0;
x = 286;
y = 660;
},
{
segmentType = line;
smooth = 0;
x = 91;
y = 660;
},
{
segmentType = line;
smooth = 0;
x = 88;
y = 644;
},
{
segmentType = line;
smooth = 0;
x = 161;
y = 602;
},
{
segmentType = line;
smooth = 0;
x = 65;
y = 58;
},
{
segmentType = line;
smooth = 0;
x = -22;
y = 16;
}
);
}
);
lib = {
};
name = Eng;
unicodes = (
);
width = 740;
};
};
};
width = 740;
}
);
unicode = 330;
},
{
color = 5;
glyphname = O;
kernLeft = kern_O2;
kernRight = kern_O1;
layers = (
{
anchors = (
{
name = bottom;
pos = (326,0);
},
{
name = right;
pos = (360,0);
},
{
name = top;
pos = (450,710);
}
);
layerId = master01;
shapes = (
{
closed = 1;
nodes = (
(551,-10,o),
(706,182,o),
(706,378,cs),
(706,551,o),
(598,671,o),
(433,671,cs),
(219,671,o),
(60,483,o),
(60,282,cs),
(60,109,o),
(168,-10,o),
(332,-10,cs)
);
},
{
closed = 1;
nodes = (
(237,38,o),
(151,142,o),
(151,292,cs),
(151,478,o),
(257,625,o),
(406,625,cs),
(531,625,o),
(616,521,o),
(616,370,cs),
(616,190,o),
(512,38,o),
(364,38,cs)
);
}
);
userData = {
com.typemytype.robofont.layerData = {
mask = {
anchors = (
{
name = top;
x = 450;
y = 710;
},
{
name = right;
x = 360;
y = 0;
},
{
name = bottom;
x = 326;
y = 0;
}
);
components = (
);
contours = (
{
points = (
{
segmentType = curve;
smooth = 1;
x = 332;
y = -10;
},
{
smooth = 0;
x = 551;
y = -10;
},
{
smooth = 0;
x = 706;
y = 182;
},
{
segmentType = curve;
smooth = 1;
x = 706;
y = 378;
},
{
smooth = 0;
x = 706;
y = 551;
},
{
smooth = 0;
x = 598;
y = 671;
},
{
segmentType = curve;
smooth = 1;
x = 433;
y = 671;
},
{
smooth = 0;
x = 219;
y = 671;
},
{
smooth = 0;
x = 60;
y = 483;
},
{
segmentType = curve;
smooth = 1;
x = 60;
y = 282;
},
{
smooth = 0;
x = 60;
y = 109;
},
{
smooth = 0;
x = 168;
y = -10;
}
);
},
{
points = (
{
segmentType = curve;
smooth = 1;
x = 364;
y = 38;
},
{
smooth = 0;
x = 237;
y = 38;
},
{
smooth = 0;
x = 151;
y = 142;
},
{
segmentType = curve;
smooth = 1;
x = 151;
y = 292;
},
{
smooth = 0;
x = 151;
y = 478;
},
{
smooth = 0;
x = 257;
y = 625;
},
{
segmentType = curve;
smooth = 1;
x = 406;
y = 625;
},
{
smooth = 0;
x = 531;
y = 625;
},
{
smooth = 0;
x = 616;
y = 521;
},
{
segmentType = curve;
smooth = 1;
x = 616;
y = 370;
},
{
smooth = 0;
x = 616;
y = 190;
},
{
smooth = 0;
x = 512;
y = 38;
}
);
}
);
lib = {
};
name = O;
unicodes = (
);
width = 766;
};
};
};
width = 766;
},
{
anchors = (
{
name = bottom;
pos = (335,0);
},
{
name = right;
pos = (353,0);
},
{
name = top;
pos = (455,710);
}
);
layerId = "48B243E4-A9BC-4CE2-9E97-0DBF8BE24EDB";
shapes = (
{
closed = 1;
nodes = (
(575,-10,o),
(739,166,o),
(739,390,cs),
(739,555,o),
(632,670,o),
(439,670,cs),
(215,670,o),
(40,494,o),
(40,271,cs),
(40,105,o),
(145,-10,o),
(339,-10,cs)
);
},
{
closed = 1;
nodes = (
(263.314,42,o),
(221,125,o),
(221,245,cs),
(221,445,o),
(312.935,617,o),
(431,617,cs),
(526.207,617,o),
(558,535,o),
(558,416,cs),
(558,214,o),
(474.806,42,o),
(349,42,cs)
);
}
);
userData = {
com.typemytype.robofont.layerData = {
mask = {
anchors = (
{
name = top;
x = 455;
y = 710;
},
{
name = right;
x = 353;
y = 0;
},
{
name = bottom;
x = 335;
y = 0;
}
);
components = (
);
contours = (
{
points = (
{
segmentType = curve;
smooth = 1;
x = 339;
y = -10;
},
{
smooth = 0;
x = 575;
y = -10;
},
{
smooth = 0;
x = 739;
y = 166;
},
{
segmentType = curve;
smooth = 1;
x = 739;
y = 390;
},
{
smooth = 0;
x = 739;
y = 555;
},
{
smooth = 0;
x = 632;
y = 670;
},
{
segmentType = curve;
smooth = 1;
x = 439;
y = 670;
},
{
smooth = 0;
x = 215;
y = 670;
},
{
smooth = 0;
x = 40;
y = 494;
},
{
segmentType = curve;
smooth = 1;
x = 40;
y = 271;
},
{
smooth = 0;
x = 40;
y = 105;
},
{
smooth = 0;
x = 145;
y = -10;
}
);
},
{
points = (
{
segmentType = curve;
smooth = 1;
x = 349;
y = 42;
},
{
smooth = 0;
x = 263.31405;
y = 42;
},
{
smooth = 0;
x = 221;
y = 125;
},
{
segmentType = curve;
smooth = 1;
x = 221;
y = 245;
},
{
smooth = 0;
x = 221;
y = 445;
},
{
smooth = 0;
x = 312.93548;
y = 617;
},
{
segmentType = curve;
smooth = 1;
x = 431;
y = 617;
},
{
smooth = 0;
x = 526.20661;
y = 617;
},
{
smooth = 0;
x = 558;
y = 535;
},
{
segmentType = curve;
smooth = 1;
x = 558;
y = 416;
},
{
smooth = 0;
x = 558;
y = 214;
},
{
smooth = 0;
x = 474.80645;
y = 42;
}
);
}
);
lib = {
};
name = O;
unicodes = (
);
width = 779;
};
};
};
width = 779;
}
);
unicode = 79;
},
{
color = 4;
glyphname = Ohorn;
kernLeft = kern_O2;
kernRight = kern_O1;
layers = (
{
anchors = (
{
name = bottom;
pos = (326,0);
},
{
name = right;
pos = (360,0);
},
{
name = top;
pos = (450,710);
}
);
layerId = master01;
shapes = (
{
closed = 1;
nodes = (
(551,-10,o),
(706,182,o),
(706,378,cs),
(706,551,o),
(598,671,o),
(433,671,cs),
(219,671,o),
(60,483,o),
(60,282,cs),
(60,109,o),
(168,-10,o),
(332,-10,cs)
);
},
{
closed = 1;
nodes = (
(237,38,o),
(151,142,o),
(151,292,cs),
(151,478,o),
(257,625,o),
(406,625,cs),
(531,625,o),
(616,521,o),
(616,370,cs),
(616,190,o),
(512,38,o),
(364,38,cs)
);
},
{
closed = 1;
nodes = (
(543,630,o),
(564,624,o),
(596,624,c),
(661,624,o),
(711,678,o),
(711,736,cs),
(711,750,o),
(704,752,o),
(688,752,cs),
(658,752,l),
(651,746,l),
(643,695,ls),
(638,662,o),
(621,642,o),
(583,642,cs),
(564,642,o),
(542,647,o),
(514,660,c),
(508,649,l)
);
}
);
userData = {
com.typemytype.robofont.layerData = {
mask = {
anchors = (
{
name = top;
x = 450;
y = 710;
},
{
name = right;
x = 360;
y = 0;
},
{
name = bottom;
x = 326;
y = 0;
}
);
components = (
);
contours = (
{
points = (
{
segmentType = curve;
smooth = 1;
x = 332;
y = -10;
},
{
smooth = 0;
x = 551;
y = -10;
},
{
smooth = 0;
x = 706;
y = 182;
},
{
segmentType = curve;
smooth = 1;
x = 706;
y = 378;
},
{
smooth = 0;
x = 706;
y = 551;
},
{
smooth = 0;
x = 598;
y = 671;
},
{
segmentType = curve;
smooth = 1;
x = 433;
y = 671;
},
{
smooth = 0;
x = 219;
y = 671;
},
{
smooth = 0;
x = 60;
y = 483;
},
{
segmentType = curve;
smooth = 1;
x = 60;
y = 282;
},
{
smooth = 0;
x = 60;
y = 109;
},
{
smooth = 0;
x = 168;
y = -10;
}
);
},
{
points = (
{
segmentType = curve;
smooth = 1;
x = 364;
y = 38;
},
{
smooth = 0;
x = 237;
y = 38;
},
{
smooth = 0;
x = 151;
y = 142;
},
{
segmentType = curve;
smooth = 1;
x = 151;
y = 292;
},
{
smooth = 0;
x = 151;
y = 478;
},
{
smooth = 0;
x = 257;
y = 625;
},
{
segmentType = curve;
smooth = 1;
x = 406;
y = 625;
},
{
smooth = 0;
x = 531;
y = 625;
},
{
smooth = 0;
x = 616;
y = 521;
},
{
segmentType = curve;
smooth = 1;
x = 616;
y = 370;
},
{
smooth = 0;
x = 616;
y = 190;
},
{
smooth = 0;
x = 512;
y = 38;
}
);
},
{
points = (
{
segmentType = line;
smooth = 0;
x = 508;
y = 649;
},
{
smooth = 0;
x = 543;
y = 630;
},
{
smooth = 0;
x = 564;
y = 624;
},
{
segmentType = curve;
smooth = 0;
x = 596;
y = 624;
},
{
smooth = 0;
x = 661;
y = 624;
},
{
smooth = 0;
x = 711;
y = 678;
},
{
segmentType = curve;
smooth = 1;
x = 711;
y = 736;
},
{
smooth = 0;
x = 711;
y = 750;
},
{
smooth = 0;
x = 704;
y = 752;
},
{
segmentType = curve;
smooth = 1;
x = 688;
y = 752;
},
{
segmentType = line;
smooth = 0;
x = 658;
y = 752;
},
{
segmentType = line;
smooth = 0;
x = 651;
y = 746;
},
{
segmentType = line;
smooth = 1;
x = 643;
y = 695;
},
{
smooth = 0;
x = 638;
y = 662;
},
{
smooth = 0;
x = 621;
y = 642;
},
{
segmentType = curve;
smooth = 1;
x = 583;
y = 642;
},
{
smooth = 0;
x = 564;
y = 642;
},
{
smooth = 0;
x = 542;
y = 647;
},
{
segmentType = curve;
smooth = 0;
x = 514;
y = 660;
}
);
}
);
lib = {
};
name = Ohorn;
unicodes = (
);
width = 766;
};
};
};
width = 766;
},
{
anchors = (
{
name = bottom;
pos = (335,0);
},
{
name = right;
pos = (353,0);
},
{
name = top;
pos = (455,710);
}
);
layerId = "48B243E4-A9BC-4CE2-9E97-0DBF8BE24EDB";
shapes = (
{
closed = 1;
nodes = (
(575,-10,o),
(739,166,o),
(739,390,cs),
(739,555,o),
(632,670,o),
(439,670,cs),
(215,670,o),
(40,494,o),
(40,271,cs),
(40,105,o),
(145,-10,o),
(339,-10,cs)
);
},
{
closed = 1;
nodes = (
(263,42,o),
(221,125,o),
(221,245,cs),
(221,445,o),
(313,617,o),
(431,617,cs),
(526,617,o),
(558,535,o),
(558,416,cs),
(558,214,o),
(475,42,o),
(349,42,cs)
);
},
{
closed = 1;
nodes = (
(552,615,o),
(597,608,o),
(643,608,cs),
(751,608,o),
(805,666,o),
(805,734,cs),
(805,750,o),
(798,753,o),
(781,753,cs),
(711,753,l),
(704,747,l),
(697,701,ls),
(691,664,o),
(667,641,o),
(608,641,cs),
(586,641,o),
(563,643,o),
(528,660,c),
(515,637,l)
);
}
);
userData = {
com.typemytype.robofont.layerData = {
mask = {
anchors = (
{
name = top;
x = 455;
y = 710;
},
{
name = right;
x = 353;
y = 0;
},
{
name = bottom;
x = 335;
y = 0;
}
);
components = (
);
contours = (
{
points = (
{
segmentType = curve;
smooth = 1;
x = 339;
y = -10;
},
{
smooth = 0;
x = 575;
y = -10;
},
{
smooth = 0;
x = 739;
y = 166;
},
{
segmentType = curve;
smooth = 1;
x = 739;
y = 390;
},
{
smooth = 0;
x = 739;
y = 555;
},
{
smooth = 0;
x = 632;
y = 670;
},
{
segmentType = curve;
smooth = 1;
x = 439;
y = 670;
},
{
smooth = 0;
x = 215;
y = 670;
},
{
smooth = 0;
x = 40;
y = 494;
},
{
segmentType = curve;
smooth = 1;
x = 40;
y = 271;
},
{
smooth = 0;
x = 40;
y = 105;
},
{
smooth = 0;
x = 145;
y = -10;
}
);
},
{
points = (
{
segmentType = curve;
smooth = 1;
x = 349;
y = 42;
},
{
smooth = 0;
x = 263;
y = 42;
},
{
smooth = 0;
x = 221;
y = 125;
},
{
segmentType = curve;
smooth = 1;
x = 221;
y = 245;
},
{
smooth = 0;
x = 221;
y = 445;
},
{
smooth = 0;
x = 313;
y = 617;
},
{
segmentType = curve;
smooth = 1;
x = 431;
y = 617;
},
{
smooth = 0;
x = 526;
y = 617;
},
{
smooth = 0;
x = 558;
y = 535;
},
{
segmentType = curve;
smooth = 1;
x = 558;
y = 416;
},
{
smooth = 0;
x = 558;
y = 214;
},
{
smooth = 0;
x = 475;
y = 42;
}
);
},
{
points = (
{
segmentType = line;
smooth = 0;
x = 515;
y = 637;
},
{
smooth = 0;
x = 552;
y = 615;
},
{
smooth = 0;
x = 597;
y = 608;
},
{
segmentType = curve;
smooth = 1;
x = 643;
y = 608;
},
{
smooth = 0;
x = 751;
y = 608;
},
{
smooth = 0;
x = 805;
y = 666;
},
{
segmentType = curve;
smooth = 1;
x = 805;
y = 734;
},
{
smooth = 0;
x = 805;
y = 750;
},
{
smooth = 0;
x = 798;
y = 753;
},
{
segmentType = curve;
smooth = 1;
x = 781;
y = 753;
},
{
segmentType = line;
smooth = 0;
x = 711;
y = 753;
},
{
segmentType = line;
smooth = 0;
x = 704;
y = 747;
},
{
segmentType = line;
smooth = 1;
x = 697;
y = 701;
},
{
smooth = 0;
x = 691;
y = 664;
},
{
smooth = 0;
x = 667;
y = 641;
},
{
segmentType = curve;
smooth = 1;
x = 608;
y = 641;
},
{
smooth = 0;
x = 586;
y = 641;
},
{
smooth = 0;
x = 563;
y = 643;
},
{
segmentType = curve;
smooth = 0;
x = 528;
y = 660;
}
);
}
);
lib = {
};
name = Ohorn;
unicodes = (
);
width = 779;
};
};
};
width = 779;
}
);
unicode = 416;
},
{
color = 5;
glyphname = Oslash;
kernLeft = kern_O2;
kernRight = kern_O1;
layers = (
{
anchors = (
{
name = bottom;
pos = (326,0);
},
{
name = right;
pos = (360,0);
},
{
name = top;
pos = (450,710);
}
);
layerId = master01;
shapes = (
{
closed = 1;
nodes = (
(551,-10,o),
(706,182,o),
(706,378,cs),
(706,551,o),
(598,671,o),
(433,671,cs),
(219,671,o),
(60,483,o),
(60,282,cs),
(60,109,o),
(168,-10,o),
(332,-10,cs)
);
},
{
closed = 1;
nodes = (
(237,38,o),
(151,142,o),
(151,292,cs),
(151,478,o),
(257,625,o),
(406,625,cs),
(531,625,o),
(616,521,o),
(616,370,cs),
(616,190,o),
(512,38,o),
(364,38,cs)
);
},
{
closed = 1;
nodes = (
(67,-10,l),
(764,670,l),
(699,670,l),
(2,-10,l)
);
}
);
userData = {
com.typemytype.robofont.layerData = {
mask = {
anchors = (
{
name = top;
x = 450;
y = 710;
},
{
name = right;
x = 360;
y = 0;
},
{
name = bottom;
x = 326;
y = 0;
}
);
components = (
);
contours = (
{
points = (
{
segmentType = curve;
smooth = 1;
x = 332;
y = -10;
},
{
smooth = 0;
x = 551;
y = -10;
},
{
smooth = 0;
x = 706;
y = 182;
},
{
segmentType = curve;
smooth = 1;
x = 706;
y = 378;
},
{
smooth = 0;
x = 706;
y = 551;
},
{
smooth = 0;
x = 598;
y = 671;
},
{
segmentType = curve;
smooth = 1;
x = 433;
y = 671;
},
{
smooth = 0;
x = 219;
y = 671;
},
{
smooth = 0;
x = 60;
y = 483;
},
{
segmentType = curve;
smooth = 1;
x = 60;
y = 282;
},
{
smooth = 0;
x = 60;
y = 109;
},
{
smooth = 0;
x = 168;
y = -10;
}
);
},
{
points = (
{
segmentType = curve;
smooth = 1;
x = 364;
y = 38;
},
{
smooth = 0;
x = 237;
y = 38;
},
{
smooth = 0;
x = 151;
y = 142;
},
{
segmentType = curve;
smooth = 1;
x = 151;
y = 292;
},
{
smooth = 0;
x = 151;
y = 478;
},
{
smooth = 0;
x = 257;
y = 625;
},
{
segmentType = curve;
smooth = 1;
x = 406;
y = 625;
},
{
smooth = 0;
x = 531;
y = 625;
},
{
smooth = 0;
x = 616;
y = 521;
},
{
segmentType = curve;
smooth = 1;
x = 616;
y = 370;
},
{
smooth = 0;
x = 616;
y = 190;
},
{
smooth = 0;
x = 512;
y = 38;
}
);
},
{
points = (
{
segmentType = line;
smooth = 0;
x = 2;
y = -10;
},
{
segmentType = line;
smooth = 0;
x = 67;
y = -10;
},
{
segmentType = line;
smooth = 0;
x = 764;
y = 670;
},
{
segmentType = line;
smooth = 0;
x = 699;
y = 670;
}
);
}
);
lib = {
};
name = Oslash;
unicodes = (
);
width = 766;
};
};
};
width = 766;
},
{
anchors = (
{
name = bottom;
pos = (326,0);
},
{
name = right;
pos = (360,0);
},
{
name = top;
pos = (455,710);
}
);
layerId = "48B243E4-A9BC-4CE2-9E97-0DBF8BE24EDB";
shapes = (
{
closed = 1;
nodes = (
(575,-10,o),
(739,166,o),
(739,390,cs),
(739,555,o),
(633,670,o),
(440,670,cs),
(216,670,o),
(40,494,o),
(40,271,cs),
(40,105,o),
(145,-10,o),
(339,-10,cs)
);
},
{
closed = 1;
nodes = (
(263,42,o),
(221,125,o),
(221,245,cs),
(221,445,o),
(313,617,o),
(431,617,cs),
(526,617,o),
(558,535,o),
(558,416,cs),
(558,214,o),
(475,42,o),
(349,42,cs)
);
},
{
closed = 1;
nodes = (
(64,-10,l),
(791,670,l),
(715,670,l),
(-12,-10,l)
);
}
);
userData = {
com.typemytype.robofont.layerData = {
mask = {
anchors = (
{
name = top;
x = 455;
y = 710;
}
);
components = (
);
contours = (
{
points = (
{
segmentType = curve;
smooth = 1;
x = 339;
y = -10;
},
{
smooth = 0;
x = 575;
y = -10;
},
{
smooth = 0;
x = 739;
y = 166;
},
{
segmentType = curve;
smooth = 1;
x = 739;
y = 390;
},
{
smooth = 0;
x = 739;
y = 555;
},
{
smooth = 0;
x = 633;
y = 670;
},
{
segmentType = curve;
smooth = 1;
x = 440;
y = 670;
},
{
smooth = 0;
x = 216;
y = 670;
},
{
smooth = 0;
x = 40;
y = 494;
},
{
segmentType = curve;
smooth = 1;
x = 40;
y = 271;
},
{
smooth = 0;
x = 40;
y = 105;
},
{
smooth = 0;
x = 145;
y = -10;
}
);
},
{
points = (
{
segmentType = curve;
smooth = 1;
x = 349;
y = 42;
},
{
smooth = 0;
x = 263;
y = 42;
},
{
smooth = 0;
x = 221;
y = 125;
},
{
segmentType = curve;
smooth = 1;
x = 221;
y = 245;
},
{
smooth = 0;
x = 221;
y = 445;
},
{
smooth = 0;
x = 313;
y = 617;
},
{
segmentType = curve;
smooth = 1;
x = 431;
y = 617;
},
{
smooth = 0;
x = 526;
y = 617;
},
{
smooth = 0;
x = 558;
y = 535;
},
{
segmentType = curve;
smooth = 1;
x = 558;
y = 416;
},
{
smooth = 0;
x = 558;
y = 214;
},
{
smooth = 0;
x = 475;
y = 42;
}
);
},
{
points = (
{
segmentType = line;
smooth = 0;
x = -12;
y = -10;
},
{
segmentType = line;
smooth = 0;
x = 64;
y = -10;
},
{
segmentType = line;
smooth = 0;
x = 791;
y = 670;
},
{
segmentType = line;
smooth = 0;
x = 715;
y = 670;
}
);
}
);
lib = {
};
name = Oslash;
unicodes = (
);
width = 779;
};
};
};
width = 779;
}
);
unicode = 216;
},
{
color = 5;
glyphname = OE;
kernLeft = kern_O2;
kernRight = kern_E1;
layers = (
{
layerId = master01;
shapes = (
{
closed = 1;
nodes = (
(498,0,l),
(615,660,l),
(446,660,ls),
(212,660,o),
(60,502,o),
(60,286,cs),
(60,114,o),
(155,0,o),
(387,0,cs)
);
},
{
closed = 1;
nodes = (
(231,50,o),
(153,127,o),
(153,289,cs),
(153,487,o),
(258,610,o),
(442,610,cs),
(542,610,l),
(523,626,l),
(419,34,l),
(452,50,l),
(389,50,ls)
);
},
{
closed = 1;
nodes = (
(882,488,l),
(913,660,l),
(564,660,l),
(555,610,l),
(829,610,l),
(866,488,l)
);
},
{
closed = 1;
nodes = (
(763,232,l),
(802,451,l),
(786,451,l),
(724,366,l),
(520,366,l),
(511,316,l),
(716,316,l),
(747,232,l)
);
},
{
closed = 1;
nodes = (
(870,182,l),
(854,182,l),
(774,50,l),
(484,50,l),
(475,0,l),
(838,0,l)
);
}
);
userData = {
com.typemytype.robofont.layerData = {
mask = {
anchors = (
);
components = (
);
contours = (
{
points = (
{
segmentType = curve;
smooth = 1;
x = 387;
y = 0;
},
{
segmentType = line;
smooth = 0;
x = 498;
y = 0;
},
{
segmentType = line;
smooth = 0;
x = 615;
y = 660;
},
{
segmentType = line;
smooth = 1;
x = 446;
y = 660;
},
{
smooth = 0;
x = 212;
y = 660;
},
{
smooth = 0;
x = 60;
y = 502;
},
{
segmentType = curve;
smooth = 1;
x = 60;
y = 286;
},
{
smooth = 0;
x = 60;
y = 114;
},
{
smooth = 0;
x = 155;
y = 0;
}
);
},
{
points = (
{
segmentType = line;
smooth = 1;
x = 389;
y = 50;
},
{
smooth = 0;
x = 231;
y = 50;
},
{
smooth = 0;
x = 153;
y = 127;
},
{
segmentType = curve;
smooth = 1;
x = 153;
y = 289;
},
{
smooth = 0;
x = 153;
y = 487;
},
{
smooth = 0;
x = 258;
y = 610;
},
{
segmentType = curve;
smooth = 1;
x = 442;
y = 610;
},
{
segmentType = line;
smooth = 0;
x = 542;
y = 610;
},
{
segmentType = line;
smooth = 0;
x = 523;
y = 626;
},
{
segmentType = line;
smooth = 0;
x = 419;
y = 34;
},
{
segmentType = line;
smooth = 0;
x = 452;
y = 50;
}
);
},
{
points = (
{
segmentType = line;
smooth = 0;
x = 866;
y = 488;
},
{
segmentType = line;
smooth = 0;
x = 882;
y = 488;
},
{
segmentType = line;
smooth = 0;
x = 913;
y = 660;
},
{
segmentType = line;
smooth = 0;
x = 564;
y = 660;
},
{
segmentType = line;
smooth = 0;
x = 555;
y = 610;
},
{
segmentType = line;
smooth = 0;
x = 829;
y = 610;
}
);
},
{
points = (
{
segmentType = line;
smooth = 0;
x = 747;
y = 232;
},
{
segmentType = line;
smooth = 0;
x = 763;
y = 232;
},
{
segmentType = line;
smooth = 0;
x = 802;
y = 451;
},
{
segmentType = line;
smooth = 0;
x = 786;
y = 451;
},
{
segmentType = line;
smooth = 0;
x = 724;
y = 366;
},
{
segmentType = line;
smooth = 0;
x = 520;
y = 366;
},
{
segmentType = line;
smooth = 0;
x = 511;
y = 316;
},
{
segmentType = line;
smooth = 0;
x = 716;
y = 316;
}
);
},
{
points = (
{
segmentType = line;
smooth = 0;
x = 838;
y = 0;
},
{
segmentType = line;
smooth = 0;
x = 870;
y = 182;
},
{
segmentType = line;
smooth = 0;
x = 854;
y = 182;
},
{
segmentType = line;
smooth = 0;
x = 774;
y = 50;
},
{
segmentType = line;
smooth = 0;
x = 484;
y = 50;
},
{
segmentType = line;
smooth = 0;
x = 475;
y = 0;
}
);
}
);
lib = {
};
name = OE;
unicodes = (
);
width = 948;
};
};
};
width = 948;
},
{
layerId = "48B243E4-A9BC-4CE2-9E97-0DBF8BE24EDB";
shapes = (
{
closed = 1;
nodes = (
(607,0,l),
(723,660,l),
(472,660,ls),
(210,660,o),
(40,500,o),
(40,285,cs),
(40,113,o),
(162,0,o),
(382,0,c)
);
},
{
closed = 1;
nodes = (
(290,53,o),
(216,128,o),
(216,273,cs),
(216,474,o),
(311,612,o),
(479,612,cs),
(585,612,l),
(548,638,l),
(442,34,l),
(474,53,l),
(409,53,ls)
);
},
{
closed = 1;
nodes = (
(965,486,l),
(995,660,l),
(631,660,l),
(621,605,l),
(897,605,l),
(950,486,l)
);
},
{
closed = 1;
nodes = (
(845,227,l),
(886,456,l),
(870,456,l),
(792,368,l),
(587,368,l),
(577,313,l),
(782,313,l),
(829,227,l)
);
},
{
closed = 1;
nodes = (
(944,219,l),
(928,219,l),
(817,55,l),
(547,55,l),
(540,0,l),
(905,0,l)
);
}
);
userData = {
com.typemytype.robofont.layerData = {
mask = {
anchors = (
);
components = (
);
contours = (
{
points = (
{
segmentType = curve;
smooth = 0;
x = 382;
y = 0;
},
{
segmentType = line;
smooth = 0;
x = 607;
y = 0;
},
{
segmentType = line;
smooth = 0;
x = 723;
y = 660;
},
{
segmentType = line;
smooth = 1;
x = 472;
y = 660;
},
{
smooth = 0;
x = 210;
y = 660;
},
{
smooth = 0;
x = 40;
y = 500;
},
{
segmentType = curve;
smooth = 1;
x = 40;
y = 285;
},
{
smooth = 0;
x = 40;
y = 113;
},
{
smooth = 0;
x = 162;
y = 0;
}
);
},
{
points = (
{
segmentType = line;
smooth = 1;
x = 409;
y = 53;
},
{
smooth = 0;
x = 290;
y = 53;
},
{
smooth = 0;
x = 216;
y = 128;
},
{
segmentType = curve;
smooth = 1;
x = 216;
y = 273;
},
{
smooth = 0;
x = 216;
y = 474;
},
{
smooth = 0;
x = 311;
y = 612;
},
{
segmentType = curve;
smooth = 1;
x = 479;
y = 612;
},
{
segmentType = line;
smooth = 0;
x = 585;
y = 612;
},
{
segmentType = line;
smooth = 0;
x = 548;
y = 638;
},
{
segmentType = line;
smooth = 0;
x = 442;
y = 34;
},
{
segmentType = line;
smooth = 0;
x = 474;
y = 53;
}
);
},
{
points = (
{
segmentType = line;
smooth = 0;
x = 950;
y = 486;
},
{
segmentType = line;
smooth = 0;
x = 965;
y = 486;
},
{
segmentType = line;
smooth = 0;
x = 995;
y = 660;
},
{
segmentType = line;
smooth = 0;
x = 631;
y = 660;
},
{
segmentType = line;
smooth = 0;
x = 621;
y = 605;
},
{
segmentType = line;
smooth = 0;
x = 897;
y = 605;
}
);
},
{
points = (
{
segmentType = line;
smooth = 0;
x = 829;
y = 227;
},
{
segmentType = line;
smooth = 0;
x = 845;
y = 227;
},
{
segmentType = line;
smooth = 0;
x = 886;
y = 456;
},
{
segmentType = line;
smooth = 0;
x = 870;
y = 456;
},
{
segmentType = line;
smooth = 0;
x = 792;
y = 368;
},
{
segmentType = line;
smooth = 0;
x = 587;
y = 368;
},
{
segmentType = line;
smooth = 0;
x = 577;
y = 313;
},
{
segmentType = line;
smooth = 0;
x = 782;
y = 313;
}
);
},
{
points = (
{
segmentType = line;
smooth = 0;
x = 905;
y = 0;
},
{
segmentType = line;
smooth = 0;
x = 944;
y = 219;
},
{
segmentType = line;
smooth = 0;
x = 928;
y = 219;
},
{
segmentType = line;
smooth = 0;
x = 817;
y = 55;
},
{
segmentType = line;
smooth = 0;
x = 547;
y = 55;
},
{
segmentType = line;
smooth = 0;
x = 540;
y = 0;
}
);
}
);
lib = {
};
name = OE;
unicodes = (
);
width = 1010;
};
};
};
width = 1010;
}
);
unicode = 338;
},
{
color = 5;
glyphname = P;
kernLeft = kern_H2;
kernRight = kern_P1;
layers = (
{
layerId = master01;
shapes = (
{
closed = 1;
nodes = (
(257,0,l),
(260,16,l),
(181,56,l),
(279,610,l),
(340,610,ls),
(440,610,o),
(497,574,o),
(497,490,cs),
(497,404,o),
(442,343,o),
(326,343,cs),
(209,343,l),
(199,293,l),
(303,293,ls),
(482,293,o),
(591,392,o),
(591,497,cs),
(591,610,o),
(493,660,o),
(345,660,cs),
(126,660,l),
(123,644,l),
(192,604,l),
(96,56,l),
(13,16,l),
(10,0,l)
);
}
);
userData = {
com.typemytype.robofont.layerData = {
mask = {
anchors = (
);
components = (
);
contours = (
{
points = (
{
segmentType = line;
smooth = 0;
x = 10;
y = 0;
},
{
segmentType = line;
smooth = 0;
x = 257;
y = 0;
},
{
segmentType = line;
smooth = 0;
x = 260;
y = 16;
},
{
segmentType = line;
smooth = 0;
x = 181;
y = 56;
},
{
segmentType = line;
smooth = 0;
x = 279;
y = 610;
},
{
segmentType = line;
smooth = 1;
x = 340;
y = 610;
},
{
smooth = 0;
x = 440;
y = 610;
},
{
smooth = 0;
x = 497;
y = 574;
},
{
segmentType = curve;
smooth = 1;
x = 497;
y = 490;
},
{
smooth = 0;
x = 497;
y = 404;
},
{
smooth = 0;
x = 442;
y = 343;
},
{
segmentType = curve;
smooth = 1;
x = 326;
y = 343;
},
{
segmentType = line;
smooth = 0;
x = 209;
y = 343;
},
{
segmentType = line;
smooth = 0;
x = 199;
y = 293;
},
{
segmentType = line;
smooth = 1;
x = 303;
y = 293;
},
{
smooth = 0;
x = 482;
y = 293;
},
{
smooth = 0;
x = 591;
y = 392;
},
{
segmentType = curve;
smooth = 1;
x = 591;
y = 497;
},
{
smooth = 0;
x = 591;
y = 610;
},
{
smooth = 0;
x = 493;
y = 660;
},
{
segmentType = curve;
smooth = 1;
x = 345;
y = 660;
},
{
segmentType = line;
smooth = 0;
x = 126;
y = 660;
},
{
segmentType = line;
smooth = 0;
x = 123;
y = 644;
},
{
segmentType = line;
smooth = 0;
x = 192;
y = 604;
},
{
segmentType = line;
smooth = 0;
x = 96;
y = 56;
},
{
segmentType = line;
smooth = 0;
x = 13;
y = 16;
}
);
}
);
lib = {
};
name = P;
unicodes = (
);
width = 621;
};
};
};
width = 621;
},
{
layerId = "48B243E4-A9BC-4CE2-9E97-0DBF8BE24EDB";
shapes = (
{
closed = 1;
nodes = (
(322,0,l),
(325,16,l),
(231,58,l),
(326,605,l),
(342,605,ls),
(419,605,o),
(461,566,o),
(461,499,cs),
(461,412,o),
(417,341,o),
(316,341,cs),
(173,341,l),
(163,296,l),
(303,296,ls),
(536,296,o),
(641,389,o),
(641,504,cs),
(641,606,o),
(562,660,o),
(383,660,cs),
(86,660,l),
(83,644,l),
(156,602,l),
(60,58,l),
(-27,16,l),
(-30,0,l)
);
}
);
userData = {
com.typemytype.robofont.layerData = {
mask = {
anchors = (
);
components = (
);
contours = (
{
points = (
{
segmentType = line;
smooth = 0;
x = -30;
y = 0;
},
{
segmentType = line;
smooth = 0;
x = 322;
y = 0;
},
{
segmentType = line;
smooth = 0;
x = 325;
y = 16;
},
{
segmentType = line;
smooth = 0;
x = 231;
y = 58;
},
{
segmentType = line;
smooth = 0;
x = 326;
y = 605;
},
{
segmentType = line;
smooth = 1;
x = 342;
y = 605;
},
{
smooth = 0;
x = 419;
y = 605;
},
{
smooth = 0;
x = 461;
y = 566;
},
{
segmentType = curve;
smooth = 1;
x = 461;
y = 499;
},
{
smooth = 0;
x = 461;
y = 412;
},
{
smooth = 0;
x = 417;
y = 341;
},
{
segmentType = curve;
smooth = 1;
x = 316;
y = 341;
},
{
segmentType = line;
smooth = 0;
x = 173;
y = 341;
},
{
segmentType = line;
smooth = 0;
x = 163;
y = 296;
},
{
segmentType = line;
smooth = 1;
x = 303;
y = 296;
},
{
smooth = 0;
x = 536;
y = 296;
},
{
smooth = 0;
x = 641;
y = 389;
},
{
segmentType = curve;
smooth = 1;
x = 641;
y = 504;
},
{
smooth = 0;
x = 641;
y = 606;
},
{
smooth = 0;
x = 562;
y = 660;
},
{
segmentType = curve;
smooth = 1;
x = 383;
y = 660;
},
{
segmentType = line;
smooth = 0;
x = 86;
y = 660;
},
{
segmentType = line;
smooth = 0;
x = 83;
y = 644;
},
{
segmentType = line;
smooth = 0;
x = 156;
y = 602;
},
{
segmentType = line;
smooth = 0;
x = 60;
y = 58;
},
{
segmentType = line;
smooth = 0;
x = -27;
y = 16;
}
);
}
);
lib = {
};
name = P;
unicodes = (
);
width = 646;
};
};
};
width = 646;
}
);
unicode = 80;
},
{
color = 5;
glyphname = Thorn;
kernLeft = kern_H2;
kernRight = kern_Thorn1;
layers = (
{
layerId = master01;
shapes = (
{
closed = 1;
nodes = (
(319,478,ls),
(419,478,o),
(476,442,o),
(476,358,cs),
(476,272,o),
(421,211,o),
(305,211,cs),
(188,211,l),
(178,161,l),
(282,161,ls),
(461,161,o),
(570,260,o),
(570,365,cs),
(570,478,o),
(472,528,o),
(324,528,cs),
(244,528,l),
(230,478,l)
);
},
{
closed = 1;
nodes = (
(123,660,l),
(120,644,l),
(192,604,l),
(96,56,l),
(13,16,l),
(10,0,l),
(255,0,l),
(258,16,l),
(181,56,l),
(278,604,l),
(359,644,l),
(362,660,l)
);
}
);
userData = {
com.typemytype.robofont.layerData = {
mask = {
anchors = (
);
components = (
);
contours = (
{
points = (
{
segmentType = line;
smooth = 0;
x = 230;
y = 478;
},
{
segmentType = line;
smooth = 1;
x = 319;
y = 478;
},
{
smooth = 0;
x = 419;
y = 478;
},
{
smooth = 0;
x = 476;
y = 442;
},
{
segmentType = curve;
smooth = 1;
x = 476;
y = 358;
},
{
smooth = 0;
x = 476;
y = 272;
},
{
smooth = 0;
x = 421;
y = 211;
},
{
segmentType = curve;
smooth = 1;
x = 305;
y = 211;
},
{
segmentType = line;
smooth = 0;
x = 188;
y = 211;
},
{
segmentType = line;
smooth = 0;
x = 178;
y = 161;
},
{
segmentType = line;
smooth = 1;
x = 282;
y = 161;
},
{
smooth = 0;
x = 461;
y = 161;
},
{
smooth = 0;
x = 570;
y = 260;
},
{
segmentType = curve;
smooth = 1;
x = 570;
y = 365;
},
{
smooth = 0;
x = 570;
y = 478;
},
{
smooth = 0;
x = 472;
y = 528;
},
{
segmentType = curve;
smooth = 1;
x = 324;
y = 528;
},
{
segmentType = line;
smooth = 0;
x = 244;
y = 528;
}
);
},
{
points = (
{
segmentType = line;
smooth = 0;
x = 362;
y = 660;
},
{
segmentType = line;
smooth = 0;
x = 123;
y = 660;
},
{
segmentType = line;
smooth = 0;
x = 120;
y = 644;
},
{
segmentType = line;
smooth = 0;
x = 192;
y = 604;
},
{
segmentType = line;
smooth = 0;
x = 96;
y = 56;
},
{
segmentType = line;
smooth = 0;
x = 13;
y = 16;
},
{
segmentType = line;
smooth = 0;
x = 10;
y = 0;
},
{
segmentType = line;
smooth = 0;
x = 255;
y = 0;
},
{
segmentType = line;
smooth = 0;
x = 258;
y = 16;
},
{
segmentType = line;
smooth = 0;
x = 181;
y = 56;
},
{
segmentType = line;
smooth = 0;
x = 278;
y = 604;
},
{
segmentType = line;
smooth = 0;
x = 359;
y = 644;
}
);
}
);
lib = {
};
name = Thorn;
unicodes = (
);
width = 621;
};
};
};
width = 621;
},
{
layerId = "48B243E4-A9BC-4CE2-9E97-0DBF8BE24EDB";
shapes = (
{
closed = 1;
nodes = (
(320,471,ls),
(397,471,o),
(439,432,o),
(439,365,cs),
(439,278,o),
(395,207,o),
(294,207,cs),
(151,207,l),
(141,162,l),
(281,162,ls),
(514,162,o),
(619,255,o),
(619,370,cs),
(619,472,o),
(540,526,o),
(361,526,cs),
(214,526,l),
(201,471,l)
);
},
{
closed = 1;
nodes = (
(86,660,l),
(83,644,l),
(156,602,l),
(60,58,l),
(-27,16,l),
(-30,0,l),
(301,0,l),
(304,16,l),
(231,58,l),
(326,602,l),
(413,644,l),
(416,660,l)
);
}
);
userData = {
com.typemytype.robofont.layerData = {
mask = {
anchors = (
);
components = (
);
contours = (
{
points = (
{
segmentType = line;
smooth = 0;
x = 201;
y = 471;
},
{
segmentType = line;
smooth = 1;
x = 320;
y = 471;
},
{
smooth = 0;
x = 397;
y = 471;
},
{
smooth = 0;
x = 439;
y = 432;
},
{
segmentType = curve;
smooth = 1;
x = 439;
y = 365;
},
{
smooth = 0;
x = 439;
y = 278;
},
{
smooth = 0;
x = 395;
y = 207;
},
{
segmentType = curve;
smooth = 1;
x = 294;
y = 207;
},
{
segmentType = line;
smooth = 0;
x = 151;
y = 207;
},
{
segmentType = line;
smooth = 0;
x = 141;
y = 162;
},
{
segmentType = line;
smooth = 1;
x = 281;
y = 162;
},
{
smooth = 0;
x = 514;
y = 162;
},
{
smooth = 0;
x = 619;
y = 255;
},
{
segmentType = curve;
smooth = 1;
x = 619;
y = 370;
},
{
smooth = 0;
x = 619;
y = 472;
},
{
smooth = 0;
x = 540;
y = 526;
},
{
segmentType = curve;
smooth = 1;
x = 361;
y = 526;
},
{
segmentType = line;
smooth = 0;
x = 214;
y = 526;
}
);
},
{
points = (
{
segmentType = line;
smooth = 0;
x = 416;
y = 660;
},
{
segmentType = line;
smooth = 0;
x = 86;
y = 660;
},
{
segmentType = line;
smooth = 0;
x = 83;
y = 644;
},
{
segmentType = line;
smooth = 0;
x = 156;
y = 602;
},
{
segmentType = line;
smooth = 0;
x = 60;
y = 58;
},
{
segmentType = line;
smooth = 0;
x = -27;
y = 16;
},
{
segmentType = line;
smooth = 0;
x = -30;
y = 0;
},
{
segmentType = line;
smooth = 0;
x = 301;
y = 0;
},
{
segmentType = line;
smooth = 0;
x = 304;
y = 16;
},
{
segmentType = line;
smooth = 0;
x = 231;
y = 58;
},
{
segmentType = line;
smooth = 0;
x = 326;
y = 602;
},
{
segmentType = line;
smooth = 0;
x = 413;
y = 644;
}
);
}
);
lib = {
};
name = Thorn;
unicodes = (
);
width = 626;
};
};
};
width = 626;
}
);
unicode = 222;
},
{
color = 5;
glyphname = Q;
kernLeft = kern_O2;
kernRight = kern_O1;
layers = (
{
layerId = master01;
shapes = (
{
closed = 1;
nodes = (
(551,-10,o),
(706,182,o),
(706,378,cs),
(706,551,o),
(598,671,o),
(433,671,cs),
(219,671,o),
(60,483,o),
(60,282,cs),
(60,109,o),
(168,-10,o),
(332,-10,cs)
);
},
{
closed = 1;
nodes = (
(237,38,o),
(151,142,o),
(151,292,cs),
(151,478,o),
(257,625,o),
(406,625,cs),
(531,625,o),
(616,521,o),
(616,370,cs),
(616,190,o),
(512,38,o),
(364,38,cs)
);
},
{
closed = 1;
nodes = (
(649,-149,o),
(695,-137,o),
(725,-122,c),
(728,-106,l),
(716,-111,o),
(699,-114,o),
(681,-114,cs),
(610,-114,o),
(563,-90,o),
(442,16,c),
(312,16,l),
(447,-126,o),
(523,-149,o),
(602,-149,cs)
);
}
);
userData = {
com.typemytype.robofont.layerData = {
mask = {
anchors = (
);
components = (
);
contours = (
{
points = (
{
segmentType = curve;
smooth = 1;
x = 332;
y = -10;
},
{
smooth = 0;
x = 551;
y = -10;
},
{
smooth = 0;
x = 706;
y = 182;
},
{
segmentType = curve;
smooth = 1;
x = 706;
y = 378;
},
{
smooth = 0;
x = 706;
y = 551;
},
{
smooth = 0;
x = 598;
y = 671;
},
{
segmentType = curve;
smooth = 1;
x = 433;
y = 671;
},
{
smooth = 0;
x = 219;
y = 671;
},
{
smooth = 0;
x = 60;
y = 483;
},
{
segmentType = curve;
smooth = 1;
x = 60;
y = 282;
},
{
smooth = 0;
x = 60;
y = 109;
},
{
smooth = 0;
x = 168;
y = -10;
}
);
},
{
points = (
{
segmentType = curve;
smooth = 1;
x = 364;
y = 38;
},
{
smooth = 0;
x = 237;
y = 38;
},
{
smooth = 0;
x = 151;
y = 142;
},
{
segmentType = curve;
smooth = 1;
x = 151;
y = 292;
},
{
smooth = 0;
x = 151;
y = 478;
},
{
smooth = 0;
x = 257;
y = 625;
},
{
segmentType = curve;
smooth = 1;
x = 406;
y = 625;
},
{
smooth = 0;
x = 531;
y = 625;
},
{
smooth = 0;
x = 616;
y = 521;
},
{
segmentType = curve;
smooth = 1;
x = 616;
y = 370;
},
{
smooth = 0;
x = 616;
y = 190;
},
{
smooth = 0;
x = 512;
y = 38;
}
);
},
{
points = (
{
segmentType = curve;
smooth = 1;
x = 602;
y = -149;
},
{
smooth = 0;
x = 649;
y = -149;
},
{
smooth = 0;
x = 695;
y = -137;
},
{
segmentType = curve;
smooth = 0;
x = 725;
y = -122;
},
{
segmentType = line;
smooth = 0;
x = 728;
y = -106;
},
{
smooth = 0;
x = 716;
y = -111;
},
{
smooth = 0;
x = 699;
y = -114;
},
{
segmentType = curve;
smooth = 1;
x = 681;
y = -114;
},
{
smooth = 0;
x = 610;
y = -114;
},
{
smooth = 0;
x = 563;
y = -90;
},
{
segmentType = curve;
smooth = 0;
x = 442;
y = 16;
},
{
segmentType = line;
smooth = 0;
x = 312;
y = 16;
},
{
smooth = 0;
x = 447;
y = -126;
},
{
smooth = 0;
x = 523;
y = -149;
}
);
}
);
lib = {
};
name = Q;
unicodes = (
);
width = 766;
};
};
};
width = 766;
},
{
layerId = "48B243E4-A9BC-4CE2-9E97-0DBF8BE24EDB";
shapes = (
{
closed = 1;
nodes = (
(575,-10,o),
(739,166,o),
(739,390,cs),
(739,555,o),
(632,670,o),
(439,670,cs),
(215,670,o),
(40,494,o),
(40,271,cs),
(40,105,o),
(145,-10,o),
(339,-10,cs)
);
},
{
closed = 1;
nodes = (
(263,42,o),
(221,125,o),
(221,245,cs),
(221,445,o),
(313,617,o),
(431,617,cs),
(526,617,o),
(558,535,o),
(558,416,cs),
(558,214,o),
(475,42,o),
(349,42,cs)
);
},
{
closed = 1;
nodes = (
(663,-149,o),
(705,-138,o),
(735,-122,c),
(744,-93,l),
(730,-98,o),
(706,-103,o),
(682,-103,cs),
(618,-103,o),
(568,-85,o),
(442,16,c),
(244,16,l),
(376,-115,o),
(533,-149,o),
(612,-149,cs)
);
}
);
userData = {
com.typemytype.robofont.layerData = {
mask = {
anchors = (
);
components = (
);
contours = (
{
points = (
{
segmentType = curve;
smooth = 1;
x = 339;
y = -10;
},
{
smooth = 0;
x = 575;
y = -10;
},
{
smooth = 0;
x = 739;
y = 166;
},
{
segmentType = curve;
smooth = 1;
x = 739;
y = 390;
},
{
smooth = 0;
x = 739;
y = 555;
},
{
smooth = 0;
x = 632;
y = 670;
},
{
segmentType = curve;
smooth = 1;
x = 439;
y = 670;
},
{
smooth = 0;
x = 215;
y = 670;
},
{
smooth = 0;
x = 40;
y = 494;
},
{
segmentType = curve;
smooth = 1;
x = 40;
y = 271;
},
{
smooth = 0;
x = 40;
y = 105;
},
{
smooth = 0;
x = 145;
y = -10;
}
);
},
{
points = (
{
segmentType = curve;
smooth = 1;
x = 349;
y = 42;
},
{
smooth = 0;
x = 263;
y = 42;
},
{
smooth = 0;
x = 221;
y = 125;
},
{
segmentType = curve;
smooth = 1;
x = 221;
y = 245;
},
{
smooth = 0;
x = 221;
y = 445;
},
{
smooth = 0;
x = 313;
y = 617;
},
{
segmentType = curve;
smooth = 1;
x = 431;
y = 617;
},
{
smooth = 0;
x = 526;
y = 617;
},
{
smooth = 0;
x = 558;
y = 535;
},
{
segmentType = curve;
smooth = 1;
x = 558;
y = 416;
},
{
smooth = 0;
x = 558;
y = 214;
},
{
smooth = 0;
x = 475;
y = 42;
}
);
},
{
points = (
{
segmentType = curve;
smooth = 1;
x = 612;
y = -149;
},
{
smooth = 0;
x = 663;
y = -149;
},
{
smooth = 0;
x = 705;
y = -138;
},
{
segmentType = curve;
smooth = 0;
x = 735;
y = -122;
},
{
segmentType = line;
smooth = 0;
x = 744;
y = -93;
},
{
smooth = 0;
x = 730;
y = -98;
},
{
smooth = 0;
x = 706;
y = -103;
},
{
segmentType = curve;
smooth = 1;
x = 682;
y = -103;
},
{
smooth = 0;
x = 618;
y = -103;
},
{
smooth = 0;
x = 568;
y = -85;
},
{
segmentType = curve;
smooth = 0;
x = 442;
y = 16;
},
{
segmentType = line;
smooth = 0;
x = 244;
y = 16;
},
{
smooth = 0;
x = 376;
y = -115;
},
{
smooth = 0;
x = 533;
y = -149;
}
);
}
);
lib = {
};
name = Q;
unicodes = (
);
width = 779;
};
};
};
width = 779;
}
);
unicode = 81;
},
{
color = 5;
glyphname = R;
kernLeft = kern_H2;
kernRight = kern_R1;
layers = (
{
anchors = (
{
name = bottom;
pos = (296,0);
},
{
name = top;
pos = (346,710);
}
);
layerId = master01;
shapes = (
{
closed = 1;
nodes = (
(243,0,l),
(246,16,l),
(181,57,l),
(288,660,l),
(126,660,l),
(123,644,l),
(192,604,l),
(96,56,l),
(13,16,l),
(10,0,l)
);
},
{
closed = 1;
nodes = (
(556,602,o),
(470,660,o),
(330,660,cs),
(237,660,l),
(228,610,l),
(325,610,ls),
(410,610,o),
(463,566,o),
(463,494,cs),
(463,421,o),
(409,356,o),
(318,356,cs),
(192,356,l),
(182,306,l),
(395,306,l),
(395,323,l),
(487,350,o),
(556,418,o),
(556,508,cs)
);
},
{
closed = 1;
nodes = (
(581,0,l),
(584,16,l),
(527,52,l),
(390,341,l),
(304,341,l),
(451,0,l)
);
}
);
userData = {
com.typemytype.robofont.layerData = {
mask = {
anchors = (
{
name = top;
x = 346;
y = 710;
},
{
name = bottom;
x = 296;
y = 0;
}
);
components = (
);
contours = (
{
points = (
{
segmentType = line;
smooth = 0;
x = 10;
y = 0;
},
{
segmentType = line;
smooth = 0;
x = 243;
y = 0;
},
{
segmentType = line;
smooth = 0;
x = 246;
y = 16;
},
{
segmentType = line;
smooth = 0;
x = 181;
y = 57;
},
{
segmentType = line;
smooth = 0;
x = 288;
y = 660;
},
{
segmentType = line;
smooth = 0;
x = 126;
y = 660;
},
{
segmentType = line;
smooth = 0;
x = 123;
y = 644;
},
{
segmentType = line;
smooth = 0;
x = 192;
y = 604;
},
{
segmentType = line;
smooth = 0;
x = 96;
y = 56;
},
{
segmentType = line;
smooth = 0;
x = 13;
y = 16;
}
);
},
{
points = (
{
segmentType = curve;
smooth = 1;
x = 556;
y = 508;
},
{
smooth = 0;
x = 556;
y = 602;
},
{
smooth = 0;
x = 470;
y = 660;
},
{
segmentType = curve;
smooth = 1;
x = 330;
y = 660;
},
{
segmentType = line;
smooth = 0;
x = 237;
y = 660;
},
{
segmentType = line;
smooth = 0;
x = 228;
y = 610;
},
{
segmentType = line;
smooth = 1;
x = 325;
y = 610;
},
{
smooth = 0;
x = 410;
y = 610;
},
{
smooth = 0;
x = 463;
y = 566;
},
{
segmentType = curve;
smooth = 1;
x = 463;
y = 494;
},
{
smooth = 0;
x = 463;
y = 421;
},
{
smooth = 0;
x = 409;
y = 356;
},
{
segmentType = curve;
smooth = 1;
x = 318;
y = 356;
},
{
segmentType = line;
smooth = 0;
x = 192;
y = 356;
},
{
segmentType = line;
smooth = 0;
x = 182;
y = 306;
},
{
segmentType = line;
smooth = 0;
x = 395;
y = 306;
},
{
segmentType = line;
smooth = 0;
x = 395;
y = 323;
},
{
smooth = 0;
x = 487;
y = 350;
},
{
smooth = 0;
x = 556;
y = 418;
}
);
},
{
points = (
{
segmentType = line;
smooth = 0;
x = 451;
y = 0;
},
{
segmentType = line;
smooth = 0;
x = 581;
y = 0;
},
{
segmentType = line;
smooth = 0;
x = 584;
y = 16;
},
{
segmentType = line;
smooth = 0;
x = 527;
y = 52;
},
{
segmentType = line;
smooth = 0;
x = 390;
y = 341;
},
{
segmentType = line;
smooth = 0;
x = 304;
y = 341;
}
);
}
);
lib = {
};
name = R;
unicodes = (
);
width = 624;
};
};
};
width = 624;
},
{
anchors = (
{
name = bottom;
pos = (300,0);
},
{
name = top;
pos = (369,710);
}
);
layerId = "48B243E4-A9BC-4CE2-9E97-0DBF8BE24EDB";
shapes = (
{
closed = 1;
nodes = (
(300,0,l),
(303,16,l),
(230,58,l),
(335,660,l),
(85,660,l),
(82,644,l),
(155,602,l),
(59,58,l),
(-28,16,l),
(-30,0,l)
);
},
{
closed = 1;
nodes = (
(621,608,o),
(535,660,o),
(384,660,cs),
(288,660,l),
(278,605,l),
(347,605,ls),
(417,605,o),
(450,571,o),
(450,499,cs),
(450,419,o),
(400,353,o),
(314,353,cs),
(246,353,l),
(238,308,l),
(372,308,l),
(372,319,l),
(523,346,o),
(621,410,o),
(621,511,cs)
);
},
{
closed = 1;
nodes = (
(656,0,l),
(658,16,l),
(596,59,l),
(467,351,l),
(299,351,l),
(437,0,l)
);
}
);
userData = {
com.typemytype.robofont.layerData = {
mask = {
anchors = (
{
name = top;
x = 369;
y = 710;
},
{
name = bottom;
x = 300;
y = 0;
}
);
components = (
);
contours = (
{
points = (
{
segmentType = line;
smooth = 0;
x = -30;
y = 0;
},
{
segmentType = line;
smooth = 0;
x = 300;
y = 0;
},
{
segmentType = line;
smooth = 0;
x = 303;
y = 16;
},
{
segmentType = line;
smooth = 0;
x = 230;
y = 58;
},
{
segmentType = line;
smooth = 0;
x = 335;
y = 660;
},
{
segmentType = line;
smooth = 0;
x = 85;
y = 660;
},
{
segmentType = line;
smooth = 0;
x = 82;
y = 644;
},
{
segmentType = line;
smooth = 0;
x = 155;
y = 602;
},
{
segmentType = line;
smooth = 0;
x = 59;
y = 58;
},
{
segmentType = line;
smooth = 0;
x = -28;
y = 16;
}
);
},
{
points = (
{
segmentType = curve;
smooth = 1;
x = 621;
y = 511;
},
{
smooth = 0;
x = 621;
y = 608;
},
{
smooth = 0;
x = 535;
y = 660;
},
{
segmentType = curve;
smooth = 1;
x = 384;
y = 660;
},
{
segmentType = line;
smooth = 0;
x = 288;
y = 660;
},
{
segmentType = line;
smooth = 0;
x = 278;
y = 605;
},
{
segmentType = line;
smooth = 1;
x = 347;
y = 605;
},
{
smooth = 0;
x = 417;
y = 605;
},
{
smooth = 0;
x = 450;
y = 571;
},
{
segmentType = curve;
smooth = 1;
x = 450;
y = 499;
},
{
smooth = 0;
x = 450;
y = 419;
},
{
smooth = 0;
x = 400;
y = 353;
},
{
segmentType = curve;
smooth = 1;
x = 314;
y = 353;
},
{
segmentType = line;
smooth = 0;
x = 246;
y = 353;
},
{
segmentType = line;
smooth = 0;
x = 238;
y = 308;
},
{
segmentType = line;
smooth = 0;
x = 372;
y = 308;
},
{
segmentType = line;
smooth = 0;
x = 372;
y = 319;
},
{
smooth = 0;
x = 523;
y = 346;
},
{
smooth = 0;
x = 621;
y = 410;
}
);
},
{
points = (
{
segmentType = line;
smooth = 0;
x = 437;
y = 0;
},
{
segmentType = line;
smooth = 0;
x = 656;
y = 0;
},
{
segmentType = line;
smooth = 0;
x = 658;
y = 16;
},
{
segmentType = line;
smooth = 0;
x = 596;
y = 59;
},
{
segmentType = line;
smooth = 0;
x = 467;
y = 351;
},
{
segmentType = line;
smooth = 0;
x = 299;
y = 351;
}
);
}
);
lib = {
};
name = R;
unicodes = (
);
width = 725;
};
};
};
width = 725;
}
);
unicode = 82;
},
{
color = 5;
glyphname = S;
kernLeft = kern_S3;
kernRight = kern_S3;
layers = (
{
anchors = (
{
name = bottom;
pos = (181,0);
},
{
name = top;
pos = (318,710);
}
);
layerId = master01;
shapes = (
{
closed = 1;
nodes = (
(299,-10,o),
(411,75,o),
(411,199,cs),
(411,273,o),
(375,315,o),
(272,373,cs),
(201,413,o),
(174,444,o),
(174,492,cs),
(174,573,o),
(229,626,o),
(291,626,cs),
(337,626,o),
(365,606,o),
(388,584,c),
(425,468,l),
(441,468,l),
(459,628,l),
(413,655,o),
(369,670,o),
(310,670,cs),
(204,670,o),
(98,584,o),
(98,471,cs),
(98,405,o),
(131,360,o),
(206,318,cs),
(298,267,o),
(328,235,o),
(328,181,cs),
(328,93,o),
(279,32,o),
(185,32,cs),
(146,32,o),
(110,47,o),
(74,83,c),
(35,200,l),
(19,200,l),
(0,36,l),
(54,5,o),
(99,-10,o),
(177,-10,cs)
);
}
);
userData = {
com.typemytype.robofont.layerData = {
mask = {
anchors = (
{
name = top;
x = 318;
y = 710;
},
{
name = bottom;
x = 181;
y = 0;
}
);
components = (
);
contours = (
{
points = (
{
segmentType = curve;
smooth = 1;
x = 177;
y = -10;
},
{
smooth = 0;
x = 299;
y = -10;
},
{
smooth = 0;
x = 411;
y = 75;
},
{
segmentType = curve;
smooth = 1;
x = 411;
y = 199;
},
{
smooth = 0;
x = 411;
y = 273;
},
{
smooth = 0;
x = 375;
y = 315;
},
{
segmentType = curve;
smooth = 1;
x = 272;
y = 373;
},
{
smooth = 0;
x = 201;
y = 413;
},
{
smooth = 0;
x = 174;
y = 444;
},
{
segmentType = curve;
smooth = 1;
x = 174;
y = 492;
},
{
smooth = 0;
x = 174;
y = 573;
},
{
smooth = 0;
x = 229;
y = 626;
},
{
segmentType = curve;
smooth = 1;
x = 291;
y = 626;
},
{
smooth = 0;
x = 337;
y = 626;
},
{
smooth = 0;
x = 365;
y = 606;
},
{
segmentType = curve;
smooth = 0;
x = 388;
y = 584;
},
{
segmentType = line;
smooth = 0;
x = 425;
y = 468;
},
{
segmentType = line;
smooth = 0;
x = 441;
y = 468;
},
{
segmentType = line;
smooth = 0;
x = 459;
y = 628;
},
{
smooth = 0;
x = 413;
y = 655;
},
{
smooth = 0;
x = 369;
y = 670;
},
{
segmentType = curve;
smooth = 1;
x = 310;
y = 670;
},
{
smooth = 0;
x = 204;
y = 670;
},
{
smooth = 0;
x = 98;
y = 584;
},
{
segmentType = curve;
smooth = 1;
x = 98;
y = 471;
},
{
smooth = 0;
x = 98;
y = 405;
},
{
smooth = 0;
x = 131;
y = 360;
},
{
segmentType = curve;
smooth = 1;
x = 206;
y = 318;
},
{
smooth = 0;
x = 298;
y = 267;
},
{
smooth = 0;
x = 328;
y = 235;
},
{
segmentType = curve;
smooth = 1;
x = 328;
y = 181;
},
{
smooth = 0;
x = 328;
y = 93;
},
{
smooth = 0;
x = 279;
y = 32;
},
{
segmentType = curve;
smooth = 1;
x = 185;
y = 32;
},
{
smooth = 0;
x = 146;
y = 32;
},
{
smooth = 0;
x = 110;
y = 47;
},
{
segmentType = curve;
smooth = 0;
x = 74;
y = 83;
},
{
segmentType = line;
smooth = 0;
x = 35;
y = 200;
},
{
segmentType = line;
smooth = 0;
x = 19;
y = 200;
},
{
segmentType = line;
smooth = 0;
x = 0;
y = 36;
},
{
smooth = 0;
x = 54;
y = 5;
},
{
smooth = 0;
x = 99;
y = -10;
}
);
}
);
lib = {
};
name = S;
unicodes = (
);
width = 489;
};
};
};
width = 489;
},
{
anchors = (
{
name = bottom;
pos = (233,0);
},
{
name = top;
pos = (380,710);
}
);
layerId = "48B243E4-A9BC-4CE2-9E97-0DBF8BE24EDB";
shapes = (
{
closed = 1;
nodes = (
(390,-10,o),
(504,95,o),
(504,215,cs),
(504,302,o),
(457,338,o),
(365,395,cs),
(280,448,o),
(261,475,o),
(261,521,cs),
(261,573,o),
(306,616,o),
(366,616,cs),
(404,616,o),
(425,603,o),
(444,585,c),
(504,462,l),
(522,462,l),
(538,622,l),
(496,652,o),
(435,670,o),
(371,670,cs),
(218,670,o),
(104,573,o),
(104,453,cs),
(104,376,o),
(135,340,o),
(210,292,cs),
(318,224,o),
(350,203,o),
(350,144,cs),
(350,82,o),
(291,43,o),
(221,43,cs),
(176,43,o),
(146,61,o),
(127,76,c),
(66,217,l),
(48,217,l),
(30,44,l),
(82,11,o),
(142,-10,o),
(225,-10,cs)
);
}
);
userData = {
com.typemytype.robofont.layerData = {
mask = {
anchors = (
{
name = top;
x = 380;
y = 710;
},
{
name = bottom;
x = 233;
y = 0;
}
);
components = (
);
contours = (
{
points = (
{
segmentType = curve;
smooth = 1;
x = 225;
y = -10;
},
{
smooth = 0;
x = 390;
y = -10;
},
{
smooth = 0;
x = 504;
y = 95;
},
{
segmentType = curve;
smooth = 1;
x = 504;
y = 215;
},
{
smooth = 0;
x = 504;
y = 302;
},
{
smooth = 0;
x = 457;
y = 338;
},
{
segmentType = curve;
smooth = 1;
x = 365;
y = 395;
},
{
smooth = 0;
x = 280;
y = 448;
},
{
smooth = 0;
x = 261;
y = 475;
},
{
segmentType = curve;
smooth = 1;
x = 261;
y = 521;
},
{
smooth = 0;
x = 261;
y = 573;
},
{
smooth = 0;
x = 306;
y = 616;
},
{
segmentType = curve;
smooth = 1;
x = 366;
y = 616;
},
{
smooth = 0;
x = 404;
y = 616;
},
{
smooth = 0;
x = 425;
y = 603;
},
{
segmentType = curve;
smooth = 0;
x = 444;
y = 585;
},
{
segmentType = line;
smooth = 0;
x = 504;
y = 462;
},
{
segmentType = line;
smooth = 0;
x = 522;
y = 462;
},
{
segmentType = line;
smooth = 0;
x = 538;
y = 622;
},
{
smooth = 0;
x = 496;
y = 652;
},
{
smooth = 0;
x = 435;
y = 670;
},
{
segmentType = curve;
smooth = 1;
x = 371;
y = 670;
},
{
smooth = 0;
x = 218;
y = 670;
},
{
smooth = 0;
x = 104;
y = 573;
},
{
segmentType = curve;
smooth = 1;
x = 104;
y = 453;
},
{
smooth = 0;
x = 104;
y = 376;
},
{
smooth = 0;
x = 135;
y = 340;
},
{
segmentType = curve;
smooth = 1;
x = 210;
y = 292;
},
{
smooth = 0;
x = 318;
y = 224;
},
{
smooth = 0;
x = 350;
y = 203;
},
{
segmentType = curve;
smooth = 1;
x = 350;
y = 144;
},
{
smooth = 0;
x = 350;
y = 82;
},
{
smooth = 0;
x = 291;
y = 43;
},
{
segmentType = curve;
smooth = 1;
x = 221;
y = 43;
},
{
smooth = 0;
x = 176;
y = 43;
},
{
smooth = 0;
x = 146;
y = 61;
},
{
segmentType = curve;
smooth = 0;
x = 127;
y = 76;
},
{
segmentType = line;
smooth = 0;
x = 66;
y = 217;
},
{
segmentType = line;
smooth = 0;
x = 48;
y = 217;
},
{
segmentType = line;
smooth = 0;
x = 30;
y = 44;
},
{
smooth = 0;
x = 82;
y = 11;
},
{
smooth = 0;
x = 142;
y = -10;
}
);
}
);
lib = {
};
name = S;
unicodes = (
);
width = 573;
};
};
};
width = 573;
}
);
unicode = 83;
},
{
color = 5;
glyphname = Scedilla;
kernLeft = kern_S3;
kernRight = kern_S3;
layers = (
{
layerId = master01;
shapes = (
{
closed = 1;
nodes = (
(278,-10,o),
(411,57,o),
(411,199,cs),
(411,280,o),
(365,321,o),
(272,373,cs),
(206,410,o),
(174,439,o),
(174,492,cs),
(174,573,o),
(229,626,o),
(291,626,cs),
(337,626,o),
(365,606,o),
(388,584,c),
(425,468,l),
(441,468,l),
(459,628,l),
(413,655,o),
(369,670,o),
(310,670,cs),
(225,670,o),
(98,596,o),
(98,471,cs),
(98,398,o),
(137,358,o),
(206,318,cs),
(279,276,o),
(328,250,o),
(328,181,cs),
(328,102,o),
(285,32,o),
(185,32,cs),
(138,32,o),
(102,56,o),
(74,83,c),
(35,200,l),
(19,200,l),
(0,36,l),
(54,5,o),
(99,-10,o),
(177,-10,cs)
);
},
{
closed = 1;
nodes = (
(206,-240,o),
(245,-200,o),
(245,-151,cs),
(245,-101,o),
(218,-74,o),
(149,-50,c),
(153,-69,l),
(210,20,l),
(180,20,l),
(107,-95,l),
(170,-115,o),
(193,-132,o),
(193,-165,cs),
(193,-195,o),
(171,-213,o),
(129,-213,cs),
(102,-213,o),
(85,-207,o),
(68,-199,c),
(65,-199,l),
(63,-210,l),
(77,-229,o),
(107,-240,o),
(141,-240,cs)
);
}
);
userData = {
com.typemytype.robofont.layerData = {
mask = {
anchors = (
);
components = (
);
contours = (
{
points = (
{
segmentType = curve;
smooth = 1;
x = 177;
y = -10;
},
{
smooth = 0;
x = 278;
y = -10;
},
{
smooth = 0;
x = 411;
y = 57;
},
{
segmentType = curve;
smooth = 1;
x = 411;
y = 199;
},
{
smooth = 0;
x = 411;
y = 280;
},
{
smooth = 0;
x = 365;
y = 321;
},
{
segmentType = curve;
smooth = 1;
x = 272;
y = 373;
},
{
smooth = 0;
x = 206;
y = 410;
},
{
smooth = 0;
x = 174;
y = 439;
},
{
segmentType = curve;
smooth = 1;
x = 174;
y = 492;
},
{
smooth = 0;
x = 174;
y = 573;
},
{
smooth = 0;
x = 229;
y = 626;
},
{
segmentType = curve;
smooth = 1;
x = 291;
y = 626;
},
{
smooth = 0;
x = 337;
y = 626;
},
{
smooth = 0;
x = 365;
y = 606;
},
{
segmentType = curve;
smooth = 0;
x = 388;
y = 584;
},
{
segmentType = line;
smooth = 0;
x = 425;
y = 468;
},
{
segmentType = line;
smooth = 0;
x = 441;
y = 468;
},
{
segmentType = line;
smooth = 0;
x = 459;
y = 628;
},
{
smooth = 0;
x = 413;
y = 655;
},
{
smooth = 0;
x = 369;
y = 670;
},
{
segmentType = curve;
smooth = 1;
x = 310;
y = 670;
},
{
smooth = 0;
x = 225;
y = 670;
},
{
smooth = 0;
x = 98;
y = 596;
},
{
segmentType = curve;
smooth = 1;
x = 98;
y = 471;
},
{
smooth = 0;
x = 98;
y = 398;
},
{
smooth = 0;
x = 137;
y = 358;
},
{
segmentType = curve;
smooth = 1;
x = 206;
y = 318;
},
{
smooth = 0;
x = 279;
y = 276;
},
{
smooth = 0;
x = 328;
y = 250;
},
{
segmentType = curve;
smooth = 1;
x = 328;
y = 181;
},
{
smooth = 0;
x = 328;
y = 102;
},
{
smooth = 0;
x = 285;
y = 32;
},
{
segmentType = curve;
smooth = 1;
x = 185;
y = 32;
},
{
smooth = 0;
x = 138;
y = 32;
},
{
smooth = 0;
x = 102;
y = 56;
},
{
segmentType = curve;
smooth = 0;
x = 74;
y = 83;
},
{
segmentType = line;
smooth = 0;
x = 35;
y = 200;
},
{
segmentType = line;
smooth = 0;
x = 19;
y = 200;
},
{
segmentType = line;
smooth = 0;
x = 0;
y = 36;
},
{
smooth = 0;
x = 54;
y = 5;
},
{
smooth = 0;
x = 99;
y = -10;
}
);
},
{
points = (
{
segmentType = curve;
smooth = 1;
x = 141;
y = -240;
},
{
smooth = 0;
x = 206;
y = -240;
},
{
smooth = 0;
x = 245;
y = -200;
},
{
segmentType = curve;
smooth = 1;
x = 245;
y = -151;
},
{
smooth = 0;
x = 245;
y = -101;
},
{
smooth = 0;
x = 218;
y = -74;
},
{
segmentType = curve;
smooth = 0;
x = 149;
y = -50;
},
{
segmentType = line;
smooth = 0;
x = 153;
y = -69;
},
{
segmentType = line;
smooth = 0;
x = 210;
y = 20;
},
{
segmentType = line;
smooth = 0;
x = 180;
y = 20;
},
{
segmentType = line;
smooth = 0;
x = 107;
y = -95;
},
{
smooth = 0;
x = 170;
y = -115;
},
{
smooth = 0;
x = 193;
y = -132;
},
{
segmentType = curve;
smooth = 1;
x = 193;
y = -165;
},
{
smooth = 0;
x = 193;
y = -195;
},
{
smooth = 0;
x = 171;
y = -213;
},
{
segmentType = curve;
smooth = 1;
x = 129;
y = -213;
},
{
smooth = 0;
x = 102;
y = -213;
},
{
smooth = 0;
x = 85;
y = -207;
},
{
segmentType = curve;
smooth = 0;
x = 68;
y = -199;
},
{
segmentType = line;
smooth = 0;
x = 65;
y = -199;
},
{
segmentType = line;
smooth = 0;
x = 63;
y = -210;
},
{
smooth = 0;
x = 77;
y = -229;
},
{
smooth = 0;
x = 107;
y = -240;
}
);
}
);
lib = {
};
name = Scedilla;
unicodes = (
);
width = 489;
};
};
};
width = 489;
},
{
layerId = "48B243E4-A9BC-4CE2-9E97-0DBF8BE24EDB";
shapes = (
{
closed = 1;
nodes = (
(390,-10,o),
(504,95,o),
(504,215,cs),
(504,303,o),
(458,340,o),
(365,398,cs),
(286,447,o),
(261,476,o),
(261,521,cs),
(261,573,o),
(306,616,o),
(366,616,cs),
(404,616,o),
(425,603,o),
(444,585,c),
(504,462,l),
(522,462,l),
(538,622,l),
(496,652,o),
(435,670,o),
(371,670,cs),
(218,670,o),
(104,573,o),
(104,453,cs),
(104,371,o),
(135,337,o),
(210,289,cs),
(317,221,o),
(350,202,o),
(350,144,cs),
(350,82,o),
(291,43,o),
(221,43,cs),
(176,43,o),
(146,61,o),
(127,76,c),
(66,217,l),
(48,217,l),
(30,44,l),
(82,11,o),
(142,-10,o),
(225,-10,cs)
);
},
{
closed = 1;
nodes = (
(273,-240,o),
(323,-197,o),
(323,-137,cs),
(323,-90,o),
(291,-53,o),
(208,-38,c),
(219,-61,l),
(268,27,l),
(234,27,l),
(155,-107,l),
(221,-120,o),
(242,-143,o),
(242,-167,cs),
(242,-193,o),
(220,-208,o),
(186,-208,cs),
(170,-208,o),
(149,-205,o),
(137,-199,c),
(133,-199,l),
(129,-221,l),
(146,-232,o),
(169,-240,o),
(202,-240,cs)
);
}
);
userData = {
com.typemytype.robofont.layerData = {
mask = {
anchors = (
);
components = (
);
contours = (
{
points = (
{
segmentType = curve;
smooth = 1;
x = 225;
y = -10;
},
{
smooth = 0;
x = 390;
y = -10;
},
{
smooth = 0;
x = 504;
y = 95;
},
{
segmentType = curve;
smooth = 1;
x = 504;
y = 215;
},
{
smooth = 0;
x = 504;
y = 303;
},
{
smooth = 0;
x = 458;
y = 340;
},
{
segmentType = curve;
smooth = 1;
x = 365;
y = 398;
},
{
smooth = 0;
x = 286;
y = 447;
},
{
smooth = 0;
x = 261;
y = 476;
},
{
segmentType = curve;
smooth = 1;
x = 261;
y = 521;
},
{
smooth = 0;
x = 261;
y = 573;
},
{
smooth = 0;
x = 306;
y = 616;
},
{
segmentType = curve;
smooth = 1;
x = 366;
y = 616;
},
{
smooth = 0;
x = 404;
y = 616;
},
{
smooth = 0;
x = 425;
y = 603;
},
{
segmentType = curve;
smooth = 0;
x = 444;
y = 585;
},
{
segmentType = line;
smooth = 0;
x = 504;
y = 462;
},
{
segmentType = line;
smooth = 0;
x = 522;
y = 462;
},
{
segmentType = line;
smooth = 0;
x = 538;
y = 622;
},
{
smooth = 0;
x = 496;
y = 652;
},
{
smooth = 0;
x = 435;
y = 670;
},
{
segmentType = curve;
smooth = 1;
x = 371;
y = 670;
},
{
smooth = 0;
x = 218;
y = 670;
},
{
smooth = 0;
x = 104;
y = 573;
},
{
segmentType = curve;
smooth = 1;
x = 104;
y = 453;
},
{
smooth = 0;
x = 104;
y = 371;
},
{
smooth = 0;
x = 135;
y = 337;
},
{
segmentType = curve;
smooth = 1;
x = 210;
y = 289;
},
{
smooth = 0;
x = 317;
y = 221;
},
{
smooth = 0;
x = 350;
y = 202;
},
{
segmentType = curve;
smooth = 1;
x = 350;
y = 144;
},
{
smooth = 0;
x = 350;
y = 82;
},
{
smooth = 0;
x = 291;
y = 43;
},
{
segmentType = curve;
smooth = 1;
x = 221;
y = 43;
},
{
smooth = 0;
x = 176;
y = 43;
},
{
smooth = 0;
x = 146;
y = 61;
},
{
segmentType = curve;
smooth = 0;
x = 127;
y = 76;
},
{
segmentType = line;
smooth = 0;
x = 66;
y = 217;
},
{
segmentType = line;
smooth = 0;
x = 48;
y = 217;
},
{
segmentType = line;
smooth = 0;
x = 30;
y = 44;
},
{
smooth = 0;
x = 82;
y = 11;
},
{
smooth = 0;
x = 142;
y = -10;
}
);
},
{
points = (
{
segmentType = curve;
smooth = 1;
x = 202;
y = -240;
},
{
smooth = 0;
x = 273;
y = -240;
},
{
smooth = 0;
x = 323;
y = -197;
},
{
segmentType = curve;
smooth = 1;
x = 323;
y = -137;
},
{
smooth = 0;
x = 323;
y = -90;
},
{
smooth = 0;
x = 291;
y = -53;
},
{
segmentType = curve;
smooth = 0;
x = 208;
y = -38;
},
{
segmentType = line;
smooth = 0;
x = 219;
y = -61;
},
{
segmentType = line;
smooth = 0;
x = 268;
y = 27;
},
{
segmentType = line;
smooth = 0;
x = 234;
y = 27;
},
{
segmentType = line;
smooth = 0;
x = 155;
y = -107;
},
{
smooth = 0;
x = 221;
y = -120;
},
{
smooth = 0;
x = 242;
y = -143;
},
{
segmentType = curve;
smooth = 1;
x = 242;
y = -167;
},
{
smooth = 0;
x = 242;
y = -193;
},
{
smooth = 0;
x = 220;
y = -208;
},
{
segmentType = curve;
smooth = 1;
x = 186;
y = -208;
},
{
smooth = 0;
x = 170;
y = -208;
},
{
smooth = 0;
x = 149;
y = -205;
},
{
segmentType = curve;
smooth = 0;
x = 137;
y = -199;
},
{
segmentType = line;
smooth = 0;
x = 133;
y = -199;
},
{
segmentType = line;
smooth = 0;
x = 129;
y = -221;
},
{
smooth = 0;
x = 146;
y = -232;
},
{
smooth = 0;
x = 169;
y = -240;
}
);
}
);
lib = {
};
name = Scedilla;
unicodes = (
);
width = 573;
};
};
};
width = 573;
}
);
unicode = 350;
},
{
color = 5;
glyphname = T;
kernLeft = kern_T2;
kernRight = kern_T1;
layers = (
{
anchors = (
{
name = bottom;
pos = (270,0);
},
{
name = top;
pos = (396,710);
}
);
layerId = master01;
shapes = (
{
closed = 1;
nodes = (
(409,0,l),
(412,16,l),
(324,56,l),
(423,610,l),
(575,610,l),
(613,458,l),
(629,458,l),
(665,660,l),
(110,660,l),
(75,458,l),
(91,458,l),
(182,610,l),
(337,610,l),
(238,56,l),
(137,16,l),
(133,0,l)
);
}
);
userData = {
com.typemytype.robofont.layerData = {
mask = {
anchors = (
{
name = top;
x = 396;
y = 710;
},
{
name = bottom;
x = 270;
y = 0;
}
);
components = (
);
contours = (
{
points = (
{
segmentType = line;
smooth = 0;
x = 133;
y = 0;
},
{
segmentType = line;
smooth = 0;
x = 409;
y = 0;
},
{
segmentType = line;
smooth = 0;
x = 412;
y = 16;
},
{
segmentType = line;
smooth = 0;
x = 324;
y = 56;
},
{
segmentType = line;
smooth = 0;
x = 423;
y = 610;
},
{
segmentType = line;
smooth = 0;
x = 575;
y = 610;
},
{
segmentType = line;
smooth = 0;
x = 613;
y = 458;
},
{
segmentType = line;
smooth = 0;
x = 629;
y = 458;
},
{
segmentType = line;
smooth = 0;
x = 665;
y = 660;
},
{
segmentType = line;
smooth = 0;
x = 110;
y = 660;
},
{
segmentType = line;
smooth = 0;
x = 75;
y = 458;
},
{
segmentType = line;
smooth = 0;
x = 91;
y = 458;
},
{
segmentType = line;
smooth = 0;
x = 182;
y = 610;
},
{
segmentType = line;
smooth = 0;
x = 337;
y = 610;
},
{
segmentType = line;
smooth = 0;
x = 238;
y = 56;
},
{
segmentType = line;
smooth = 0;
x = 137;
y = 16;
}
);
}
);
lib = {
};
name = T;
unicodes = (
);
width = 645;
};
};
};
width = 645;
},
{
anchors = (
{
name = bottom;
pos = (262,0);
},
{
name = top;
pos = (387,710);
}
);
layerId = "48B243E4-A9BC-4CE2-9E97-0DBF8BE24EDB";
shapes = (
{
closed = 1;
nodes = (
(448,0,l),
(451,16,l),
(358,58,l),
(456,605,l),
(573,605,l),
(621,429,l),
(637,429,l),
(676,660,l),
(84,660,l),
(45,429,l),
(61,429,l),
(168,605,l),
(285,605,l),
(187,58,l),
(82,16,l),
(79,0,l)
);
}
);
userData = {
com.typemytype.robofont.layerData = {
mask = {
anchors = (
{
name = top;
x = 387;
y = 710;
},
{
name = bottom;
x = 262;
y = 0;
}
);
components = (
);
contours = (
{
points = (
{
segmentType = line;
smooth = 0;
x = 79;
y = 0;
},
{
segmentType = line;
smooth = 0;
x = 448;
y = 0;
},
{
segmentType = line;
smooth = 0;
x = 451;
y = 16;
},
{
segmentType = line;
smooth = 0;
x = 358;
y = 58;
},
{
segmentType = line;
smooth = 0;
x = 456;
y = 605;
},
{
segmentType = line;
smooth = 0;
x = 573;
y = 605;
},
{
segmentType = line;
smooth = 0;
x = 621;
y = 429;
},
{
segmentType = line;
smooth = 0;
x = 637;
y = 429;
},
{
segmentType = line;
smooth = 0;
x = 676;
y = 660;
},
{
segmentType = line;
smooth = 0;
x = 84;
y = 660;
},
{
segmentType = line;
smooth = 0;
x = 45;
y = 429;
},
{
segmentType = line;
smooth = 0;
x = 61;
y = 429;
},
{
segmentType = line;
smooth = 0;
x = 168;
y = 605;
},
{
segmentType = line;
smooth = 0;
x = 285;
y = 605;
},
{
segmentType = line;
smooth = 0;
x = 187;
y = 58;
},
{
segmentType = line;
smooth = 0;
x = 82;
y = 16;
}
);
}
);
lib = {
};
name = T;
unicodes = (
);
width = 636;
};
};
};
width = 636;
}
);
unicode = 84;
},
{
color = 5;
glyphname = U;
kernLeft = kern_U2;
kernRight = kern_U1;
layers = (
{
anchors = (
{
name = bottom;
pos = (346,0);
},
{
name = right;
pos = (368,0);
},
{
name = top;
pos = (464,710);
}
);
layerId = master01;
shapes = (
{
closed = 1;
nodes = (
(486,-10,o),
(594,65,o),
(627,256,cs),
(688,605,l),
(770,644,l),
(773,660,l),
(537,660,l),
(533,644,l),
(622,606,l),
(557,236,ls),
(534,106,o),
(452,43,o),
(368,43,cs),
(269,43,o),
(212,88,o),
(212,196,cs),
(212,217,o),
(216,245,o),
(221,271,cs),
(280,604,l),
(362,644,l),
(366,660,l),
(128,660,l),
(125,644,l),
(194,604,l),
(133,256,ls),
(129,231,o),
(126,208,o),
(126,186,cs),
(126,50,o),
(214,-10,o),
(342,-10,cs)
);
}
);
userData = {
com.typemytype.robofont.layerData = {
mask = {
anchors = (
{
name = top;
x = 464;
y = 710;
},
{
name = right;
x = 368;
y = 0;
},
{
name = bottom;
x = 346;
y = 0;
}
);
components = (
);
contours = (
{
points = (
{
segmentType = curve;
smooth = 1;
x = 342;
y = -10;
},
{
smooth = 0;
x = 486;
y = -10;
},
{
smooth = 0;
x = 594;
y = 65;
},
{
segmentType = curve;
smooth = 1;
x = 627;
y = 256;
},
{
segmentType = line;
smooth = 0;
x = 688;
y = 605;
},
{
segmentType = line;
smooth = 0;
x = 770;
y = 644;
},
{
segmentType = line;
smooth = 0;
x = 773;
y = 660;
},
{
segmentType = line;
smooth = 0;
x = 537;
y = 660;
},
{
segmentType = line;
smooth = 0;
x = 533;
y = 644;
},
{
segmentType = line;
smooth = 0;
x = 622;
y = 606;
},
{
segmentType = line;
smooth = 1;
x = 557;
y = 236;
},
{
smooth = 0;
x = 534;
y = 106;
},
{
smooth = 0;
x = 452;
y = 43;
},
{
segmentType = curve;
smooth = 1;
x = 368;
y = 43;
},
{
smooth = 0;
x = 269;
y = 43;
},
{
smooth = 0;
x = 212;
y = 88;
},
{
segmentType = curve;
smooth = 1;
x = 212;
y = 196;
},
{
smooth = 0;
x = 212;
y = 217;
},
{
smooth = 0;
x = 216;
y = 245;
},
{
segmentType = curve;
smooth = 1;
x = 221;
y = 271;
},
{
segmentType = line;
smooth = 0;
x = 280;
y = 604;
},
{
segmentType = line;
smooth = 0;
x = 362;
y = 644;
},
{
segmentType = line;
smooth = 0;
x = 366;
y = 660;
},
{
segmentType = line;
smooth = 0;
x = 128;
y = 660;
},
{
segmentType = line;
smooth = 0;
x = 125;
y = 644;
},
{
segmentType = line;
smooth = 0;
x = 194;
y = 604;
},
{
segmentType = line;
smooth = 1;
x = 133;
y = 256;
},
{
smooth = 0;
x = 129;
y = 231;
},
{
smooth = 0;
x = 126;
y = 208;
},
{
segmentType = curve;
smooth = 1;
x = 126;
y = 186;
},
{
smooth = 0;
x = 126;
y = 50;
},
{
smooth = 0;
x = 214;
y = -10;
}
);
}
);
lib = {
};
name = U;
unicodes = (
);
width = 783;
};
};
};
width = 783;
},
{
anchors = (
{
name = bottom;
pos = (335,0);
},
{
name = right;
pos = (357,0);
},
{
name = top;
pos = (500,710);
}
);
layerId = "48B243E4-A9BC-4CE2-9E97-0DBF8BE24EDB";
shapes = (
{
closed = 1;
nodes = (
(506,-10,o),
(614,67,o),
(655,302,cs),
(707,603,l),
(795,644,l),
(798,660,l),
(574,660,l),
(571,644,l),
(645,604,l),
(585,255,ls),
(563,125,o),
(483,77,o),
(404,77,cs),
(324,77,o),
(263,114,o),
(263,223,cs),
(263,243,o),
(265,265,o),
(269,290,cs),
(323,602,l),
(411,644,l),
(414,660,l),
(81,660,l),
(78,644,l),
(152,602,l),
(100,302,ls),
(94,268,o),
(91,238,o),
(91,211,cs),
(91,47,o),
(193,-10,o),
(349,-10,cs)
);
}
);
userData = {
com.typemytype.robofont.layerData = {
mask = {
anchors = (
{
name = top;
x = 500;
y = 710;
},
{
name = right;
x = 357;
y = 0;
},
{
name = bottom;
x = 335;
y = 0;
}
);
components = (
);
contours = (
{
points = (
{
segmentType = curve;
smooth = 1;
x = 349;
y = -10;
},
{
smooth = 0;
x = 506;
y = -10;
},
{
smooth = 0;
x = 614;
y = 67;
},
{
segmentType = curve;
smooth = 1;
x = 655;
y = 302;
},
{
segmentType = line;
smooth = 0;
x = 707;
y = 603;
},
{
segmentType = line;
smooth = 0;
x = 795;
y = 644;
},
{
segmentType = line;
smooth = 0;
x = 798;
y = 660;
},
{
segmentType = line;
smooth = 0;
x = 574;
y = 660;
},
{
segmentType = line;
smooth = 0;
x = 571;
y = 644;
},
{
segmentType = line;
smooth = 0;
x = 645;
y = 604;
},
{
segmentType = line;
smooth = 1;
x = 585;
y = 255;
},
{
smooth = 0;
x = 563;
y = 125;
},
{
smooth = 0;
x = 483;
y = 77;
},
{
segmentType = curve;
smooth = 1;
x = 404;
y = 77;
},
{
smooth = 0;
x = 324;
y = 77;
},
{
smooth = 0;
x = 263;
y = 114;
},
{
segmentType = curve;
smooth = 1;
x = 263;
y = 223;
},
{
smooth = 0;
x = 263;
y = 243;
},
{
smooth = 0;
x = 265;
y = 265;
},
{
segmentType = curve;
smooth = 1;
x = 269;
y = 290;
},
{
segmentType = line;
smooth = 0;
x = 323;
y = 602;
},
{
segmentType = line;
smooth = 0;
x = 411;
y = 644;
},
{
segmentType = line;
smooth = 0;
x = 414;
y = 660;
},
{
segmentType = line;
smooth = 0;
x = 81;
y = 660;
},
{
segmentType = line;
smooth = 0;
x = 78;
y = 644;
},
{
segmentType = line;
smooth = 0;
x = 152;
y = 602;
},
{
segmentType = line;
smooth = 1;
x = 100;
y = 302;
},
{
smooth = 0;
x = 94;
y = 268;
},
{
smooth = 0;
x = 91;
y = 238;
},
{
segmentType = curve;
smooth = 1;
x = 91;
y = 211;
},
{
smooth = 0;
x = 91;
y = 47;
},
{
smooth = 0;
x = 193;
y = -10;
}
);
}
);
lib = {
};
name = U;
unicodes = (
);
width = 747;
};
};
};
width = 747;
}
);
unicode = 85;
},
{
color = 4;
glyphname = Uhorn;
kernLeft = kern_U2;
kernRight = kern_Uhorn1;
layers = (
{
anchors = (
{
name = bottom;
pos = (346,0);
},
{
name = right;
pos = (368,0);
},
{
name = top;
pos = (464,710);
}
);
layerId = master01;
shapes = (
{
closed = 1;
nodes = (
(480,-10,o),
(593,61,o),
(627,256,cs),
(688,605,l),
(770,644,l),
(791,644,ls),
(859.235,644,o),
(896,691,o),
(896,736,cs),
(896,750,o),
(889,752,o),
(873,752,cs),
(843,752,l),
(836,746,l),
(831,711,ls),
(826,678,o),
(812,660,o),
(774,660,cs),
(537,660,l),
(533,644,l),
(622,606,l),
(557,236,ls),
(533,97,o),
(441,43,o),
(368,43,cs),
(279,43,o),
(214,84,o),
(214,200,cs),
(214,221,o),
(216,245,o),
(221,271,cs),
(280,604,l),
(362,644,l),
(366,660,l),
(128,660,l),
(125,644,l),
(194,604,l),
(133,256,ls),
(129,231,o),
(126,208,o),
(126,186,cs),
(126,50,o),
(214,-10,o),
(342,-10,cs)
);
}
);
userData = {
com.typemytype.robofont.layerData = {
mask = {
anchors = (
{
name = top;
x = 464;
y = 710;
},
{
name = right;
x = 368;
y = 0;
},
{
name = bottom;
x = 346;
y = 0;
}
);
components = (
);
contours = (
{
points = (
{
segmentType = curve;
smooth = 1;
x = 342;
y = -10;
},
{
smooth = 0;
x = 480;
y = -10;
},
{
smooth = 0;
x = 593;
y = 61;
},
{
segmentType = curve;
smooth = 1;
x = 627;
y = 256;
},
{
segmentType = line;
smooth = 0;
x = 688;
y = 605;
},
{
segmentType = line;
smooth = 0;
x = 770;
y = 644;
},
{
segmentType = line;
smooth = 1;
x = 791;
y = 644;
},
{
smooth = 0;
x = 859.23529;
y = 644;
},
{
smooth = 0;
x = 896;
y = 691;
},
{
segmentType = curve;
smooth = 1;
x = 896;
y = 736;
},
{
smooth = 0;
x = 896;
y = 750;
},
{
smooth = 0;
x = 889;
y = 752;
},
{
segmentType = curve;
smooth = 1;
x = 873;
y = 752;
},
{
segmentType = line;
smooth = 0;
x = 843;
y = 752;
},
{
segmentType = line;
smooth = 0;
x = 836;
y = 746;
},
{
segmentType = line;
smooth = 1;
x = 831;
y = 711;
},
{
smooth = 0;
x = 826;
y = 678;
},
{
smooth = 0;
x = 812;
y = 660;
},
{
segmentType = curve;
smooth = 1;
x = 774;
y = 660;
},
{
segmentType = line;
smooth = 0;
x = 537;
y = 660;
},
{
segmentType = line;
smooth = 0;
x = 533;
y = 644;
},
{
segmentType = line;
smooth = 0;
x = 622;
y = 606;
},
{
segmentType = line;
smooth = 1;
x = 557;
y = 236;
},
{
smooth = 0;
x = 533;
y = 97;
},
{
smooth = 0;
x = 441;
y = 43;
},
{
segmentType = curve;
smooth = 1;
x = 368;
y = 43;
},
{
smooth = 0;
x = 279;
y = 43;
},
{
smooth = 0;
x = 214;
y = 84;
},
{
segmentType = curve;
smooth = 1;
x = 214;
y = 200;
},
{
smooth = 0;
x = 214;
y = 221;
},
{
smooth = 0;
x = 216;
y = 245;
},
{
segmentType = curve;
smooth = 1;
x = 221;
y = 271;
},
{
segmentType = line;
smooth = 0;
x = 280;
y = 604;
},
{
segmentType = line;
smooth = 0;
x = 362;
y = 644;
},
{
segmentType = line;
smooth = 0;
x = 366;
y = 660;
},
{
segmentType = line;
smooth = 0;
x = 128;
y = 660;
},
{
segmentType = line;
smooth = 0;
x = 125;
y = 644;
},
{
segmentType = line;
smooth = 0;
x = 194;
y = 604;
},
{
segmentType = line;
smooth = 1;
x = 133;
y = 256;
},
{
smooth = 0;
x = 129;
y = 231;
},
{
smooth = 0;
x = 126;
y = 208;
},
{
segmentType = curve;
smooth = 1;
x = 126;
y = 186;
},
{
smooth = 0;
x = 126;
y = 50;
},
{
smooth = 0;
x = 214;
y = -10;
}
);
}
);
lib = {
};
name = Uhorn;
unicodes = (
);
width = 783;
};
};
};
width = 783;
},
{
anchors = (
{
name = bottom;
pos = (335,0);
},
{
name = right;
pos = (357,0);
},
{
name = top;
pos = (500,710);
}
);
layerId = "48B243E4-A9BC-4CE2-9E97-0DBF8BE24EDB";
shapes = (
{
closed = 1;
nodes = (
(506,-10,o),
(614,67,o),
(655,302,cs),
(707,603,l),
(774,634,l),
(794,634,ls),
(902.235,634,o),
(956,676,o),
(956,734,cs),
(956,750,o),
(949,753,o),
(932,753,cs),
(862,753,l),
(855,747,l),
(848,701,ls),
(844,675,o),
(818,660,o),
(759,660,c),
(574,660,l),
(571,644,l),
(645,604,l),
(585,255,ls),
(563,125,o),
(483,77,o),
(404,77,cs),
(324,77,o),
(263,114,o),
(263,223,cs),
(263,243,o),
(265,265,o),
(269,290,cs),
(323,602,l),
(411,644,l),
(414,660,l),
(81,660,l),
(78,644,l),
(152,602,l),
(100,302,ls),
(94,268,o),
(91,238,o),
(91,211,cs),
(91,47,o),
(193,-10,o),
(349,-10,cs)
);
}
);
userData = {
com.typemytype.robofont.layerData = {
mask = {
anchors = (
{
name = top;
x = 500;
y = 710;
},
{
name = right;
x = 357;
y = 0;
},
{
name = bottom;
x = 335;
y = 0;
}
);
components = (
);
contours = (
{
points = (
{
segmentType = curve;
smooth = 1;
x = 349;
y = -10;
},
{
smooth = 0;
x = 506;
y = -10;
},
{
smooth = 0;
x = 614;
y = 67;
},
{
segmentType = curve;
smooth = 1;
x = 655;
y = 302;
},
{
segmentType = line;
smooth = 0;
x = 707;
y = 603;
},
{
segmentType = line;
smooth = 0;
x = 774;
y = 634;
},
{
segmentType = line;
smooth = 1;
x = 794;
y = 634;
},
{
smooth = 0;
x = 902.23529;
y = 634;
},
{
smooth = 0;
x = 956;
y = 676;
},
{
segmentType = curve;
smooth = 1;
x = 956;
y = 734;
},
{
smooth = 0;
x = 956;
y = 750;
},
{
smooth = 0;
x = 949;
y = 753;
},
{
segmentType = curve;
smooth = 1;
x = 932;
y = 753;
},
{
segmentType = line;
smooth = 0;
x = 862;
y = 753;
},
{
segmentType = line;
smooth = 0;
x = 855;
y = 747;
},
{
segmentType = line;
smooth = 1;
x = 848;
y = 701;
},
{
smooth = 0;
x = 844;
y = 675;
},
{
smooth = 0;
x = 818;
y = 660;
},
{
segmentType = curve;
smooth = 0;
x = 759;
y = 660;
},
{
segmentType = line;
smooth = 0;
x = 574;
y = 660;
},
{
segmentType = line;
smooth = 0;
x = 571;
y = 644;
},
{
segmentType = line;
smooth = 0;
x = 645;
y = 604;
},
{
segmentType = line;
smooth = 1;
x = 585;
y = 255;
},
{
smooth = 0;
x = 563;
y = 125;
},
{
smooth = 0;
x = 483;
y = 77;
},
{
segmentType = curve;
smooth = 1;
x = 404;
y = 77;
},
{
smooth = 0;
x = 324;
y = 77;
},
{
smooth = 0;
x = 263;
y = 114;
},
{
segmentType = curve;
smooth = 1;
x = 263;
y = 223;
},
{
smooth = 0;
x = 263;
y = 243;
},
{
smooth = 0;
x = 265;
y = 265;
},
{
segmentType = curve;
smooth = 1;
x = 269;
y = 290;
},
{
segmentType = line;
smooth = 0;
x = 323;
y = 602;
},
{
segmentType = line;
smooth = 0;
x = 411;
y = 644;
},
{
segmentType = line;
smooth = 0;
x = 414;
y = 660;
},
{
segmentType = line;
smooth = 0;
x = 81;
y = 660;
},
{
segmentType = line;
smooth = 0;
x = 78;
y = 644;
},
{
segmentType = line;
smooth = 0;
x = 152;
y = 602;
},
{
segmentType = line;
smooth = 1;
x = 100;
y = 302;
},
{
smooth = 0;
x = 94;
y = 268;
},
{
smooth = 0;
x = 91;
y = 238;
},
{
segmentType = curve;
smooth = 1;
x = 91;
y = 211;
},
{
smooth = 0;
x = 91;
y = 47;
},
{
smooth = 0;
x = 193;
y = -10;
}
);
}
);
lib = {
};
name = Uhorn;
unicodes = (
);
width = 747;
};
};
};
width = 747;
}
);
unicode = 431;
},
{
color = 5;
glyphname = Uogonek;
kernLeft = kern_U2;
kernRight = kern_U1;
layers = (
{
layerId = master01;
shapes = (
{
closed = 1;
nodes = (
(285,-46,o),
(239,-103,o),
(239,-159,cs),
(239,-210,o),
(270,-240,o),
(320,-240,cs),
(356,-240,o),
(386,-223,o),
(407,-193,c),
(409,-180,l),
(406,-180,l),
(388,-192,o),
(370,-196,o),
(356,-196,cs),
(321,-196,o),
(300,-179,o),
(300,-140,cs),
(300,-92,o),
(330,-37,o),
(385,25,c),
(361,25,l)
);
},
{
closed = 1;
nodes = (
(480,-10,o),
(593,61,o),
(627,256,cs),
(688,605,l),
(770,644,l),
(773,660,l),
(537,660,l),
(533,644,l),
(622,606,l),
(557,236,ls),
(533,97,o),
(441,43,o),
(368,43,cs),
(279,43,o),
(214,84,o),
(214,200,cs),
(214,221,o),
(216,245,o),
(221,271,cs),
(280,604,l),
(362,644,l),
(366,660,l),
(128,660,l),
(125,644,l),
(194,604,l),
(133,256,ls),
(129,231,o),
(126,208,o),
(126,186,cs),
(126,50,o),
(214,-10,o),
(342,-10,cs)
);
}
);
userData = {
com.typemytype.robofont.layerData = {
mask = {
anchors = (
);
components = (
);
contours = (
{
points = (
{
segmentType = line;
smooth = 0;
x = 361;
y = 25;
},
{
smooth = 0;
x = 285;
y = -46;
},
{
smooth = 0;
x = 239;
y = -103;
},
{
segmentType = curve;
smooth = 1;
x = 239;
y = -159;
},
{
smooth = 0;
x = 239;
y = -210;
},
{
smooth = 0;
x = 270;
y = -240;
},
{
segmentType = curve;
smooth = 1;
x = 320;
y = -240;
},
{
smooth = 0;
x = 356;
y = -240;
},
{
smooth = 0;
x = 386;
y = -223;
},
{
segmentType = curve;
smooth = 0;
x = 407;
y = -193;
},
{
segmentType = line;
smooth = 0;
x = 409;
y = -180;
},
{
segmentType = line;
smooth = 0;
x = 406;
y = -180;
},
{
smooth = 0;
x = 388;
y = -192;
},
{
smooth = 0;
x = 370;
y = -196;
},
{
segmentType = curve;
smooth = 1;
x = 356;
y = -196;
},
{
smooth = 0;
x = 321;
y = -196;
},
{
smooth = 0;
x = 300;
y = -179;
},
{
segmentType = curve;
smooth = 1;
x = 300;
y = -140;
},
{
smooth = 0;
x = 300;
y = -92;
},
{
smooth = 0;
x = 330;
y = -37;
},
{
segmentType = curve;
smooth = 0;
x = 385;
y = 25;
}
);
},
{
points = (
{
segmentType = curve;
smooth = 1;
x = 342;
y = -10;
},
{
smooth = 0;
x = 480;
y = -10;
},
{
smooth = 0;
x = 593;
y = 61;
},
{
segmentType = curve;
smooth = 1;
x = 627;
y = 256;
},
{
segmentType = line;
smooth = 0;
x = 688;
y = 605;
},
{
segmentType = line;
smooth = 0;
x = 770;
y = 644;
},
{
segmentType = line;
smooth = 0;
x = 773;
y = 660;
},
{
segmentType = line;
smooth = 0;
x = 537;
y = 660;
},
{
segmentType = line;
smooth = 0;
x = 533;
y = 644;
},
{
segmentType = line;
smooth = 0;
x = 622;
y = 606;
},
{
segmentType = line;
smooth = 1;
x = 557;
y = 236;
},
{
smooth = 0;
x = 533;
y = 97;
},
{
smooth = 0;
x = 441;
y = 43;
},
{
segmentType = curve;
smooth = 1;
x = 368;
y = 43;
},
{
smooth = 0;
x = 279;
y = 43;
},
{
smooth = 0;
x = 214;
y = 84;
},
{
segmentType = curve;
smooth = 1;
x = 214;
y = 200;
},
{
smooth = 0;
x = 214;
y = 221;
},
{
smooth = 0;
x = 216;
y = 245;
},
{
segmentType = curve;
smooth = 1;
x = 221;
y = 271;
},
{
segmentType = line;
smooth = 0;
x = 280;
y = 604;
},
{
segmentType = line;
smooth = 0;
x = 362;
y = 644;
},
{
segmentType = line;
smooth = 0;
x = 366;
y = 660;
},
{
segmentType = line;
smooth = 0;
x = 128;
y = 660;
},
{
segmentType = line;
smooth = 0;
x = 125;
y = 644;
},
{
segmentType = line;
smooth = 0;
x = 194;
y = 604;
},
{
segmentType = line;
smooth = 1;
x = 133;
y = 256;
},
{
smooth = 0;
x = 129;
y = 231;
},
{
smooth = 0;
x = 126;
y = 208;
},
{
segmentType = curve;
smooth = 1;
x = 126;
y = 186;
},
{
smooth = 0;
x = 126;
y = 50;
},
{
smooth = 0;
x = 214;
y = -10;
}
);
}
);
lib = {
};
name = Uogonek;
unicodes = (
);
width = 783;
};
};
};
width = 783;
},
{
layerId = "48B243E4-A9BC-4CE2-9E97-0DBF8BE24EDB";
shapes = (
{
closed = 1;
nodes = (
(299,-25,o),
(233,-89,o),
(233,-160,cs),
(233,-209,o),
(267,-240,o),
(324,-240,cs),
(368,-240,o),
(399,-220,o),
(419,-189,c),
(425,-167,l),
(421,-167,l),
(411,-177,o),
(393,-183,o),
(379,-183,cs),
(344,-183,o),
(326,-164,o),
(326,-130,cs),
(326,-76,o),
(353,-19,o),
(384,27,c),
(361,27,l)
);
},
{
closed = 1;
nodes = (
(516,-10,o),
(624,67,o),
(665,302,cs),
(717,603,l),
(805,644,l),
(808,660,l),
(584,660,l),
(581,644,l),
(655,604,l),
(595,255,ls),
(573,125,o),
(493,77,o),
(414,77,cs),
(334,77,o),
(273,114,o),
(273,223,cs),
(273,243,o),
(275,265,o),
(279,290,cs),
(333,602,l),
(421,644,l),
(424,660,l),
(91,660,l),
(88,644,l),
(162,602,l),
(110,302,ls),
(104,268,o),
(101,238,o),
(101,211,cs),
(101,47,o),
(203,-10,o),
(359,-10,cs)
);
}
);
userData = {
com.typemytype.robofont.layerData = {
mask = {
anchors = (
);
components = (
);
contours = (
{
points = (
{
segmentType = line;
smooth = 0;
x = 361;
y = 27;
},
{
smooth = 0;
x = 299;
y = -25;
},
{
smooth = 0;
x = 233;
y = -89;
},
{
segmentType = curve;
smooth = 1;
x = 233;
y = -160;
},
{
smooth = 0;
x = 233;
y = -209;
},
{
smooth = 0;
x = 267;
y = -240;
},
{
segmentType = curve;
smooth = 1;
x = 324;
y = -240;
},
{
smooth = 0;
x = 368;
y = -240;
},
{
smooth = 0;
x = 399;
y = -220;
},
{
segmentType = curve;
smooth = 0;
x = 419;
y = -189;
},
{
segmentType = line;
smooth = 0;
x = 425;
y = -167;
},
{
segmentType = line;
smooth = 0;
x = 421;
y = -167;
},
{
smooth = 0;
x = 411;
y = -177;
},
{
smooth = 0;
x = 393;
y = -183;
},
{
segmentType = curve;
smooth = 1;
x = 379;
y = -183;
},
{
smooth = 0;
x = 344;
y = -183;
},
{
smooth = 0;
x = 326;
y = -164;
},
{
segmentType = curve;
smooth = 1;
x = 326;
y = -130;
},
{
smooth = 0;
x = 326;
y = -76;
},
{
smooth = 0;
x = 353;
y = -19;
},
{
segmentType = curve;
smooth = 0;
x = 384;
y = 27;
}
);
},
{
points = (
{
segmentType = curve;
smooth = 1;
x = 359;
y = -10;
},
{
smooth = 0;
x = 516;
y = -10;
},
{
smooth = 0;
x = 624;
y = 67;
},
{
segmentType = curve;
smooth = 1;
x = 665;
y = 302;
},
{
segmentType = line;
smooth = 0;
x = 717;
y = 603;
},
{
segmentType = line;
smooth = 0;
x = 805;
y = 644;
},
{
segmentType = line;
smooth = 0;
x = 808;
y = 660;
},
{
segmentType = line;
smooth = 0;
x = 584;
y = 660;
},
{
segmentType = line;
smooth = 0;
x = 581;
y = 644;
},
{
segmentType = line;
smooth = 0;
x = 655;
y = 604;
},
{
segmentType = line;
smooth = 1;
x = 595;
y = 255;
},
{
smooth = 0;
x = 573;
y = 125;
},
{
smooth = 0;
x = 493;
y = 77;
},
{
segmentType = curve;
smooth = 1;
x = 414;
y = 77;
},
{
smooth = 0;
x = 334;
y = 77;
},
{
smooth = 0;
x = 273;
y = 114;
},
{
segmentType = curve;
smooth = 1;
x = 273;
y = 223;
},
{
smooth = 0;
x = 273;
y = 243;
},
{
smooth = 0;
x = 275;
y = 265;
},
{
segmentType = curve;
smooth = 1;
x = 279;
y = 290;
},
{
segmentType = line;
smooth = 0;
x = 333;
y = 602;
},
{
segmentType = line;
smooth = 0;
x = 421;
y = 644;
},
{
segmentType = line;
smooth = 0;
x = 424;
y = 660;
},
{
segmentType = line;
smooth = 0;
x = 91;
y = 660;
},
{
segmentType = line;
smooth = 0;
x = 88;
y = 644;
},
{
segmentType = line;
smooth = 0;
x = 162;
y = 602;
},
{
segmentType = line;
smooth = 1;
x = 110;
y = 302;
},
{
smooth = 0;
x = 104;
y = 268;
},
{
smooth = 0;
x = 101;
y = 238;
},
{
segmentType = curve;
smooth = 1;
x = 101;
y = 211;
},
{
smooth = 0;
x = 101;
y = 47;
},
{
smooth = 0;
x = 203;
y = -10;
}
);
}
);
lib = {
};
name = Uogonek;
unicodes = (
);
width = 747;
};
};
};
width = 747;
}
);
unicode = 370;
},
{
color = 5;
glyphname = V;
kernLeft = kern_V3;
kernRight = kern_V3;
layers = (
{
layerId = master01;
shapes = (
{
closed = 1;
nodes = (
(324,-5,l),
(678,632,l),
(644,600,l),
(726,644,l),
(730,660,l),
(530,660,l),
(527,644,l),
(617,606,l),
(619,632,l),
(309,61,l),
(368,128,l),
(317,128,l),
(353,61,l),
(234,632,l),
(217,602,l),
(328,644,l),
(331,660,l),
(94,660,l),
(90,644,l),
(186,588,l),
(145,632,l),
(281,-5,l)
);
}
);
userData = {
com.typemytype.robofont.layerData = {
mask = {
anchors = (
);
components = (
);
contours = (
{
points = (
{
segmentType = line;
smooth = 0;
x = 281;
y = -5;
},
{
segmentType = line;
smooth = 0;
x = 324;
y = -5;
},
{
segmentType = line;
smooth = 0;
x = 678;
y = 632;
},
{
segmentType = line;
smooth = 0;
x = 644;
y = 600;
},
{
segmentType = line;
smooth = 0;
x = 726;
y = 644;
},
{
segmentType = line;
smooth = 0;
x = 730;
y = 660;
},
{
segmentType = line;
smooth = 0;
x = 530;
y = 660;
},
{
segmentType = line;
smooth = 0;
x = 527;
y = 644;
},
{
segmentType = line;
smooth = 0;
x = 617;
y = 606;
},
{
segmentType = line;
smooth = 0;
x = 619;
y = 632;
},
{
segmentType = line;
smooth = 0;
x = 309;
y = 61;
},
{
segmentType = line;
smooth = 0;
x = 368;
y = 128;
},
{
segmentType = line;
smooth = 0;
x = 317;
y = 128;
},
{
segmentType = line;
smooth = 0;
x = 353;
y = 61;
},
{
segmentType = line;
smooth = 0;
x = 234;
y = 632;
},
{
segmentType = line;
smooth = 0;
x = 217;
y = 602;
},
{
segmentType = line;
smooth = 0;
x = 328;
y = 644;
},
{
segmentType = line;
smooth = 0;
x = 331;
y = 660;
},
{
segmentType = line;
smooth = 0;
x = 94;
y = 660;
},
{
segmentType = line;
smooth = 0;
x = 90;
y = 644;
},
{
segmentType = line;
smooth = 0;
x = 186;
y = 588;
},
{
segmentType = line;
smooth = 0;
x = 145;
y = 632;
}
);
}
);
lib = {
};
name = V;
unicodes = (
);
width = 700;
};
};
};
width = 700;
},
{
layerId = "48B243E4-A9BC-4CE2-9E97-0DBF8BE24EDB";
shapes = (
{
closed = 1;
nodes = (
(345,-5,l),
(697,632,l),
(628,579,l),
(742,644,l),
(746,660,l),
(551,660,l),
(548,644,l),
(622,606,l),
(631,632,l),
(355,121,l),
(421,194,l),
(362,194,l),
(403,121,l),
(287,632,l),
(270,599,l),
(368,644,l),
(372,660,l),
(62,660,l),
(58,644,l),
(149,587,l),
(110,632,l),
(256,-5,l)
);
}
);
userData = {
com.typemytype.robofont.layerData = {
mask = {
anchors = (
);
components = (
);
contours = (
{
points = (
{
segmentType = line;
smooth = 0;
x = 256;
y = -5;
},
{
segmentType = line;
smooth = 0;
x = 345;
y = -5;
},
{
segmentType = line;
smooth = 0;
x = 697;
y = 632;
},
{
segmentType = line;
smooth = 0;
x = 628;
y = 579;
},
{
segmentType = line;
smooth = 0;
x = 742;
y = 644;
},
{
segmentType = line;
smooth = 0;
x = 746;
y = 660;
},
{
segmentType = line;
smooth = 0;
x = 551;
y = 660;
},
{
segmentType = line;
smooth = 0;
x = 548;
y = 644;
},
{
segmentType = line;
smooth = 0;
x = 622;
y = 606;
},
{
segmentType = line;
smooth = 0;
x = 631;
y = 632;
},
{
segmentType = line;
smooth = 0;
x = 355;
y = 121;
},
{
segmentType = line;
smooth = 0;
x = 421;
y = 194;
},
{
segmentType = line;
smooth = 0;
x = 362;
y = 194;
},
{
segmentType = line;
smooth = 0;
x = 403;
y = 121;
},
{
segmentType = line;
smooth = 0;
x = 287;
y = 632;
},
{
segmentType = line;
smooth = 0;
x = 270;
y = 599;
},
{
segmentType = line;
smooth = 0;
x = 368;
y = 644;
},
{
segmentType = line;
smooth = 0;
x = 372;
y = 660;
},
{
segmentType = line;
smooth = 0;
x = 62;
y = 660;
},
{
segmentType = line;
smooth = 0;
x = 58;
y = 644;
},
{
segmentType = line;
smooth = 0;
x = 149;
y = 587;
},
{
segmentType = line;
smooth = 0;
x = 110;
y = 632;
}
);
}
);
lib = {
};
name = V;
unicodes = (
);
width = 684;
};
};
};
width = 684;
}
);
unicode = 86;
},
{
color = 5;
glyphname = W;
kernLeft = kern_W3;
kernRight = kern_W3;
layers = (
{
anchors = (
{
name = top;
pos = (568,710);
}
);
layerId = master01;
shapes = (
{
closed = 1;
nodes = (
(262,-5,l),
(541,543,l),
(494,494,l),
(545,494,l),
(514,543,l),
(610,-5,l),
(645,-5,l),
(935,632,l),
(908,603,l),
(994,644,l),
(997,660,l),
(787,660,l),
(784,644,l),
(882,603,l),
(875,632,l),
(655,129,l),
(692,159,l),
(641,159,l),
(668,129,l),
(578,665,l),
(543,665,l),
(276,122,l),
(315,158,l),
(264,158,l),
(291,122,l),
(238,632,l),
(211,596,l),
(332,644,l),
(335,660,l),
(94,660,l),
(90,644,l),
(174,596,l),
(153,632,l),
(226,-5,l)
);
}
);
userData = {
com.typemytype.robofont.layerData = {
mask = {
anchors = (
{
name = top;
x = 568;
y = 710;
}
);
components = (
);
contours = (
{
points = (
{
segmentType = line;
smooth = 0;
x = 226;
y = -5;
},
{
segmentType = line;
smooth = 0;
x = 262;
y = -5;
},
{
segmentType = line;
smooth = 0;
x = 541;
y = 543;
},
{
segmentType = line;
smooth = 0;
x = 494;
y = 494;
},
{
segmentType = line;
smooth = 0;
x = 545;
y = 494;
},
{
segmentType = line;
smooth = 0;
x = 514;
y = 543;
},
{
segmentType = line;
smooth = 0;
x = 610;
y = -5;
},
{
segmentType = line;
smooth = 0;
x = 645;
y = -5;
},
{
segmentType = line;
smooth = 0;
x = 935;
y = 632;
},
{
segmentType = line;
smooth = 0;
x = 908;
y = 603;
},
{
segmentType = line;
smooth = 0;
x = 994;
y = 644;
},
{
segmentType = line;
smooth = 0;
x = 997;
y = 660;
},
{
segmentType = line;
smooth = 0;
x = 787;
y = 660;
},
{
segmentType = line;
smooth = 0;
x = 784;
y = 644;
},
{
segmentType = line;
smooth = 0;
x = 882;
y = 603;
},
{
segmentType = line;
smooth = 0;
x = 875;
y = 632;
},
{
segmentType = line;
smooth = 0;
x = 655;
y = 129;
},
{
segmentType = line;
smooth = 0;
x = 692;
y = 159;
},
{
segmentType = line;
smooth = 0;
x = 641;
y = 159;
},
{
segmentType = line;
smooth = 0;
x = 668;
y = 129;
},
{
segmentType = line;
smooth = 0;
x = 578;
y = 665;
},
{
segmentType = line;
smooth = 0;
x = 543;
y = 665;
},
{
segmentType = line;
smooth = 0;
x = 276;
y = 122;
},
{
segmentType = line;
smooth = 0;
x = 315;
y = 158;
},
{
segmentType = line;
smooth = 0;
x = 264;
y = 158;
},
{
segmentType = line;
smooth = 0;
x = 291;
y = 122;
},
{
segmentType = line;
smooth = 0;
x = 238;
y = 632;
},
{
segmentType = line;
smooth = 0;
x = 211;
y = 596;
},
{
segmentType = line;
smooth = 0;
x = 332;
y = 644;
},
{
segmentType = line;
smooth = 0;
x = 335;
y = 660;
},
{
segmentType = line;
smooth = 0;
x = 94;
y = 660;
},
{
segmentType = line;
smooth = 0;
x = 90;
y = 644;
},
{
segmentType = line;
smooth = 0;
x = 174;
y = 596;
},
{
segmentType = line;
smooth = 0;
x = 153;
y = 632;
}
);
}
);
lib = {
};
name = W;
unicodes = (
);
width = 947;
};
};
};
width = 947;
},
{
anchors = (
{
name = top;
pos = (606,710);
}
);
layerId = "48B243E4-A9BC-4CE2-9E97-0DBF8BE24EDB";
shapes = (
{
closed = 1;
nodes = (
(281,-5,l),
(539,505,l),
(479,437,l),
(537,437,l),
(498,505,l),
(591,-5,l),
(680,-5,l),
(957,632,l),
(901,587,l),
(1013,644,l),
(1016,660,l),
(812,660,l),
(809,644,l),
(901,600,l),
(891,632,l),
(684,141,l),
(747,238,l),
(699,238,l),
(736,141,l),
(644,665,l),
(556,665,l),
(291,141,l),
(362,235,l),
(311,235,l),
(342,141,l),
(289,632,l),
(259,593,l),
(374,644,l),
(377,660,l),
(61,660,l),
(58,644,l),
(149,593,l),
(118,632,l),
(192,-5,l)
);
}
);
userData = {
com.typemytype.robofont.layerData = {
mask = {
anchors = (
{
name = top;
x = 606;
y = 710;
}
);
components = (
);
contours = (
{
points = (
{
segmentType = line;
smooth = 0;
x = 192;
y = -5;
},
{
segmentType = line;
smooth = 0;
x = 281;
y = -5;
},
{
segmentType = line;
smooth = 0;
x = 539;
y = 505;
},
{
segmentType = line;
smooth = 0;
x = 479;
y = 437;
},
{
segmentType = line;
smooth = 0;
x = 537;
y = 437;
},
{
segmentType = line;
smooth = 0;
x = 498;
y = 505;
},
{
segmentType = line;
smooth = 0;
x = 591;
y = -5;
},
{
segmentType = line;
smooth = 0;
x = 680;
y = -5;
},
{
segmentType = line;
smooth = 0;
x = 957;
y = 632;
},
{
segmentType = line;
smooth = 0;
x = 901;
y = 587;
},
{
segmentType = line;
smooth = 0;
x = 1013;
y = 644;
},
{
segmentType = line;
smooth = 0;
x = 1016;
y = 660;
},
{
segmentType = line;
smooth = 0;
x = 812;
y = 660;
},
{
segmentType = line;
smooth = 0;
x = 809;
y = 644;
},
{
segmentType = line;
smooth = 0;
x = 901;
y = 600;
},
{
segmentType = line;
smooth = 0;
x = 891;
y = 632;
},
{
segmentType = line;
smooth = 0;
x = 684;
y = 141;
},
{
segmentType = line;
smooth = 0;
x = 747;
y = 238;
},
{
segmentType = line;
smooth = 0;
x = 699;
y = 238;
},
{
segmentType = line;
smooth = 0;
x = 736;
y = 141;
},
{
segmentType = line;
smooth = 0;
x = 644;
y = 665;
},
{
segmentType = line;
smooth = 0;
x = 556;
y = 665;
},
{
segmentType = line;
smooth = 0;
x = 291;
y = 141;
},
{
segmentType = line;
smooth = 0;
x = 362;
y = 235;
},
{
segmentType = line;
smooth = 0;
x = 311;
y = 235;
},
{
segmentType = line;
smooth = 0;
x = 342;
y = 141;
},
{
segmentType = line;
smooth = 0;
x = 289;
y = 632;
},
{
segmentType = line;
smooth = 0;
x = 259;
y = 593;
},
{
segmentType = line;
smooth = 0;
x = 374;
y = 644;
},
{
segmentType = line;
smooth = 0;
x = 377;
y = 660;
},
{
segmentType = line;
smooth = 0;
x = 61;
y = 660;
},
{
segmentType = line;
smooth = 0;
x = 58;
y = 644;
},
{
segmentType = line;
smooth = 0;
x = 149;
y = 593;
},
{
segmentType = line;
smooth = 0;
x = 118;
y = 632;
}
);
}
);
lib = {
};
name = W;
unicodes = (
);
width = 954;
};
};
};
width = 954;
}
);
unicode = 87;
},
{
color = 5;
glyphname = X;
kernLeft = kern_X3;
kernRight = kern_X3;
layers = (
{
layerId = master01;
shapes = (
{
closed = 1;
nodes = (
(619,0,l),
(622,16,l),
(526,75,l),
(579,23,l),
(253,606,l),
(254,611,l),
(347,644,l),
(350,660,l),
(113,660,l),
(110,644,l),
(205,585,l),
(152,632,l),
(468,54,l),
(467,50,l),
(380,16,l),
(377,0,l)
);
},
{
closed = 1;
nodes = (
(196,0,l),
(199,16,l),
(124,50,l),
(124,54,l),
(350,305,l),
(326,349,l),
(38,36,l),
(87,68,l),
(-21,16,l),
(-25,0,l)
);
},
{
closed = 1;
nodes = (
(717,660,l),
(512,660,l),
(509,644,l),
(578,610,l),
(578,606,l),
(366,369,l),
(388,323,l),
(671,632,l),
(593,581,l),
(714,644,l)
);
}
);
userData = {
com.typemytype.robofont.layerData = {
mask = {
anchors = (
);
components = (
);
contours = (
{
points = (
{
segmentType = line;
smooth = 0;
x = 377;
y = 0;
},
{
segmentType = line;
smooth = 0;
x = 619;
y = 0;
},
{
segmentType = line;
smooth = 0;
x = 622;
y = 16;
},
{
segmentType = line;
smooth = 0;
x = 526;
y = 75;
},
{
segmentType = line;
smooth = 0;
x = 579;
y = 23;
},
{
segmentType = line;
smooth = 0;
x = 253;
y = 606;
},
{
segmentType = line;
smooth = 0;
x = 254;
y = 611;
},
{
segmentType = line;
smooth = 0;
x = 347;
y = 644;
},
{
segmentType = line;
smooth = 0;
x = 350;
y = 660;
},
{
segmentType = line;
smooth = 0;
x = 113;
y = 660;
},
{
segmentType = line;
smooth = 0;
x = 110;
y = 644;
},
{
segmentType = line;
smooth = 0;
x = 205;
y = 585;
},
{
segmentType = line;
smooth = 0;
x = 152;
y = 632;
},
{
segmentType = line;
smooth = 0;
x = 468;
y = 54;
},
{
segmentType = line;
smooth = 0;
x = 467;
y = 50;
},
{
segmentType = line;
smooth = 0;
x = 380;
y = 16;
}
);
},
{
points = (
{
segmentType = line;
smooth = 0;
x = -25;
y = 0;
},
{
segmentType = line;
smooth = 0;
x = 196;
y = 0;
},
{
segmentType = line;
smooth = 0;
x = 199;
y = 16;
},
{
segmentType = line;
smooth = 0;
x = 124;
y = 50;
},
{
segmentType = line;
smooth = 0;
x = 124;
y = 54;
},
{
segmentType = line;
smooth = 0;
x = 350;
y = 305;
},
{
segmentType = line;
smooth = 0;
x = 326;
y = 349;
},
{
segmentType = line;
smooth = 0;
x = 38;
y = 36;
},
{
segmentType = line;
smooth = 0;
x = 87;
y = 68;
},
{
segmentType = line;
smooth = 0;
x = -21;
y = 16;
}
);
},
{
points = (
{
segmentType = line;
smooth = 0;
x = 714;
y = 644;
},
{
segmentType = line;
smooth = 0;
x = 717;
y = 660;
},
{
segmentType = line;
smooth = 0;
x = 512;
y = 660;
},
{
segmentType = line;
smooth = 0;
x = 509;
y = 644;
},
{
segmentType = line;
smooth = 0;
x = 578;
y = 610;
},
{
segmentType = line;
smooth = 0;
x = 578;
y = 606;
},
{
segmentType = line;
smooth = 0;
x = 366;
y = 369;
},
{
segmentType = line;
smooth = 0;
x = 388;
y = 323;
},
{
segmentType = line;
smooth = 0;
x = 671;
y = 632;
},
{
segmentType = line;
smooth = 0;
x = 593;
y = 581;
}
);
}
);
lib = {
};
name = X;
unicodes = (
);
width = 702;
};
};
};
width = 702;
},
{
layerId = "48B243E4-A9BC-4CE2-9E97-0DBF8BE24EDB";
shapes = (
{
closed = 1;
nodes = (
(664,0,l),
(667,16,l),
(573,77,l),
(624,22,l),
(318,603,l),
(318,608,l),
(398,644,l),
(401,660,l),
(76,660,l),
(73,644,l),
(168,585,l),
(116,632,l),
(411,56,l),
(411,52,l),
(338,16,l),
(335,0,l)
);
},
{
closed = 1;
nodes = (
(178,0,l),
(181,16,l),
(113,55,l),
(117,59,l),
(354,313,l),
(312,348,l),
(21,38,l),
(62,67,l),
(-43,16,l),
(-46,0,l)
);
},
{
closed = 1;
nodes = (
(750,660,l),
(531,660,l),
(528,644,l),
(597,607,l),
(596,603,l),
(383,373,l),
(416,333,l),
(699,630,l),
(626,581,l),
(747,644,l)
);
}
);
userData = {
com.typemytype.robofont.layerData = {
mask = {
anchors = (
);
components = (
);
contours = (
{
points = (
{
segmentType = line;
smooth = 0;
x = 335;
y = 0;
},
{
segmentType = line;
smooth = 0;
x = 664;
y = 0;
},
{
segmentType = line;
smooth = 0;
x = 667;
y = 16;
},
{
segmentType = line;
smooth = 0;
x = 573;
y = 77;
},
{
segmentType = line;
smooth = 0;
x = 624;
y = 22;
},
{
segmentType = line;
smooth = 0;
x = 318;
y = 603;
},
{
segmentType = line;
smooth = 0;
x = 318;
y = 608;
},
{
segmentType = line;
smooth = 0;
x = 398;
y = 644;
},
{
segmentType = line;
smooth = 0;
x = 401;
y = 660;
},
{
segmentType = line;
smooth = 0;
x = 76;
y = 660;
},
{
segmentType = line;
smooth = 0;
x = 73;
y = 644;
},
{
segmentType = line;
smooth = 0;
x = 168;
y = 585;
},
{
segmentType = line;
smooth = 0;
x = 116;
y = 632;
},
{
segmentType = line;
smooth = 0;
x = 411;
y = 56;
},
{
segmentType = line;
smooth = 0;
x = 411;
y = 52;
},
{
segmentType = line;
smooth = 0;
x = 338;
y = 16;
}
);
},
{
points = (
{
segmentType = line;
smooth = 0;
x = -46;
y = 0;
},
{
segmentType = line;
smooth = 0;
x = 178;
y = 0;
},
{
segmentType = line;
smooth = 0;
x = 181;
y = 16;
},
{
segmentType = line;
smooth = 0;
x = 113;
y = 55;
},
{
segmentType = line;
smooth = 0;
x = 117;
y = 59;
},
{
segmentType = line;
smooth = 0;
x = 354;
y = 313;
},
{
segmentType = line;
smooth = 0;
x = 312;
y = 348;
},
{
segmentType = line;
smooth = 0;
x = 21;
y = 38;
},
{
segmentType = line;
smooth = 0;
x = 62;
y = 67;
},
{
segmentType = line;
smooth = 0;
x = -43;
y = 16;
}
);
},
{
points = (
{
segmentType = line;
smooth = 0;
x = 747;
y = 644;
},
{
segmentType = line;
smooth = 0;
x = 750;
y = 660;
},
{
segmentType = line;
smooth = 0;
x = 531;
y = 660;
},
{
segmentType = line;
smooth = 0;
x = 528;
y = 644;
},
{
segmentType = line;
smooth = 0;
x = 597;
y = 607;
},
{
segmentType = line;
smooth = 0;
x = 596;
y = 603;
},
{
segmentType = line;
smooth = 0;
x = 383;
y = 373;
},
{
segmentType = line;
smooth = 0;
x = 416;
y = 333;
},
{
segmentType = line;
smooth = 0;
x = 699;
y = 630;
},
{
segmentType = line;
smooth = 0;
x = 626;
y = 581;
}
);
}
);
lib = {
};
name = X;
unicodes = (
);
width = 721;
};
};
};
width = 721;
}
);
unicode = 88;
},
